<?xml version="1.0" encoding="utf-8"?>
<!-- Generator: Adobe Illustrator 21.0.0, SVG Export Plug-In . SVG Version: 6.00 Build 0)  -->
<svg version="1.1"
	 id="svg2" xmlns:cc="http://creativecommons.org/ns#" xmlns:dc="http://purl.org/dc/elements/1.1/" xmlns:inkscape="http://www.inkscape.org/namespaces/inkscape" xmlns:rdf="http://www.w3.org/1999/02/22-rdf-syntax-ns#" xmlns:sodipodi="http://sodipodi.sourceforge.net/DTD/sodipodi-0.dtd" xmlns:svg="http://www.w3.org/2000/svg"
	 xmlns="http://www.w3.org/2000/svg" xmlns:xlink="http://www.w3.org/1999/xlink" x="0px" y="0px" viewBox="0 0 32 32"
	 style="enable-background:new 0 0 32 32;" xml:space="preserve">
<style type="text/css">
	.st0{fill:#330202;}
	.st1{fill:#FFFFFF;}
</style>
<script  id="script3301" xlink:href=""></script>
<script  id="script3299" xlink:href=""></script>
<rect class="st0" width="32" height="32"/>
<g>
	<g>
		<g>
			<g>
				<path class="st1" d="M16,14.8c-0.1,0-0.2,0-0.2-0.1L7.5,10C7.4,9.9,7.3,9.7,7.3,9.5c0-0.2,0.1-0.3,0.2-0.4l8.2-4.7
					c0.2-0.1,0.3-0.1,0.5,0l8.2,4.7c0.2,0.1,0.2,0.3,0.2,0.4c0,0.1,0,0.4-0.1,0.5l-8.2,4.7C16.2,14.7,16.1,14.8,16,14.8z M8.8,9.5
					l7.2,4.2l7.2-4.2L16,5.4L8.8,9.5z"/>
			</g>
			<g>
				<path class="st1" d="M14.4,27.5c-0.1,0-0.2,0-0.2-0.1L6,22.7c-0.2-0.1-0.3-0.3-0.3-0.4v-9.5c0-0.2,0.1-0.3,0.2-0.4
					c0.2-0.1,0.3-0.1,0.5,0l8.2,4.7c0.2,0.1,0.2,0.3,0.2,0.4V27c0,0.2-0.1,0.3-0.2,0.4C14.5,27.5,14.5,27.5,14.4,27.5z M6.7,22
					l7.2,4.2v-8.3l-7.2-4.2V22z"/>
			</g>
			<g>
				<path class="st1" d="M17.6,27.5c-0.1,0-0.2,0-0.2-0.1c-0.2-0.1-0.2-0.3-0.2-0.4v-9.5c0-0.2,0.1-0.3,0.2-0.4l8.2-4.7
					c0.2-0.1,0.3-0.1,0.5,0s0.2,0.3,0.2,0.4v9.5c0,0.2-0.1,0.3-0.3,0.4l-8.2,4.7C17.8,27.5,17.7,27.5,17.6,27.5z M18.1,17.8v8.3
					l7.2-4.2v-8.2L18.1,17.8z"/>
			</g>
		</g>
	</g>
</g>
</svg>
