<?xml version="1.0" encoding="utf-8"?>
<!-- Generator: Adobe Illustrator 21.0.0, SVG Export Plug-In . SVG Version: 6.00 Build 0)  -->
<svg version="1.1" id="Camada_1" xmlns="http://www.w3.org/2000/svg" xmlns:xlink="http://www.w3.org/1999/xlink" x="0px" y="0px"
	 viewBox="0 0 512 512" style="enable-background:new 0 0 512 512;" xml:space="preserve">
<style type="text/css">
	.st0{fill:#FFFFFF;}
	.st1{fill:#5D0000;}
</style>
<circle class="st0" cx="256" cy="256" r="253.4"/>
<path class="st0" d="M256,255.9c0,0,0.1,0.1,0.1,0.1c-0.1,0-0.1,0-0.1,0.1c0,0-0.1-0.1-0.1-0.1C255.9,255.9,256,255.9,256,255.9z"/>
<path class="st0" d="M256.2,256c0,0.1-0.1,0.1-0.2,0.2c-0.1,0-0.1-0.1-0.2-0.1c0.1-0.1,0.1-0.1,0.2-0.2
	C256.1,255.9,256.1,255.9,256.2,256z"/>
<g>
	<g>
		<path class="st1" d="M365.5,410.4h-221c-8.9,0-16.1-7.2-16.1-16.1V232.4h253.3v161.9C381.6,403.2,374.4,410.4,365.5,410.4z"/>
		<path class="st1" d="M413.8,255.4c6.7,6.7,1.9,18.2-7.6,18.2l-150.1-1l-150.5-1c-9.4-0.1-14.1-11.5-7.4-18.2l149.3-149.3
			c4.2-4.2,10.9-4.2,15,0L413.8,255.4z"/>
	</g>
	<path class="st0" d="M280.2,295.2h-50.3c-12.5,0-22.6,10.1-22.6,22.6V411h95.6v-93.2C302.8,305.3,292.7,295.2,280.2,295.2z"/>
</g>
<g id="Layer_1">
</g>
</svg>
