<?xml version="1.0" encoding="utf-8"?>
<!-- Generator: Adobe Illustrator 21.0.0, SVG Export Plug-In . SVG Version: 6.00 Build 0)  -->
<svg version="1.1" id="Layer_1" xmlns="http://www.w3.org/2000/svg" xmlns:xlink="http://www.w3.org/1999/xlink" x="0px" y="0px"
	 viewBox="0 0 42.5 43.8" style="enable-background:new 0 0 42.5 43.8;" xml:space="preserve">
<style type="text/css">
	.st0{fill:#5D0000;}
	.st1{fill:#FFFDFD;}
</style>
<g>
	<circle class="st0" cx="21.3" cy="21.9" r="19.6"/>
	<g>
		<g>
			<path class="st1" d="M32.5,27.8H10c-0.4,0-0.8,0.4-0.8,0.8V32c0,0.4,0.3,0.8,0.8,0.8h22.5c0.4,0,0.8-0.3,0.8-0.8v-3.4
				C33.2,28.1,32.9,27.8,32.5,27.8z M32.5,19.8H10c-0.4,0-0.8,0.4-0.8,0.8V24c0,0.4,0.3,0.8,0.8,0.8h22.5c0.4,0,0.8-0.3,0.8-0.8
				v-3.4C33.2,20.1,32.9,19.8,32.5,19.8z M32.5,11.8H10c-0.4,0-0.8,0.4-0.8,0.8V16c0,0.4,0.3,0.8,0.8,0.8h22.5
				c0.4,0,0.8-0.3,0.8-0.8v-3.4C33.2,12.1,32.9,11.8,32.5,11.8z"/>
		</g>
	</g>
</g>
</svg>
