<?xml version="1.0" encoding="utf-8"?>
<!-- Generator: Adobe Illustrator 21.1.0, SVG Export Plug-In . SVG Version: 6.00 Build 0)  -->
<svg version="1.1" id="Layer_1" xmlns="http://www.w3.org/2000/svg" xmlns:xlink="http://www.w3.org/1999/xlink" x="0px" y="0px"
	 viewBox="0 0 173.3 194.7" style="enable-background:new 0 0 173.3 194.7;" xml:space="preserve">
<style type="text/css">
	.st0{fill:none;}
	.st1{fill:#FFFFFF;}
</style>
<g>
	<rect x="-39" y="-30.3" class="st0" width="252" height="252"/>
	<g>
		<g>
			<g>
				<g>
					<path class="st1" d="M88.1,88.9c-0.8,0-1.6,0-1.6-0.8l-65.4-37c-0.8-0.8-1.6-2.4-1.6-3.9c0-1.6,0.8-2.4,1.6-3.1L85.7,7
						c1.6-0.8,2.4-0.8,3.9,0l64.6,37c1.6,0.8,1.6,2.4,1.6,3.1c0,0.8,0,3.1-0.8,3.9l-64.6,37C89.7,88.1,88.9,88.9,88.1,88.9z
						 M31.4,47.2l56.7,33.1l56.7-33.1L88.1,14.9L31.4,47.2z"/>
				</g>
				<g>
					<path class="st1" d="M76,188.3c-0.8,0-1.6,0-1.6-0.8l-63.9-36.6c-1.6-0.8-2.3-2.3-2.3-3.1v-74c0-1.6,0.8-2.3,1.6-3.1
						c1.6-0.8,2.3-0.8,3.9,0l63.9,36.6c1.6,0.8,1.6,2.3,1.6,3.1v74c0,1.6-0.8,2.3-1.6,3.1C76.8,188.3,76.8,188.3,76,188.3z
						 M16.1,145.2l55.1,32.2v-63.5L16.1,81.6V145.2z"/>
				</g>
				<g>
					<path class="st1" d="M98,188.3c-0.8,0-1.6,0-1.6-0.8c-1.6-0.8-1.6-2.3-1.6-3.1v-74c0-1.6,0.8-2.3,1.6-3.1l63.9-36.6
						c1.6-0.8,2.3-0.8,3.9,0c1.6,0.8,1.6,2.3,1.6,3.1v74c0,1.6-0.8,2.3-2.3,3.1l-63.9,36.6C99.5,188.3,98.8,188.3,98,188.3z
						 M102.8,113v63.5l55.1-32.2V81.6L102.8,113z"/>
				</g>
			</g>
		</g>
	</g>
</g>
</svg>
