<?xml version="1.0" encoding="utf-8"?>
<!-- Generator: Adobe Illustrator 21.1.0, SVG Export Plug-In . SVG Version: 6.00 Build 0)  -->
<svg version="1.1"
	 id="svg2" xmlns:cc="http://creativecommons.org/ns#" xmlns:dc="http://purl.org/dc/elements/1.1/" xmlns:inkscape="http://www.inkscape.org/namespaces/inkscape" xmlns:rdf="http://www.w3.org/1999/02/22-rdf-syntax-ns#" xmlns:sodipodi="http://sodipodi.sourceforge.net/DTD/sodipodi-0.dtd" xmlns:svg="http://www.w3.org/2000/svg"
	 xmlns="http://www.w3.org/2000/svg" xmlns:xlink="http://www.w3.org/1999/xlink" x="0px" y="0px" viewBox="0 0 23.9 32"
	 style="enable-background:new 0 0 23.9 32;" xml:space="preserve">
<style type="text/css">
	.st0{fill:none;}
	.st1{fill:#FFFFFF;}
</style>
<g id="background">
	<rect class="st0" width="32" height="32"/>
</g>
<g id="user_x5F_profile">
	<g>
		<path class="st1" d="M4,28h16v-6c0,0,0-2-2-2c-1,0-12,0-12,0s-2,0-2,2C4,23,4,28,4,28z"/>
	</g>
	<g>
		<circle class="st1" cx="12" cy="14" r="4"/>
	</g>
	<path class="st1" d="M18.4,0H0v32h24V5.6L18.4,0z M18,2.4L21.6,6H18C18,6,18,2.4,18,2.4z M2,30V2h14v6h6v22H2z"/>
</g>
</svg>
