<?xml version="1.0" encoding="utf-8"?>
<!-- Generator: Adobe Illustrator 21.0.0, SVG Export Plug-In . SVG Version: 6.00 Build 0)  -->
<svg version="1.1" id="Camada_1" xmlns="http://www.w3.org/2000/svg" xmlns:xlink="http://www.w3.org/1999/xlink" x="0px" y="0px"
	 viewBox="0 0 739.5 739.8" style="enable-background:new 0 0 739.5 739.8;" xml:space="preserve">
<style type="text/css">
	.st0{stroke:#000000;stroke-width:21;stroke-miterlimit:10;}
	.st1{fill:#FFFFFF;}
	.st2{clip-path:url(#SVGID_2_);}
	.st3{fill:none;stroke:#000000;stroke-width:13;stroke-miterlimit:10;}
</style>
<rect x="10.5" class="st0" width="729.1" height="729.1"/>
<title>Ativo 1</title>
<g id="Camada_2">
	<g id="Camada_1-2">
		<polygon class="st1" points="128.8,506.6 128.8,222.4 375,80.2 621.2,222.4 621.2,506.6 375,648.8 		"/>
		<path d="M375,89.5L613.2,227v275L375,639.5L136.8,502V227L375,89.5 M375,71L120.8,217.8v293.5L375,658l254.2-146.8V217.8L375,71z"
			/>
		<g>
			<g>
				<defs>
					<rect id="SVGID_1_" x="120.5" y="329" width="509" height="182"/>
				</defs>
				<clipPath id="SVGID_2_">
					<use xlink:href="#SVGID_1_"  style="overflow:visible;"/>
				</clipPath>
				<g class="st2">
					<path d="M375.1,377.1l238.2,137.5v275L375.1,927.2L137,789.7v-275L375.1,377.1 M375.1,358.7L121,505.4v293.5l254.2,146.8
						l254.2-146.8V505.4L375.1,358.7L375.1,358.7z"/>
				</g>
			</g>
		</g>
		<path d="M327,253v142c0,7.7,12,7.7,12,0V253C339,245.3,327,245.3,327,253z"/>
		<path d="M247,293v142c0,7.7,12,7.7,12,0V293C259,285.3,247,285.3,247,293z"/>
		<path d="M256,298.7l68.1-34.9l9.9-5.1c6.9-3.5,0.8-13.9-6.1-10.4l-68.1,34.9l-9.9,5.1C243.1,291.9,249.1,302.2,256,298.7
			L256,298.7z"/>
		<line class="st3" x1="375" y1="364.5" x2="375" y2="87.5"/>
		<path d="M455,225.5l1.8,84l0.3,12c0.2,7.7,12.2,7.7,12,0l-1.8-84l-0.3-12C466.8,217.8,454.8,217.8,455,225.5z"/>
		<path d="M536,267.5l1.8,84l0.3,12c0.2,7.7,12.2,7.7,12,0l-1.8-84l-0.3-12C547.8,259.8,535.8,259.8,536,267.5z"/>
		<path d="M457.9,230.7l70.7,36.7l10.3,5.3c6.9,3.6,12.9-6.8,6.1-10.4l-70.7-36.7l-10.3-5.3C457.2,216.8,451.1,227.1,457.9,230.7
			L457.9,230.7z"/>
		<path d="M459.9,326.7l70.7,36.7l10.3,5.3c6.9,3.5,12.9-6.8,6.1-10.4l-70.7-36.7l-10.3-5.3C459.2,312.8,453.1,323.1,459.9,326.7
			L459.9,326.7z"/>
	</g>
</g>
</svg>
