<?xml version="1.0" encoding="utf-8"?>
<!-- Generator: Adobe Illustrator 21.0.0, SVG Export Plug-In . SVG Version: 6.00 Build 0)  -->
<svg version="1.1" id="Layer_1" xmlns="http://www.w3.org/2000/svg" xmlns:xlink="http://www.w3.org/1999/xlink" x="0px" y="0px"
	 viewBox="0 0 23 23" style="enable-background:new 0 0 23 23;" xml:space="preserve">
<style type="text/css">
	.st0{clip-path:url(#SVGID_2_);}
	.st1{clip-path:url(#SVGID_2_);fill:none;stroke:#000000;stroke-width:6;stroke-miterlimit:10;}
</style>
<g>
	<defs>
		<rect id="SVGID_1_" width="23" height="23"/>
	</defs>
	<clipPath id="SVGID_2_">
		<use xlink:href="#SVGID_1_"  style="overflow:visible;"/>
	</clipPath>
	<path class="st0" d="M19.2,0H3.8C1.7,0,0,1.7,0,3.8v15.4C0,21.3,1.7,23,3.8,23h15.4c2.1,0,3.8-1.7,3.8-3.8V3.8
		C23,1.7,21.3,0,19.2,0z M11,18.2c0,0.2-0.1,0.3-0.2,0.4c-0.1,0-0.2,0.1-0.2,0.1s-0.2,0-0.2-0.1l-4.9-2.8c-0.1-0.1-0.2-0.2-0.2-0.4
		V9.7c0-0.2,0.1-0.3,0.2-0.4c0.1-0.1,0.3-0.1,0.5,0l4.9,2.8c0.1,0.1,0.2,0.2,0.2,0.4v5.7H11z M11.5,11c-0.1,0-0.2,0-0.2-0.1l-5-2.8
		C6.2,8,6.1,7.8,6.1,7.7c0-0.2,0.1-0.3,0.2-0.4l4.9-2.8c0.1-0.1,0.3-0.1,0.5,0l4.9,2.8c0.1,0.1,0.2,0.2,0.2,0.4S16.7,8,16.6,8.1
		l-4.9,2.8C11.7,11,11.6,11,11.5,11z M17.9,15.3c0,0.2-0.1,0.3-0.2,0.4l-4.9,2.8c-0.1,0-0.2,0.1-0.2,0.1s-0.2,0-0.2-0.1
		c-0.1-0.1-0.2-0.2-0.2-0.4v-5.6c0-0.2,0.1-0.3,0.2-0.4l4.9-2.8c0.1-0.1,0.3-0.1,0.5,0C17.9,9.4,18,9.5,18,9.7v5.6H17.9z"/>
	<rect x="-0.5" y="-0.5" class="st1" width="24" height="24"/>
</g>
</svg>
