<?xml version="1.0" encoding="utf-8"?>
<!-- Generator: Adobe Illustrator 21.1.0, SVG Export Plug-In . SVG Version: 6.00 Build 0)  -->
<svg version="1.1" id="Camada_1" xmlns="http://www.w3.org/2000/svg" xmlns:xlink="http://www.w3.org/1999/xlink" x="0px" y="0px"
	 viewBox="0 0 626 719.8" style="enable-background:new 0 0 626 719.8;" xml:space="preserve">
<style type="text/css">
	.st0{fill:none;}
	.st1{fill:#FFFFFF;}
	.st2{clip-path:url(#SVGID_2_);}
	.st3{fill:none;stroke:#000000;stroke-width:13;stroke-miterlimit:10;}
</style>
<title>Ativo 1</title>
<g>
	<title>Ativo 1</title>
	<g id="Camada_2_1_">
		<g id="Camada_1-2_1_">
			<polygon class="st0" points="22.2,527.5 22.2,190.5 314.1,21.9 606,190.5 606,527.5 314.1,696.1 			"/>
			<path class="st1" d="M314.1,32.9l282.4,163V522l-282.4,163L31.7,522V196L314.1,32.9 M314.1,11L12.7,185.1v348L314.1,707
				l301.4-174.1V185.1L314.1,11z"/>
			<g>
				<g>
					<g>
						<g>
							<defs>
								<rect id="SVGID_1_" x="11.5" y="317.5" width="604" height="216"/>
							</defs>
							<clipPath id="SVGID_2_">
								<use xlink:href="#SVGID_1_"  style="overflow:visible;"/>
							</clipPath>
							<g class="st2">
								<path class="st1" d="M314,374.2l282.5,163.1v326.1L314,1026.5L31.7,863.5V537.3L314,374.2 M314,352.4L12.7,526.3v348
									l301.4,174.1l301.4-174.1v-348L314,352.4L314,352.4z"/>
							</g>
						</g>
					</g>
				</g>
			</g>
			<path class="st1" d="M257.1,226.7v168.5c0,9.1,14.2,9.1,14.2,0V226.7C271.4,217.6,257.1,217.6,257.1,226.7z"/>
			<path class="st1" d="M162.2,274.2v168.5c0,9.1,14.2,9.1,14.2,0V274.2C176.4,265,162.2,265,162.2,274.2z"/>
			<path class="st1" d="M172.7,280.9l80.8-41.4l11.7-6.1c8.2-4.2,0.9-16.5-7.2-12.3l-80.8,41.4l-11.7,6.1
				C157.4,272.8,164.5,285.1,172.7,280.9L172.7,280.9z"/>
			<path class="st3" d="M313.5,30.3"/>
			<path class="st3" d="M313.5,359"/>
			<path class="st1" d="M408.8,194.1l2.1,99.7l0.4,14.2c0.2,9.1,14.5,9.1,14.2,0l-2.1-99.7l-0.4-14.2
				C422.8,184.9,408.6,184.9,408.8,194.1z"/>
			<path class="st1" d="M504.9,243.9l2.1,99.7l0.4,14.2c0.2,9.1,14.5,9.1,14.2,0l-2.1-99.7l-0.4-14.2
				C518.9,234.8,504.7,234.8,504.9,243.9z"/>
			<path class="st1" d="M412.2,200.2l83.9,43.5l12.2,6.3c8.2,4.3,15.3-8.1,7.2-12.3l-83.9-43.5l-12.2-6.3
				C411.4,183.7,404.2,196,412.2,200.2L412.2,200.2z"/>
			<path class="st1" d="M414.6,314.1l83.9,43.5l12.2,6.3c8.2,4.2,15.3-8.1,7.2-12.3l-83.9-43.5l-12.2-6.3
				C413.8,297.7,406.5,309.9,414.6,314.1L414.6,314.1z"/>
		</g>
	</g>
</g>
</svg>
