<svg xmlns="http://www.w3.org/2000/svg" viewBox="0 0 686.96 102.26"><defs><style>.cls-1{fill:#4d2222;}</style></defs><title>Ativo 3</title><g id="Camada_2" data-name="Camada 2"><g id="Camada_1-2" data-name="Camada 1"><path class="cls-1" d="M686.6,102c.49-.51.59-1.89-.46-1.84l-1.21,2.1Z"/><path class="cls-1" d="M680.91,96.33c-1.4.84-3.17,2.46-2.88,4.71,1.63-1.92,1.71-.95,3.52-3.26a1.35,1.35,0,0,1,1.21,1.91c.48-.5,1.42.84,2.27-.46-.89-2-2.5-2.47-4.53-1.41C680.24,97.24,680.73,96.73,680.91,96.33Z"/><path class="cls-1" d="M585,72.14l.57.4A1.24,1.24,0,0,0,585,72.14Z"/><path class="cls-1" d="M525.13,59c.47,0,.7-.16.77-.36C525.44,58.71,525.06,58.78,525.13,59Z"/><path class="cls-1" d="M515.32,54.53c.21.11.39.18.58.27C515.71,54.54,515.5,54.38,515.32,54.53Z"/><path class="cls-1" d="M585,72.14l-1.46-1C583.27,71.82,584.24,71.82,585,72.14Z"/><path class="cls-1" d="M666.4,98.83a2.13,2.13,0,0,0,1-.4,7,7,0,0,1-.87.06C666.49,98.61,666.45,98.71,666.4,98.83Z"/><path class="cls-1" d="M611.83,75.77l.49.1a6.53,6.53,0,0,0,.6-.84Z"/><path class="cls-1" d="M632.19,79.71c-.44-.18-1,1.71-1.37,2.51.43-.74.85-1,1.28-1.1A4.92,4.92,0,0,0,632.19,79.71Z"/><path class="cls-1" d="M663.58,90l.63-.14C664,90,663.77,90,663.58,90Z"/><path class="cls-1" d="M597.38,72.33a2.23,2.23,0,0,0,0-.73A1.53,1.53,0,0,0,597.38,72.33Z"/><path class="cls-1" d="M25.63,26.06c0-.14-.08-.22-.11-.33C25.48,26,25.49,26.09,25.63,26.06Z"/><path class="cls-1" d="M4,31.19v-.36c-.35-.13-.69-.26-1-.35Q3.5,30.86,4,31.19Z"/><path class="cls-1" d="M496.95,48.52l.08.05C497.56,48.44,497.27,48.43,496.95,48.52Z"/><path class="cls-1" d="M323,21.43c1.73,2-3.53,1.78-.83,4.14C322,24.76,325.33,22.9,323,21.43Z"/><path class="cls-1" d="M665.93,98.47a5.8,5.8,0,0,1-.83-.16A1.66,1.66,0,0,0,665.93,98.47Z"/><path class="cls-1" d="M322.2,25.56v0l.28.23Z"/><path class="cls-1" d="M453.27,41.84a2.5,2.5,0,0,0,.29.93A1.64,1.64,0,0,0,453.27,41.84Z"/><path class="cls-1" d="M485.15,50.4,484.4,50A2,2,0,0,0,485.15,50.4Z"/><path class="cls-1" d="M436,41.66c-.41-.22-.51-.52-1.15-.36a1,1,0,0,0,.14.27C435.22,41.34,435.52,41.26,436,41.66Z"/><path class="cls-1" d="M418.44,38.7a3.86,3.86,0,0,0,.26.44h.57Z"/><path class="cls-1" d="M76.4,18.38a6.39,6.39,0,0,1-.87-1.74C75.84,18,73.3,18.62,76.4,18.38Z"/><path class="cls-1" d="M666.63,97.75c-.21.46-.41.67-.7.71a5.07,5.07,0,0,0,.6,0A1,1,0,0,0,666.63,97.75Z"/><path class="cls-1" d="M432.63,56.83l-2.72-.76A12.64,12.64,0,0,0,432.63,56.83Z"/><path class="cls-1" d="M202.49,23.41l-.66.18A.61.61,0,0,0,202.49,23.41Z"/><path class="cls-1" d="M421.63,55a4.1,4.1,0,0,0-1.34-1.6,1.67,1.67,0,0,0-.41.45Z"/><path class="cls-1" d="M75.52,16.62a0,0,0,0,1,0,0A0,0,0,0,0,75.52,16.62Z"/><path class="cls-1" d="M57.71,22.4c2.58-.17,1-2.62,1.43-4.15,3.07-1,1.59,1.78,2.75,3,1.88-.82,3.22-3.29,4.7-3.28.13.42.43.56.13,1.11,2-2.19,6.13-.43,8.46-3.11a1.61,1.61,0,0,1,.34.63A9.78,9.78,0,0,1,75,13.09c1.19-.09,2.16-1.71,2.67,0-.73,0-.77.66-1.09,1.2l1.23-.78c1.21,2.39-1.68.9-1.61,2.7,2.39-.88,5.18-3,7.08-2.33.44,2.36-4.34.91-1.8,3L78.56,16c2.32,3.69-1.75-.21.39,3.74,3.78.58,4.18-1.33,8-.71.83-1.33-.31-2,.52-3.28,5.37-2.44,4.29,5.92,8.21,2.74,1-1.58,1.42-4.6,4.25-3l-1,2.68c3.67.28,2.12-3.86,6-2-.7,1-2.9.86-2.35,1.19,2.48,2.15,1.78-1.51,3.71-1.49l.37,2.39c3.92-.32,8.27-1.95,12.64-2.26-.26.7-1,1.42,0,2.18,5.52-1,11.7.68,16.91,2.34l2.12-2a.8.8,0,0,1,.3,1.34c2,.88.17-1.3,1.2-2.05a1,1,0,0,1,.72,1.83c3.72-1.56,10.58-3.2,14.28-.76l-.78.56c2.93,1,3.64-4,6.29-1.9l-.56.33c6.42,1.31,13.74,0,18.45,3.43,1.17-2.88,6.31,1.82,7.06-2.25,3.54,2.35,2.41,3,7.5,4.81,1.37.31,2.3-2.39,4.06-2.66l-.15,2.15,2.54-2,1,2.68,1.66-.4a1.72,1.72,0,0,1-1.12-1.7c2.61-.74,6,2.06,6,3.17l6.13-1.24c-.22.85-1.24,1-2.08,1.52,3.39-1.88.36,2.32,3.47.59-.34-.53.34-1.26.45-1.69,1.33,1.44,4.63,1.78,7.13,1.48l-.62,1.43c4.38.82,9.38.25,14.33.82-1.7-.88-1-3.4.46-3.49l.34,2.33c1.09-1.3-1.43-1,.69-2.52,1.83.46,1,2.71-.18,3.33l2.34-.54c.06.69-.51,1-.74,1.84,1.08-1.31,3.63,2.7,5.23.41l.05.69c4.95.57,7.28.06,11.33.41.31-1.95,1.83-1.33,3.22-2.77,2.89,1,6,2.9,9.59,3.17,2.63-.67.93-1.56,2.21-2.59,0,1.8,3.55,2.07,1.55,3.12A43.35,43.35,0,0,0,282.66,31c-.5-.81-1.12-1.2-.7-1.77,1-.17,2.14,1,1.89,1.87l-.28.15c6.43-1.89,13.35,7,18.68,4l-.3.15L307.24,34c2.27.62-1.57,1.15,0,2.48,5.82-2.23,8.49,1.6,13.22.25,2.71,5.72,12.29,1.36,16.46,5.39l-.09-1.27c1.38-1,1.35.92,2.19,1.33,0-1-1.14-1.3-.3-1.86,10.4,0,20.74,4.92,31,7.65,3.76.92,3.16-6,7.5-2.34l-1.72,2.07c8.13-1.54,15.71,2.59,23.61,1.49-.53.45-.66,1.14-1.39,1,1.32,1.92,5.86,1,6.11-.31,1.15.35.07,1.27.68,2.08,1.43,1.24,4.35-1.46,4.92.33.1.29-.54.46-.85.54,1.17-.63,4.8,1,4.13-1.07,2.67,1.38,5.54,0,7.6,1.56,1.83-1.89,4.66,1.84,5.64-1.1-.73,3.09,4.52,3.36,6.55,2.2-.76.84,1.38,1.24.46,2.43,2,.31,4,0,3.93-1.62,3.1,4.38,8.06-1.7,9.34,3.45a125,125,0,0,1,17.7-.53c-.75,3.07-6.06-.76-6.41,2.55,5.38-.37,8.83-2.5,13.81-.83,1.25.66-1,1.21-1.54,1.66,5.38-.35,9.9,2.08,14.79,1.23-.07.29-.62.51-1.13.66.92.06,2,.84,2.17-.59l-1,.22c-1.07-2.31,4.37-3.62,4.73-4.67-2.28,3.76,4.34,1.85,1,6.52a1.9,1.9,0,0,0,1.55-1.66c.83.44,1,1-.08,2,3.37-.17,2.5-1.89,5.43-1.31-.14.68-.78.84-1.23,1.58,1.73-1.06,3.47-2.11,5.84-1.07-.23.38,0,1-.78.83,4.29.59,7.91-2.19,12.33,0-1.94,2.7,1.4,1.28,1.16,3.89l2.65-.29-.77-1.44c2.19.46,4.48-1,6.21.16l-1.83.74,4.21.3-2.14-1.42c2.47-.9.38-3.29,3.17-2-.64.15,2.19.45,3,2.19h0c1.24-.61,2.53-1.25,4-.3.26.9-.89,2.77-.72,3.37,1.49-1.94,5.25.4,7.05-1.62a3,3,0,0,0-.75,2.09l1.24-1.57c.91.76,1,1.05.63,2.1,3,.92-.34-3.44,3-1.33-.31.09-.23.37-.87.52,3.5,1.44,7.26.28,10.43,1.79.48,2.77-3,.05-2.35,2.45,4.91.49,10.6-1.11,15.15.43l-.81-.46c1.38-3.51,3.12,2.49,5.82,1.25-.63.15-1.16,1.87-.93,1.49,3.08,1.23,6.71.42,11.79.26l-.79.81c1.71,1.22,4.86,1.49,6.8,2.33.79-.81,1.93-.42,1.5-1.92,5.17,6.6,12.55-.39,17.19,5.2-.67-.13-1.75.49-1.23.6l4.91.13c0-1.66-.42-1.09-1.16-2.53a4.06,4.06,0,0,1,3.46-1c-2.35.6-.51,2.55.22,3.62-.05-.52.38-1,.4-1.5,1.88,3.34,1.08-3.1,4.06-.49l-.35.79c1.35-.16,2.75-1,4.06-.49.18,2-1.53.57-1.93,2.06,1.93.3,4.51-2.67,5.85-.48-.92.34-2.09.1-3,.43,1.43,2.55,1.76,2,3.09,2.69l-.13-.08,3,1.66-.7-.76c3.41-4.26,5.06.17,9-2.27-3.77,2.29-.88,1.6-1.57,3.62.7.75,1.81,1.67,1.33,2.17,1.88-1.35,2.26,1.86,4.93-.12,0,.69,1.61.42.91,2,2.09-.1-.22-1.26.13-2.06,3.55-1.62,6.57,4.32,11.64,2.14,4.06-.46,5.25-2.56,9-2.91,1,1.33-1.5,2.22-1.5,2.22a5.53,5.53,0,0,0,5.14,1.17c-.49.5-.23,1.08.16,1.94,1.48.14,1.5-2.21,3.19-.81a9.81,9.81,0,0,1-2,2.36c1.84-.24,3.79-1.11,5.69-1.32.21,1.26-1.45,1.53-2.24,2.15,2.1-.08,5.36.09,6.38-1.62l-1.12-.94c.74.07,0,1.66-.59,1.88-2,1.06-2.31-1.18-2.25-1.87l1.35-.15c-.42-4.2-5.18-.49-7.66-1.27l1.68-2.61-3.11,1.79c-.39-.86-.42-2.53.93-2.68-1.5-1.8-1.83.66-3-1.25-.12-.28,0-.4.17-.48l-2,.46c.48-.52.15-2.07,1.14-1.42-2.82-2.34-5.6,1-6.32-1.41l.3-.12c-4.62,0-.88,2-4.73,3.72l-1.11-5.64-.89,2c-.44-.17-1.31-.53-1-1.33-2,1.06.09,1-1.18,2.11-1.78-2.38-6.24-.42-6-3.85-1.13,1.42,1.83,1.68-.75,2.28.1-3.72-2.84,0-4.49-2,1-1.72,2.7-.33,1-2.41-1.88,2.87-3.76-1.52-5.58-1.28-.61,2.47-3.9.25-6.91.48.36-.79-5.05-2.5-7.51-4l.17-.4c-1,2.41-3.67,1.36-5.76,1.46a2.9,2.9,0,0,1,2.09-2.46l-1.87-.38a3,3,0,0,1-2.55,1.05l.86-1.78c-2.51-.41-5.46,1.17-8.4-.75-.54,1.72,1.53,5.41-2.09,5.89.07-1,.28-2.62,1.25-2.83-.31.06-1.2.57-1.7,0l1.68-1.32c-1.31-1-1,1.18-2.17.79.3-1.35-.66-1.14-.27-2.18.32-.07.9.77,1.46.33a5.26,5.26,0,0,1-3-2.78c0,.79-.38,1.82-1.37,1.8-2.51-.41-.51-1.8-1.82-2.8-.8.82-2.18-.48-2.64,1.53-.73-.16-.67-1.13-.83-1.74-1.47.63-6.06-1-5.05,1.48l.3.21c-.07,0-.14,0-.23,0h0c-4.63,1.15-8.53-2.93-12.89-2.91l.14-.68c-2.65.27-5.65-.66-7.73.44a1.85,1.85,0,0,1-1-2.33c-2,.13-2.38.84-4.92-.82,2.16-.8-.45-1.18,2.14-.48-2.37-1.08-2.72-2.28-5.75-1,1.25-1.56-1.44-2.56-2.72-2.27l1.5,1.59a11.44,11.44,0,0,1-3.66-.77l1.09-2.16c-4.54-3.79-10.1,2.93-13.07-2.48-1.66,1.34,2.54,1.66,1,3.3-2.28-.77-4.08-4.52-4.81-4.67-3-1.89-3.64,2.76-6.83,1.25a2.59,2.59,0,0,1-2.4,3.44c-2.28-.75-2.22-4-.62-4.35.58,0,.8.35.72.62.81-.15,1.87-.31,1.12-1.37l-.46.76c-1-1.06-4.24-1.59-3.23-2.78-1.92.44-1,1.19.22,1.87-2.78-1.76-4.69-.93-7.64-2.31.41.54.68,1.59.19,1.49-4.35-1.87-2.29,1.17-5.44.95-1.51-1.57,1.19-2.85-2.11-2.39-1.73-1.2,0-2.24.88-2.77-3.12,1-5.08-2-6.64-2.61l1.61-.38A5.31,5.31,0,0,1,502,49l.54,1.79c-.82-.45-1.56-.59-1.42-1.27-1.1.9.18,2.85-1.88,4-1-1-3.71.23-3.71-2,3.53,1.41,0-2.25,3.16-2a3.12,3.12,0,0,1-2.2-.45c-.09-.27.21-.43.47-.51-3.15-2.59-2.07,2.15-5.69,1.43.69-1.14-.42-2.47-1.06-2.32,1.46.29.33,2.17-1.19,2.86-2.15-1.38-2.66.24-3.86-.09l1.31.7c-.7,1.13-1.83.76-3.52.85,0-1,1.59-.38,1.09-.91-2.19,1.82-3.67-3-6.45-2-1-1,.3-2.32-.62-3.06-3.11,1.07-2.75-2.23-6-1.45.56,1.8.78,1.42-1.59,2.65l5.08-.28-3.56,1.83c1.47.29,3.29-.48,4.12,0-1.73,1.07-1.5.69-1,2.18-1.57-2.83-4.24.72-6.27-1.36l.8-4.06c-3.17-2.44-6.59,1-10.95-.85l1.33,1c-.9,1.51-2.84-.27-4.43.13.38-1.34-.46-2-.94-3-.1,1-3.31-.68-4.2,2l-1.72-2.15c-3.54-1.37-4.86,3.15-8.31,2.08,1.32-1.3-.12-2.54,2.43-3.19-1.18-.22-2.19-.65-2.37.29-.54-1-3.58,1.27-4.44-.21-.6.51-1,1.91-2.31,1.57a1,1,0,0,1,.12-.67c-.12.67-2.23.56-1.33,2.27-2.9-4.87-10.19-1.41-12.74-5.59a68.94,68.94,0,0,1-8.17-.34c.22-.38.12-.68.54-.46-3-1.8-2.63,3.59-6.06,1.57-1.51-2.51,2.14-.87,1.11-1.9.23-4.57-4.53-.11-6.57-3.13l.64-.17c-1.64-1.84-4.88,1-7.91.14a1,1,0,0,0,.13-.68c-2.48,1.95-6.59,2.07-9.66,2.24,1.2-1.61,1.5-.72,1.21-2.59-1.37,0-.06,2.93-2.8,3-.71-1.1-2.49-2.24-2.45-4.19l2.52.29c-.9-2.67-3.26-.43-4.51-1.06l.34-1.05c-3.9-.25-4.37,2.46-8.47,1.63l.3.88c-2.67,2.35-1.66-1.8-4.22-.15l-.26-2.84c-1.59.43-5.62,1.85-8.37,2,1.82-1.8,5.1-2.36,7.22-3.27-1.47-.25-5.05-.56-6,.67.63-.17,1.49-.73,2-.22a8.82,8.82,0,0,1-7.61,2.08c1.31-5.22-7.47-2.48-9-6.9-5.5,1.2-10.22-2.34-16.35-2.89,1.57,4.43-1.79-.13-2,4.16-1.45.07-2-.08-2.07-.37l-3.94-3.13c-.85-1.38,1.48-.75,1.48-1.72-3.06-.76-1.05-2-3-3.39.21,1.58-1.38,2-3.07,1.2l2.22,2.3c-4.64,1.66-3.26-4.07-7.94-2.44l1.56-1.15c-2.35.48-8.28-1.14-10.93,2-.33-.54-.7-1.77.33-1.95-5.3-1.22-12.41,2.07-16.32-.56l.54-1c-1,.17-2,1.73-3.11.53.12-.42.53-1,.08-1.1-.58.29-2.89,1.49-4.14.72l1.28-1c-5.07-2-8.39,1.85-12.87,2,.38-3.06-3.63-4.55-5.63-5.28l.12-.42c-6.07-1.1-10.68,1.34-16.46,1.91C239.31,9.37,230.71,10.4,225.24,8c.81.65-.39,2.37-1.42,2.58-1.26-.76-3.88,1.76-3.39-1l.47.1c-.72-2.86-3.53-2.4-5.65-2.68l-.71,3.64c-5.06-5.9-14.78.59-17.39-4.47-1.43.8-3.1.65-4.51,1.45l.24-2a34.21,34.21,0,0,0-10.2-1.13l1.06-1.34c-2.6-.34-3.74,5.43-6.15,5.37l-.5-3c-4.54-.31-9-3.22-13.65-.85.1-.43.29-1.27,1-1.34-2.14-.23-8.17-2.54-7.65,1.57.11-2.64-4.69-.55-7.21.48l.49-1.93c-2.22,2.37-2.32,3-5.25,3.58-.67-.29-.52-1.59.37-1-2.23-1.14-1.88,1.75-4.6.57l1.1-1.19c-2.35-.27-2.19.41-3.56,1.8-1.51.71-4.44-.69-4.71-2.47-.36,1.06-1.71,2.45-3.08,1.88A1.2,1.2,0,0,1,131,5.27c-3.89-1.49-5.94,2-8.58,0A1.61,1.61,0,0,0,122,4.13c3.13.14,5.65.35,5.41.48.07-1.8-2.46-2.2-.35-4.61C125,1.28,121.41,4.11,119,3.2a2.22,2.22,0,0,1-.31-.63l.26-.19a1.81,1.81,0,0,0-1.57.25,6,6,0,0,0-2-.59c-.26-1.5-2.9-.86-4.16-1,.07,2-1.58,1.62-.06,3.28-.2-.14.24-.23,1.09-.29a1.44,1.44,0,0,0,.54-.19l-.09.17c.83,0,1.91-.07,3.14-.06-1,1-2.08,1.79-3.45.67-.67,1.25-1.41,2.54-1.82,3.14-1.67-2.77-5-4.31-5.44-6-3.88,1-9.14.68-11.55,4.39-1.09.48-1.27-1-1.68-1.63.63-.38,1.39-.33,1.73-.86-2.19,1-6.52.43-7,3-2.79-1.12,1.51-2.41-2.28-1.91l.5-.8c-3.8-2-6.83-.24-9.91,1.38s-6.23,3.12-10.54.75c.6.29.89.42,1,.85-4.8-.87-9.67.07-14.48,1s-9.58,1.77-14.6.78c-2.81-.24-2.8,1.45-4.15,3l-1-1.94c-.76,1-1.5,2-2.22,3-1.72,1.34-3.69.52-5.84,0s-4.49-.69-6.36,1.9l1.16,1.07a17.08,17.08,0,0,0-3.29,1.55c-1.09.54-2,.91-2.23.1-.06.33.15,1.58-.86,1.33l-.61-.92a29.68,29.68,0,0,0-2.93,4.33c-1.68.91-2.34.13-3.11-.58a1.68,1.68,0,0,0-1.44-.52A4.94,4.94,0,0,0,.73,23.16a8.83,8.83,0,0,0-.58,5.1c.32,1.66,1,2.66,1.49,2.32a2.88,2.88,0,0,1,.91-1.33,1.57,1.57,0,0,1,1.51-.31l-.06,1c0,.32,0,.63,0,.94a22.76,22.76,0,0,0,4.58,1.45,30,30,0,0,0,4.26.13,4.85,4.85,0,0,1-.95-2.16q.8.3,1.53.66a6,6,0,0,0-.62.93c.77.19.9.08.87-.27s-.31-.89-.39-1.42A3.58,3.58,0,0,0,15,31a13.52,13.52,0,0,1-.36-3.63c.9.94.69,2.57,2.16,2.45a2.53,2.53,0,0,0-1-1.82c-.47-.46-.91-.92-.37-1.79,1.74.69,2,2,2.56.21a1.6,1.6,0,0,1,.27,1.83c.5-1.44,2.57-1.7,2.52-3.54.93.62,1.86.12,2.74-.14s1.64-.3,2,1.19c.13-.83,1.44-3,2.61-3.44-.58,2.07.54,1.82,1.83,1.57s2.85-.48,3,1.52c.84-3.63,5.51-2.69,8.17-5-.13.29-.36.87-.65.75,1.71,0,2.36.92,3.51,1.37-.19-2.74,2.36-3.75,3.59-5.6,2.42,2.36-.87,3.36.12,5.79-.4-2.2,3.32-2.65,2.41-4.4,1.79,1.45,1.47.63,2.54,2.8-.08-3.44,1.42-.73,2.55-3,2.49,1.47.89,3.14,3.35,1.87C59.87,21,57.71,22.4,57.71,22.4Zm61.57-7.1v0l-1.29.08Zm5.24.14a16.74,16.74,0,0,0-2.27-.15c-.16-.69.06-1.38.59-1.33C122.54,14.41,123.77,14.84,124.53,15.44ZM113.74,1.49c.85-.26,1.12.13,1.23.54a11,11,0,0,0-1.48.2c0,.07-.08.16-.1.24A3.2,3.2,0,0,1,113.74,1.49Z"/><path class="cls-1" d="M112.17,4c-.12,0-.19.12-.35.14a4.3,4.3,0,0,0,.49.45l.31-.61Z"/><path class="cls-1" d="M585.66,72.6l-.1-.07a.78.78,0,0,1,.17.32A1.47,1.47,0,0,1,585.66,72.6Z"/><polygon class="cls-1" points="196.58 23.85 196.62 23.36 196.12 23.75 196.58 23.85"/><path class="cls-1" d="M612.73,85.11a1,1,0,0,0,.27.57A1.22,1.22,0,0,0,612.73,85.11Z"/><path class="cls-1" d="M624.91,88.13l1.59,1.05A8,8,0,0,0,624.91,88.13Z"/><path class="cls-1" d="M634.13,91.09a3.82,3.82,0,0,0,.36-.78l0,0Z"/><path class="cls-1" d="M483.44,63.47a1.09,1.09,0,0,0-.38,0C482.13,63.71,482.74,63.67,483.44,63.47Z"/><path class="cls-1" d="M529.1,67.37a8.11,8.11,0,0,1-1.62.64C528.25,68.31,528.86,68.47,529.1,67.37Z"/><path class="cls-1" d="M432.93,56.92s0,0,0,0l-.31-.05Z"/><path class="cls-1" d="M525.41,67.57a2.38,2.38,0,0,0,2.08.43A3.56,3.56,0,0,0,525.41,67.57Z"/><path class="cls-1" d="M674.75,100.87l.44.18a.68.68,0,0,1,.12-.3Z"/><path class="cls-1" d="M675.31,100.75l.55-.12C675.63,100.59,675.43,100.56,675.31,100.75Z"/><path class="cls-1" d="M677,100.39l-1.17.25C676.23,100.72,676.67,100.88,677,100.39Z"/><path class="cls-1" d="M662.49,97.23l-.3.67A1.72,1.72,0,0,0,662.49,97.23Z"/><path class="cls-1" d="M658.66,96.6c.87.36,1.94,2,3.3,1.82l.24-.53C661.37,98.8,659.77,95.61,658.66,96.6Z"/><path class="cls-1" d="M644.7,84.54l3.06,1.25c-.39-.86-.91-2,.58-1.89C644.81,80.81,648.81,85.74,644.7,84.54Z"/><path class="cls-1" d="M635.07,81.34c1.78,0,.21-1.08.39-1.49C634.23,80.3,633.93,80.42,635.07,81.34Z"/><path class="cls-1" d="M563.65,66.56l.52-1.72C562.8,64.82,564,65.51,563.65,66.56Z"/><polygon class="cls-1" points="548.19 72.93 549.26 74.27 550.19 72.78 548.19 72.93"/><polygon class="cls-1" points="542.57 58.83 543.19 58.69 540.86 58.9 542.57 58.83"/><path class="cls-1" d="M421.85,37.51l0,2.24C422.85,39.51,423.45,37.1,421.85,37.51Z"/><path class="cls-1" d="M369.25,31.3c-.4-1.18-1.77-2.1-2.84-1.17C367.57,30.46,368.61,31.49,369.25,31.3Z"/><polygon class="cls-1" points="212.16 7.54 213.29 6.9 211.23 7.32 212.16 7.54"/></g></g></svg>