<svg xmlns="http://www.w3.org/2000/svg" viewBox="0 0 281.21 139.06"><defs><style>.cls-1{fill:#4d2222;}</style></defs><title>Ativo 6</title><g id="Camada_2" data-name="Camada 2"><g id="Camada_1-2" data-name="Camada 1"><path class="cls-1" d="M.08,45.35c-.16.09-.07.28.38.24l.32-.33Z"/><path class="cls-1" d="M3.12,46c.53-.16,1.15-.44.8-.74-.53.32-.66.18-1.22.56-.45,0-.79-.11-.71-.23-.16.08-.7-.08-.95.13a3.23,3.23,0,0,0,2.11.06C3.32,45.82,3.16,45.91,3.12,46Z"/><path class="cls-1" d="M47.27,47.8,47,47.74A1.35,1.35,0,0,0,47.27,47.8Z"/><path class="cls-1" d="M74.56,50c-.21,0-.3,0-.31,0C74.44,50,74.6,50,74.56,50Z"/><path class="cls-1" d="M79.17,50.79l-.27,0A.49.49,0,0,0,79.17,50.79Z"/><path class="cls-1" d="M47.27,47.8l.72.14C48.06,47.83,47.63,47.84,47.27,47.8Z"/><path class="cls-1" d="M9.22,45.21a1.77,1.77,0,0,0-.4.08l.37,0Z"/><path class="cls-1" d="M35.21,47.47H35l-.19.13Z"/><path class="cls-1" d="M26,47.19c.21,0,.29-.26.37-.38a.75.75,0,0,1-.46.18A.3.3,0,0,0,26,47.19Z"/><path class="cls-1" d="M11.29,46.38l-.26,0Z"/><path class="cls-1" d="M41.83,47.83a.21.21,0,0,0,.08.1S41.88,47.87,41.83,47.83Z"/><path class="cls-1" d="M279.53,128l0,0S279.55,128.12,279.53,128Z"/><path class="cls-1" d="M280,139l0-.15a.57.57,0,0,0-.16,0Z"/><path class="cls-1" d="M87.63,52h0C87.37,52,87.5,52,87.63,52Z"/><path class="cls-1" d="M164.9,65c-.8-.45,1.48,0,.25-.56C165.25,64.58,163.87,64.58,164.9,65Z"/><path class="cls-1" d="M9.46,45.25h.38A2.3,2.3,0,0,0,9.46,45.25Z"/><path class="cls-1" d="M165.15,64.45h0l-.13-.06Z"/><path class="cls-1" d="M107.19,54.26a.55.55,0,0,0-.18-.15S107.05,54.19,107.19,54.26Z"/><path class="cls-1" d="M92.69,52l.36.08A2.45,2.45,0,0,0,92.69,52Z"/><path class="cls-1" d="M114.79,54.95a1.56,1.56,0,0,0,.53.1l-.08,0A.77.77,0,0,1,114.79,54.95Z"/><path class="cls-1" d="M122.62,56.17l-.14-.08-.25,0Z"/><path class="cls-1" d="M265.69,107.84a1.14,1.14,0,0,1,.09.44C265.84,108,266.75,108.81,265.69,107.84Z"/><path class="cls-1" d="M9.22,45.37a.29.29,0,0,1,.24-.12H9.2S9.17,45.35,9.22,45.37Z"/><path class="cls-1" d="M115.43,52.8l1.24.23C116.33,53,115.88,52.87,115.43,52.8Z"/><path class="cls-1" d="M216.58,78.77l.28.08A.67.67,0,0,0,216.58,78.77Z"/><path class="cls-1" d="M120.39,53.57a2.8,2.8,0,0,0,.67.3.52.52,0,0,0,.16,0Z"/><path class="cls-1" d="M265.79,108.28h0Z"/><path class="cls-1" d="M272,114.09c-.77-1-.65-.22-1-.29-1-1.06-.22-.7-.39-1.21-.68-.62-1.4-.92-1.85-1.43,0-.08-.06-.19.1-.13-.85-.53-2-2.05-3-2.59a.32.32,0,0,1,0-.17.52.52,0,0,1-.23.48c-.4-.37-.89-.52-.87-.84a.74.74,0,0,0,.49.23l-.49-.31c-.13-.6.65.45.83.26a25.28,25.28,0,0,1-2.59-2c.1-.38,1.55,1.25.92.26l.87,1c-.37-1.08.56.58.28-.48-1.2-1.28-1.56-1.19-2.8-2.41-.42-.11-.09.3-.5.18-2.09-1.32-1-1.89-2.64-2.69a2.16,2.16,0,0,1-1.8-.84l.58,0c-1.32-1-1.09-.15-2.35-1.4.35.05,1.13.68,1,.49-.73-.93-.78-.3-1.49-.81L255,99c-1.48-1-3.25-1.9-4.93-2.94.15,0,.49.08.16-.27a37.69,37.69,0,0,1-3.3-2.07c-1.1-.72-2.18-1.48-3.16-2.18l-.95-.2c-.18-.11-.28-.31,0-.25-.76-.56-.13.14-.58,0s-.53-.49-.19-.4a28.11,28.11,0,0,1-5.77-2.87l.34.08c-1.15-.72-1.64-.15-2.63-1l.24.06c-2.56-1.44-5.61-2.58-7.47-3.9-.56.2-2.57-1.37-3-.9a20,20,0,0,0-3-2c-.57-.27-1,0-1.75-.26l.1-.29-1.1-.1-.38-.56-.71-.21c.26.13.52.36.45.43a5.9,5.9,0,0,1-2.47-1.39l-2.61-.74c.1-.09.54,0,.9.09-1.46-.23-.12-.41-1.46-.6.14.13-.15.14-.21.19a12.63,12.63,0,0,0-3-1.25l.27-.12c-1.86-.75-4-1.34-6.13-2.09.73.35.43.64-.2.46l-.14-.39c-.47.05.61.34-.3.29-.78-.31-.41-.53.08-.48L201,73c0-.11.22-.08.32-.18-.46.06-1.56-.88-2.25-.74l0-.11c-2.13-.71-3.14-.91-4.88-1.46-.12.26-.78,0-1.37,0-1.26-.48-2.61-1.13-4.17-1.59-1.13-.19-.39.13-.93.15,0-.27-1.56-.7-.71-.64a48.48,48.48,0,0,0-4.81-1.13c.23.17.5.3.33.34-.44-.08-.95-.38-.85-.48h.12c-2.75-.39-5.94-2.41-8.2-2.46h.13l-2.27-.3c-1-.3.66,0-.06-.38-2.48-.19-3.74-1-5.78-1.21-1.34-1.12-5.41-1.24-7.37-2.17l.08.2c-.57,0-.62-.25-1-.38,0,.15.54.29.19.31-4.56-.8-9.27-2.29-13.9-3.36-1.69-.38-1.14.71-3.21-.12l.67-.2c-3.51-.27-7-1.35-10.46-1.59.21,0,.24-.14.57-.08a4.92,4.92,0,0,0-2.68-.28c-.52-.11-.09-.2-.4-.35-.69-.26-1.85,0-2.19-.3-.06,0,.21,0,.35,0-.49,0-2.17-.39-1.77,0-1.25-.34-2.44-.28-3.43-.6-.71.2-2.15-.48-2.43-.08.16-.43-2.17-.71-3-.62.29-.1-.68-.24-.33-.38-.92-.13-1.77-.17-1.65.09-1.61-.78-3.46-.06-4.31-.89-2.76-.12-5.31-.32-7.78-.52.15-.44,2.72.31,2.68-.17a44.66,44.66,0,0,1-6-.31c-.59-.14.36-.15.58-.2-2.35-.12-4.5-.59-6.61-.59,0,0,.24-.06.46-.07-.41,0-.94-.18-.92,0h.4c.62.37-1.69.43-1.78.58.76-.51-2-.37-.85-1-.27,0-.62.07-.58.21-.4-.08-.51-.18-.09-.29-1.48,0-1,.23-2.31.08,0-.1.29-.11.44-.21a6.29,6.29,0,0,1-2.5,0c.07-.05,0-.14.29-.11-1.93-.18-3.34.18-5.44-.22.67-.37-.71-.21-.78-.59H77.34l.44.23A25.84,25.84,0,0,1,75,48.75l.76-.09-1.88-.1,1,.24c-1,.1.07.48-1.25.26a10.31,10.31,0,0,1-1.5-.36h0a4.41,4.41,0,0,1-1.75,0c-.18-.14.19-.4.07-.49-.51.26-2.35-.1-3,.18.21-.06.24-.26.17-.3l-.43.22c-.46-.12-.52-.16-.43-.31-1.39-.16.4.51-1.23.17.13,0,.07-.05.35-.07-1.65-.24-3.21-.1-4.73-.33-.42-.41,1.34,0,.85-.35-2.2-.09-4.58.11-6.7-.11l.39.07c-.33.51-1.57-.36-2.66-.18.27,0,.36-.27.29-.22a39.37,39.37,0,0,0-5.21,0l.28-.12c-.85-.17-2.26-.19-3.18-.31-.28.12-.81.07-.5.28-2.82-.94-5.48.15-8-.62.3,0,.73-.09.49-.1l-2.17,0c.16.24.28.15.72.35a3.87,3.87,0,0,1-1.43.19c1-.12,0-.37-.41-.52.07.07-.08.15,0,.22-1.11-.45-.21.46-1.74.12l.09-.12a10.05,10.05,0,0,1-1.74.12c-.25-.28.62-.1.67-.32-.88,0-1.74.44-2.53.14.37-.06.91,0,1.28-.1a3.9,3.9,0,0,0-1.59-.34h.06L27,45.69l.37.1c-1.12.66-2.23.06-3.72.47,1.45-.39.24-.24.36-.54-.37-.1-.94-.21-.78-.29-.7.23-1.16-.23-2.15.11,0-.1-.75,0-.58-.27-.91.06.21.17.13.29-1.41.3-3.28-.47-5.3-.06-1.74.15-2.06.49-3.67.63-.54-.16.45-.35.45-.35a7.33,7.33,0,0,0-2.36,0c.17-.08,0-.16-.25-.27-.66,0-.45.35-1.32.19a2.25,2.25,0,0,1,.67-.38c-.78.08-1.55.25-2.36.34-.21-.17.49-.26.78-.37a8,8,0,0,0-2.64.41l.58.1c-.33,0-.17-.23.08-.28.78-.21,1.12.1,1.17.2l-.58.06c.59.57,2.31-.08,3.47,0l-.49.41L10,45.81c.25.11.42.35-.15.4.83.22.74-.14,1.45.1.08,0,0,.06,0,.07l.81-.11c-.16.09.13.3-.37.23,1.45.26,2.35-.28,2.89,0l-.12,0c2-.1.2-.3,1.72-.63l1,.77.2-.3c.21,0,.62,0,.54.17.78-.19-.13-.14.32-.32,1,.3,2.77-.07,3,.42.37-.22-1-.2.12-.34.29.53,1.24-.05,2.15.21-.29.26-1.15.09-.24.36.57-.44,1.78.15,2.55.09,0-.36,1.68-.1,3-.18-.09.12,2.43.29,3.63.47l0,.06c.25-.36,1.49-.24,2.4-.28,0,.22-.21.3-.71.38l.85,0a2.29,2.29,0,0,1,1-.18l-.23.26a22.13,22.13,0,0,1,3.74,0c.09-.25-1.13-.77.42-.87.05.14.1.38-.31.42a2.08,2.08,0,0,1,.74,0l-.63.2c.66.13.36-.18.89-.13,0,.2.39.16.3.31s-.46-.1-.67,0a4.59,4.59,0,0,1,1.55.37c0-.11,0-.27.45-.27,1.13,0,.38.26,1,.39.28-.12,1,.06,1-.23a.71.71,0,0,1,.51.25c.59-.1,2.74.11,2.09-.24l-.15,0h.1c1.94-.19,4,.39,5.89.39v.1a29.7,29.7,0,0,0,3.36-.07c.34,0,.78.23.63.34A6.78,6.78,0,0,1,59,48.6c-.89.11.29.17-.9.06a6.43,6.43,0,0,0,2.6.16c-.43.22.83.38,1.37.34l-.78-.24a15.84,15.84,0,0,1,1.66.13l-.31.31c2.27.58,4.21-.35,5.91.46.63-.18-1.24-.26-.67-.49a18.7,18.7,0,0,1,2.45.73c1.44.31,1.4-.36,2.91-.1-.18-.14-.34-.47.81-.48s1.26.61.58.65c-.26,0-.37-.06-.36-.1-.35,0-.8,0-.39.19l.15-.11c.52.17,2,.29,1.61.45.81,0,.36-.16-.23-.28,1.34.29,2.12.2,3.51.46-.22-.09-.41-.25-.19-.22,2,.35.93-.13,2.32,0,.77.26-.33.4,1.09.39.84.21.15.33-.2.39a10.19,10.19,0,0,1,3.09.51l-.68,0a7.06,7.06,0,0,1,1.07.06L85,51.57c.39.08.72.12.7.22.42-.11-.27-.43.56-.55.51.18,1.61,0,1.76.38-1.64-.28.15.33-1.26.23a4.21,4.21,0,0,1,1,.11c.06,0-.06.06-.17.07,1.55.45.77-.28,2.4-.09-.23.15.34.38.61.37-.66-.08-.28-.33.34-.4a6.28,6.28,0,0,0,1.7.11l-.62-.14a3.64,3.64,0,0,1,1.49,0c0,.14-.68,0-.42.11.85-.21,1.8.54,3,.46.51.18,0,.34.46.47,1.3-.07,1.34.41,2.7.39-.35-.29-.43-.24.54-.35l-2.21-.11L99,52.66c-.66-.09-1.41,0-1.81-.12.69-.11.62-.06.33-.29.86.47,1.82,0,2.84.39l-.11.58c1.54.46,2.83.05,4.85.48l-.64-.19c.3-.2,1.26.14,1.94.13-.09.19.31.31.58.47,0-.15,1.49.22,1.73-.15l.87.39c1.63.34,2-.28,3.53,0-.51.14.19.39-.89.38.53.08,1,.18,1,0,.29.17,1.5-.05,2,.21a1.35,1.35,0,0,1,.93-.14c.06,0,0,.1,0,.1s.95,0,.46-.28c1.53.87,4.55.65,5.88,1.41,1.16.12,2.55.29,3.6.45-.08,0,0,.1-.21,0,1.41.42,1-.42,2.58.07.78.46-.9,0-.4.23.12.68,2,.26,3,.82h-.27c.8.37,2.09.11,3.46.41,0,0-.08,0,0,.1a19.78,19.78,0,0,1,4.13.22c-.46.17-.62,0-.42.32.6.07-.1-.44,1.1-.29.36.2,1.18.49,1.25.79l-1.11-.2c.5.46,1.44.27,2,.44l-.1.14c1.71.28,1.81-.1,3.64.29l-.17-.15c1.08-.19.79.38,1.85.3l.22.45c.68,0,2.38.1,3.58.28a19.81,19.81,0,0,1-3,0,10.18,10.18,0,0,0,2.6.31,2.62,2.62,0,0,1-.87-.1,8.77,8.77,0,0,1,3.25.22c-.39.7,3.34.93,4.15,1.71,2.35.25,4.51,1.14,7.18,1.75-.8-.81.78.17.76-.46a2.73,2.73,0,0,1,.91.23l1.79.81c.4.28-.62,0-.6.14,1.34.38.51.38,1.36.77-.13-.26.55-.18,1.29.09l-1-.55c2,.17,1.51.91,3.49,1.08l-.65,0c1,.13,3.59.94,4.67.72.15.11.34.34-.1.26,2.31.68,5.31.92,7,1.71l-.22.09c.44.08.83-.06,1.33.24,0,.05-.21.09,0,.16a6.12,6.12,0,0,1,1.76.34l-.54,0c2.2.85,3.57.62,5.49,1.11-.13.42,1.59,1.1,2.45,1.44l0,0c2.58.9,4.53,1.06,7,1.72,1.34.94,5,1.93,7.25,3-.34-.2.18-.3.61-.19.52.29,1.64.29,1.41.63l-.2-.08c.28.53,1.45.86,2.34,1.2l.34-.44c2,1.61,6.17,2.13,7.16,3.3.6.11,1.29.38,1.89.5l-.14.25c1.49.73,2.24,1.08,4.14,1.85h-.46c1,.5,1.66-.14,2.64.29l.12.52c1.85.82,3.51,2.06,5.48,2.58-.06,0-.16.12-.46,0,.84.44,3.15,1.91,3.1,1.24-.15.34,1.83,1,2.87,1.36l-.28.17a5.06,5.06,0,0,1,2.23.57c.25.18.13.33-.19.07.81.63.82.16,1.82.89l-.49-.07a2.59,2.59,0,0,0,1.48.51c.64.22,1.67,1.07,1.68,1.36a1.88,1.88,0,0,1,1.29.43c0,.12-.2.06-.31,0,1.41,1,2.38,1.09,3.25,2a.25.25,0,0,0,.08.25c-1.17-.74-2.1-1.35-2-1.31-.13.22.79.85-.15.68a11.79,11.79,0,0,1,3.23,1.47.5.5,0,0,1,.07.15l-.11,0a2.24,2.24,0,0,0,.59.35,7.35,7.35,0,0,0,.71.57c0,.25,1,.8,1.45,1.13.12-.26.69.2.27-.38.06.07-.1,0-.42-.24a1.63,1.63,0,0,0-.21-.11h0l-1.16-.76a2.54,2.54,0,0,1,1.32.76,7.7,7.7,0,0,1,.9.07c.4.77,1.47,1.79,1.5,2.1,1.46.88,3.26,2.31,4.41,2.59.42.25.34.47.42.65a4.58,4.58,0,0,0-.67-.39c.84.5,2.25,1.77,2.65,1.66.81.93-.74-.19.56.86l-.24-.06c2.05,2.59,4.62,2.93,6.54,6.17-.13-.22-.2-.33-.19-.41,2.53,3.27,5.71,6.47,7.22,10.34a4,4,0,0,0,1.17,1.64l-.16.35c.29.31.55.63.81,1a5.51,5.51,0,0,1,.69,2.31,7.93,7.93,0,0,0,.78,2.62l.12-.32c.08.38.27,1,.41,1.46s.16.88,0,.84a.59.59,0,0,1,.21.53l-.15.05a17.43,17.43,0,0,1,.57,1.85c0,1.49-.62-.15-.46,2,.09.78.55,2.25.64,2s.07-.83.22-.86l.11.74c.47.13,1,.74,1.22-1.17-.12-.44-.21-.87-.35-1.3l.18-.44a9.31,9.31,0,0,1,.1,1.11,1.88,1.88,0,0,0-.23-1.47.93.93,0,0,0,.18-.58c-.21-.41-.37-.83-.61-1.22.15-.19.47.52.4-.36-.32-.56-.29.64-.61-.32.09-.65.29-.51,0-1.2.1-.13.2,0,.31.29a7.05,7.05,0,0,0-.79-2c.11-.72-.71-2.1-.28-2.17a7.87,7.87,0,0,1-.94-1.54c.92.82-.85-2.09-.22-2.05-.78-.55-1.46-2.59-2.45-3.69a.68.68,0,0,1,.26.27,8.66,8.66,0,0,1-.55-1.5c-.39.11-1.16-.89-1.72-1.32-.23-1,.71.25.84-.21-.23.21-1.22-1.26-1.26-.82-.26-.75-.29-.59-.26-1.1-.47.18-.49-.52-1.1-.85-.49-1,.19-.5-.69-1.35C271.16,113.37,272,114.09,272,114.09ZM250,96.13h0l.49.31Zm-2-1.26.86.56c0,.13-.11.16-.31,0C248.72,95.47,248.28,95.12,248,94.86Zm3.11,4.35c-.33-.17-.4-.29-.41-.36l.56.33h.06A.39.39,0,0,1,251.13,99.21Z"/><path class="cls-1" d="M251.89,99.28l.14.07-.15-.18h-.16Z"/><path class="cls-1" d="M46.94,47.73h0l-.1,0Z"/><polygon class="cls-1" points="219.07 79.64 219.05 79.71 219.26 79.73 219.07 79.64"/><path class="cls-1" d="M34,46.14a.35.35,0,0,0-.17-.08A.44.44,0,0,0,34,46.14Z"/><path class="cls-1" d="M28.4,45.87l-.79-.12C28,45.81,28.2,45.85,28.4,45.87Z"/><path class="cls-1" d="M24.09,45.6a.29.29,0,0,0-.09.12h0Z"/><path class="cls-1" d="M92.61,50.12h.17C93.17,50.12,92.9,50.11,92.61,50.12Z"/><path class="cls-1" d="M72.21,48.7c.22,0,.44-.06.67-.07C72.52,48.57,72.23,48.54,72.21,48.7Z"/><path class="cls-1" d="M115.3,52.78h0l.14,0Z"/><path class="cls-1" d="M73.82,48.72a3.19,3.19,0,0,0-.95-.09A4.9,4.9,0,0,0,73.82,48.72Z"/><path class="cls-1" d="M5.37,45.16H5.16a0,0,0,0,1,0,0Z"/><path class="cls-1" d="M5.14,45.19l-.23,0A.43.43,0,0,0,5.14,45.19Z"/><path class="cls-1" d="M4.42,45.29l.49-.07A.92.92,0,0,0,4.42,45.29Z"/><path class="cls-1" d="M11.09,45.34l.07-.1A.13.13,0,0,0,11.09,45.34Z"/><path class="cls-1" d="M12.83,45.33a8.59,8.59,0,0,0-1.62-.17l-.06.08C11.43,45.09,12.43,45.5,12.83,45.33Z"/><path class="cls-1" d="M20,46.73l-1.45-.11c.25.11.58.27-.08.28C20.34,47.26,18.14,46.65,20,46.73Z"/><path class="cls-1" d="M24.55,47c-.78,0,0,.16,0,.22C25,47.14,25.13,47.12,24.55,47Z"/><path class="cls-1" d="M57.08,48.58l-.1.25C57.59,48.84,57,48.73,57.08,48.58Z"/><polygon class="cls-1" points="63.39 47.71 62.82 47.51 62.52 47.73 63.39 47.71"/><polygon class="cls-1" points="66.92 49.83 66.65 49.84 67.66 49.83 66.92 49.83"/><path class="cls-1" d="M121.19,56.19l-.13-.34C120.65,55.84,120.51,56.18,121.19,56.19Z"/><path class="cls-1" d="M144.47,60a1.93,1.93,0,0,0,1.28.36A12,12,0,0,0,144.47,60Z"/><polygon class="cls-1" points="212.31 79.66 211.84 79.58 212.7 79.83 212.31 79.66"/><path class="cls-1" d="M.08,45.35c0,.09,0,.28.11.25l.09-.33Z"/><path class="cls-1" d="M.93,46a.77.77,0,0,0,.24-.74c-.16.31-.19.18-.36.56-.13,0-.22-.11-.2-.23,0,.08-.2-.08-.27.13a.35.35,0,0,0,.6.07C1,45.83.95,45.92.93,46Z"/><path class="cls-1" d="M13.21,47.89l-.07-.06A.15.15,0,0,0,13.21,47.89Z"/><path class="cls-1" d="M20.53,50.16a.08.08,0,0,0-.1,0C20.48,50.19,20.53,50.19,20.53,50.16Z"/><path class="cls-1" d="M21.63,50.95l-.06,0S21.6,51,21.63,50.95Z"/><path class="cls-1" d="M13.21,47.89l.18.14C13.43,47.93,13.31,47.94,13.21,47.89Z"/><path class="cls-1" d="M2.69,45.22a.28.28,0,0,0-.12.08l.11,0Z"/><path class="cls-1" d="M9.85,47.53H9.79l-.07.12Z"/><path class="cls-1" d="M7.28,47.23c.06,0,.11-.26.15-.38,0,.11-.1.16-.15.18A.8.8,0,0,0,7.28,47.23Z"/><path class="cls-1" d="M3.23,46.38l-.07,0Z"/><path class="cls-1" d="M11.66,47.89a.36.36,0,0,0,0,.1A.25.25,0,0,0,11.66,47.89Z"/><path class="cls-1" d="M59.3,96.9h0S59.3,96.92,59.3,96.9Z"/><polygon class="cls-1" points="58 100.01 57.99 99.97 57.83 99.96 58 100.01"/><path class="cls-1" d="M23.69,52.17h0C23.61,52.16,23.64,52.17,23.69,52.17Z"/><path class="cls-1" d="M41.7,64c0-.35.52.05.45-.4C42.09,63.73,41.59,63.7,41.7,64Z"/><path class="cls-1" d="M2.76,45.26h.11A.19.19,0,0,0,2.76,45.26Z"/><path class="cls-1" d="M42.14,63.62h0v0Z"/><path class="cls-1" d="M28.66,54.38a.37.37,0,0,0,0-.13A.25.25,0,0,0,28.66,54.38Z"/><path class="cls-1" d="M25.19,52.2l.08.08A.23.23,0,0,0,25.19,52.2Z"/><path class="cls-1" d="M30.7,55.08s0,.09.12.1a.14.14,0,0,0,0,0S30.73,55.15,30.7,55.08Z"/><path class="cls-1" d="M32.58,56.24a.55.55,0,0,0,0-.07l-.07,0Z"/><path class="cls-1" d="M58.27,90a.94.94,0,0,1-.23.15C58.23,90.08,58.37,90.4,58.27,90Z"/><path class="cls-1" d="M2.68,45.38c0-.07,0-.11.07-.12H2.68A.16.16,0,0,0,2.68,45.38Z"/><path class="cls-1" d="M31.91,53.22l.29.22A1.49,1.49,0,0,0,31.91,53.22Z"/><path class="cls-1" d="M52.6,74.64l.07.06A.08.08,0,0,0,52.6,74.64Z"/><path class="cls-1" d="M33.15,54a.58.58,0,0,0,.07.27l.07,0Z"/><path class="cls-1" d="M58,90.16h0Z"/><path class="cls-1" d="M59.1,92.41c0-.35-.38-.11-.6-.15-.16-.39.24-.23.41-.4-.13-.24-.5-.38-.52-.57.06,0,.07-.06.16,0-.34-.22-.17-.8-.59-1l.08-.06a1.52,1.52,0,0,1-.49.14c0-.15-.28-.23-.06-.34,0,.09.11.08.19.11l-.13-.14c.31-.21.16.19.41.14-.17-.29-.52-.59-.47-.85.32-.12.22.53.45.15l-.06.39c.47-.39,0,.23.52-.14,0-.51-.26-.51-.28-1-.21-.07-.26.1-.47,0-.5-.6.7-.73.13-1.13-.25-.08-.68,0-.55-.43l.4,0c-.08-.48-.6-.13-.47-.68.17,0,.21.33.24.25.21-.39-.27-.17-.33-.41l.31-.14c-.2-.48-.6-.94-.82-1.46.11,0,.24.06.3-.1a5.4,5.4,0,0,1-.47-2.18L56,82.25c0-.06.09-.15.16-.11,0-.29-.18.05-.33,0s.09-.25.21-.19c-.39-.36-1-1.07-.88-1.64l.12.06c0-.4-.73-.17-.61-.61l.07,0c-.2-.83-.83-1.56-.72-2.32-.43.08-.2-.83-.75-.62,0-.56.22-.49.07-1.18-.06-.17-.46-.06-.62-.23l.27-.15-.43-.11.25-.32-.17-.15a.24.24,0,0,1-.12.25.73.73,0,0,1-.06-.89c-.2-.18-.39-.37-.61-.54.12,0,.22,0,.34.09-.49-.19.24-.23-.21-.41,0,.08-.17.07-.23.09a1.11,1.11,0,0,0-.4-.86l.21-.06a14,14,0,0,0-1.08-1.52c0,.25-.29.4-.42.27l.23-.24c-.24,0,0,.23-.34.16-.1-.22.22-.34.38-.28l-.26-.18c.07-.07.15,0,.27-.1-.24,0,0-.6-.41-.55l.07-.07a13,13,0,0,0-.95-1.13c-.23.16-.31,0-.58,0a4.45,4.45,0,0,0-.55-1.19c-.31-.17-.25.07-.47.06.19-.18-.11-.53.18-.45a4.4,4.4,0,0,0-1.11-.93c0,.13,0,.22-.11.24a.23.23,0,0,1,0-.36h0c-.79-.35-.62-1.89-1.46-2h0l-.65-.29c-.17-.25.26,0,.23-.27-.79-.22-.71-.86-1.34-1.07.21-.85-1.17-1.08-1.29-1.85l-.09.15c-.24,0-.07-.2-.13-.31-.08.11,0,.23-.12.24-1.13-.73-1.87-2-2.86-3-.36-.35-.79.54-1-.18l.34-.15c-1-.31-1.65-1.24-2.64-1.55.09,0,.15-.11.23-.05,0-.33-.63-.44-.74-.28-.12-.1.07-.17,0-.3s-.61,0-.57-.3c0,0,.09,0,.13,0-.18,0-.51-.38-.56-.07-.24-.32-.66-.29-.81-.59-.33.16-.46-.45-.75-.11.26-.37-.37-.64-.68-.58.14-.08-.1-.23.07-.34-.23-.13-.49-.18-.56,0-.15-.73-1.06-.12-1-.85a15.54,15.54,0,0,1-2.21-.6c.23-.39.71.33.9-.1-.68-.16-1.2,0-1.76-.36-.13-.13.17-.13.26-.18-.69-.12-1.16-.6-1.8-.63,0,0,.1-.05.17-.06-.11,0-.22-.18-.29,0h.13c0,.35-.68.38-.76.52.42-.46-.48-.36.11-.92a.28.28,0,0,0-.25.19c-.09-.08-.09-.17.08-.27-.43-.06-.38.2-.73,0,0-.09.13-.1.21-.19-.25.1-.51.21-.77,0,0,0,0-.13.12-.1-.52-.19-1.06.11-1.56-.26.32-.34-.14-.2,0-.56h-.35l.06.22c-.27-.1-.6.06-.79-.14l.25-.07-.53-.12L21,49c-.33.08-.13.46-.45.23.08,0-.26-.1-.33-.36h0c-.17.06-.35.14-.52,0,0-.13.17-.38.16-.46-.23.25-.67-.12-.93.15a.47.47,0,0,0,.14-.29l-.19.21a.21.21,0,0,1,0-.3c-.37-.16,0,.49-.41.15,0,0,0,0,.12-.06-.42-.24-.91-.13-1.3-.36,0-.4.39,0,.34-.33a8.62,8.62,0,0,1-1.94-.14l.1.07c-.21.49-.37-.37-.73-.21.08,0,.17-.26.13-.21a3.24,3.24,0,0,0-1.51,0l.11-.12a4.56,4.56,0,0,0-.86-.32c-.1.12-.25.06-.2.28-.65-.95-1.6.12-2.2-.64.09,0,.22-.08.16-.1l-.63,0c0,.24.06.15.16.35a.5.5,0,0,1-.44.17c.3-.11.06-.37,0-.51,0,.07,0,.14,0,.22-.26-.46-.12.45-.51.11l0-.12c-.17,0-.34.17-.51.12,0-.27.19-.1.23-.32-.25,0-.55.44-.74.15.11-.06.26,0,.38-.11-.2-.34-.24-.26-.42-.34h0l-.4-.19.1.1c-.39.66-.65.05-1.11.46.45-.38.09-.24.16-.54-.1-.1-.25-.21-.2-.29-.22.22-.31-.23-.63.09,0-.1-.21,0-.14-.27-.27.06,0,.17,0,.29-.42.3-.9-.47-1.51-.05-.51.15-.62.47-1.08.61-.15-.17.14-.35.14-.35a.6.6,0,0,0-.67,0c.05-.08,0-.16-.06-.27s-.14.35-.38.2a1.46,1.46,0,0,1,.2-.39c-.23.08-.45.26-.68.34-.06-.17.15-.25.23-.36-.26.07-.68.14-.76.4l.16.1c-.09,0,0-.23,0-.28.23-.21.32.1.33.2l-.16.06c.15.58.66-.08,1,0l-.15.41.35-.34c.07.11.1.34-.06.4.22.21.21-.14.4.1,0,0,0,.06,0,.07l.23-.11c0,.08,0,.3-.11.23.39.27.68-.26.81.06l0,0c.58-.1.07-.3.53-.63l.23.77.08-.3c.06,0,.17,0,.14.17.23-.19,0-.13.12-.32.26.3.79-.08.81.42.12-.22-.25-.21.06-.34,0,.53.36,0,.59.22-.11.26-.33.09-.1.36.2-.44.49.16.71.1.05-.36.49-.1.86-.17,0,.12.66.26,1,.46l0,.06c.12-.35.45-.23.71-.26a.43.43,0,0,1-.25.37l.23,0a.38.38,0,0,1,.32-.17l-.1.26c.31,0,.68-.21,1.05,0,.07-.25-.2-.76.26-.85,0,.14,0,.37-.16.41,0,0,.15-.09.22,0l-.21.2c.17.13.13-.18.27-.13,0,.19.08.16,0,.31s-.11-.1-.18,0a.62.62,0,0,1,.37.37c0-.11,0-.26.17-.26.31.05.06.26.22.39.1-.12.27.06.33-.22.09,0,.08.16.1.25.19-.09.76.12.64-.22l0,0h0c.59-.17,1.06.39,1.61.4l0,.1c.34,0,.7.12,1,0a.26.26,0,0,1,.1.33c.25,0,.31-.11.61.14-.28.1,0,.17-.28.06.28.16.31.33.71.16-.18.21.14.36.31.33L17,49a1.06,1.06,0,0,1,.45.14l-.17.29c.49.58,1.31-.31,1.58.48.23-.17-.28-.26-.06-.47.27.13.42.68.5.71.33.3.52-.35.88-.08a.38.38,0,0,1,.38-.44c.27.14.18.6,0,.62s-.09-.06-.07-.1-.24,0-.17.17l.08-.1c.1.16.48.29.33.44.25,0,.16-.15,0-.27.3.29.56.21.88.45,0-.08,0-.23,0-.21.49.34.32-.12.7,0,.14.25-.23.37.19.37.18.21-.07.31-.19.37.41-.07.56.4.72.51l-.21,0a.57.57,0,0,1,.29.06v-.26c.09.08.17.12.13.21.16-.1.07-.4.36-.51.09.17.46.06.39.36-.38-.28-.08.31-.46.21a.34.34,0,0,1,.25.11s0,.05-.07.06c.29.43.33-.25.75-.06-.12.14,0,.35,0,.34-.17-.07,0-.31.25-.36.21.24.33,0,.47.12l-.13-.14c.13-.14.25-.05.46,0,0,.13-.21,0-.17.09.34-.18.33.52.71.46.08.17-.13.31,0,.44.42-.05.24.38.66.37,0-.26,0-.22.31-.31L26.35,53l.51-.14c-.17-.08-.42,0-.5-.12.25-.09.21,0,.22-.27.07.43.55,0,.71.38l-.27.52c.28.42.83.09,1.27.49l-.11-.18c.18-.17.33.14.54.14-.11.17,0,.28,0,.43.06-.13.36.21.6-.11l.1.35c.36.31.74-.23,1.09.05-.22.12-.12.34-.45.32.13.08.22.18.29.06,0,.15.49,0,.51.21.1,0,.22-.21.36-.11a.16.16,0,0,1-.05.08c.05-.08.29,0,.28-.24.08.76,1.14.62,1.18,1.3a7.37,7.37,0,0,1,.92.44s-.06.08-.09,0c.24.38.53-.33.8.1,0,.39-.3,0-.25.19-.32.57.52.23.55.73h-.08c.06.32.61.14.9.41a.17.17,0,0,0-.06.08,2.07,2.07,0,0,1,1.24.25c-.25.13-.22,0-.32.25.16.07.21-.36.53-.22,0,.17.12.42,0,.66l-.26-.18c-.09.38.33.24.42.4l-.11.11c.41.26.66,0,1,.31l0-.13c.47-.12,0,.32.45.27l-.18.36a3.94,3.94,0,0,1,1.06.29,3.34,3.34,0,0,1-1-.06c.14.12.51.37.7.29-.08,0-.21,0-.23-.11a1,1,0,0,1,1,.25c-.55.53.6.79.4,1.41.69.21.85,1,1.43,1.47.22-.61.17.14.57-.32.15.1.2.15.18.19l.13.63c0,.21-.22,0-.3.08.24.3-.07.29,0,.59.12-.19.32-.12.41.1v-.42c.6.17-.05.7.55.87h-.26c.27.13.69.75,1.25.62,0,.08-.1.24-.22.18.39.54,1.36.79,1.47,1.38l-.15.06c.11.07.36,0,.34.2-.05,0-.15.06-.12.11s.42.09.46.27h-.22c.26.62.93.53,1.35.91-.35.27-.15.76-.06,1l-.06,0c.42.62,1,.83,1.59,1.31-.14.62.67,1.33.8,2.08,0-.13.3-.17.4-.08s.5.23.14.42l0-.05c-.27.31,0,.54.12.77l.48-.23c-.31,1,1.13,1.45.71,2.11.2.08.29.26.49.35l-.26.12a4.11,4.11,0,0,0,.52,1.14h-.23c.12.29.91,0,1.06.27l-.34.26c.26.5.15,1.16.71,1.52-.06,0-.18,0-.23,0,.09.25.13,1,.63.74-.35.15.19.55.46.77l-.28.06c.43.1.52.08.73.38,0,.09-.18.15-.15,0,0,.32.32.11.3.49l-.21-.06c.08.28.16.23.41.31a.47.47,0,0,1-.1.67c.16,0,.41.07.4.26a.19.19,0,0,1-.2,0c0,.52.54.59.38,1a.25.25,0,0,0-.14.1,3,3,0,0,1-.15-.65c-.24.08-.2.39-.6.27.26.17.78.46.75.78l-.07.06,0,0a.2.2,0,0,0,.1.17.65.65,0,0,0,0,.26c-.19.1,0,.37,0,.52.27-.09.28.12.45-.13,0,0,0,0-.08-.11s0,0,0-.06h0l-.13-.37c.17.08.33.17.23.38l.5.08c-.31.31-.4.76-.62.88.27.42.37,1.05,1,1.22.1.12-.11.19-.18.26s-.08-.16-.17-.18c.2.23.24.77.62.75-.08.37-.37-.11-.21.33l-.12,0c-.41,1,1.21,1.3.66,2.45,0-.08,0-.12.11-.14-.16,1.2.68,2.35.25,3.56-.08.34.16.35.35.53l-.3.1.38.31c.29.47-.65.89-.16,1.47l.2-.09c0,.22.14.7-.1.67,0,0,.21.07.11.16h-.16l.29.54c-.1.42-.63-.05-.64.56.07.22.48.64.58.56a.27.27,0,0,1,.25-.24L58,100c.47,0,.95.21,1.26-.33L59,99.28l.22-.12,0,.31c.21-.18,0-.29-.12-.41a.38.38,0,0,0,.24-.16l-.45-.35c.18,0,.37.15.46-.09-.21-.16-.4.17-.55-.1.21-.18.38-.14.19-.34a.21.21,0,0,1,.25.09c-.15-.18-.07-.49-.32-.57.26-.2-.1-.62.34-.62a1,1,0,0,1-.4-.47c.55.27,0-.63.55-.6-.49-.19-.28-.81-.57-1.19,0,0,.12.06.1.09,0-.23.16-.31.23-.47-.39,0-.53-.33-.8-.49.34-.32.48.11.83,0-.31.05-.38-.45-.63-.32.2-.24.09-.2.39-.35-.49,0-.11-.19-.43-.32.2-.34.44-.14.25-.46C58.89,92.14,59.1,92.41,59.1,92.41ZM56.48,84.7h0l.06.15Zm-.2-.65a2.07,2.07,0,0,0,.08.28c-.09.05-.19.06-.2,0S56.23,84.18,56.28,84.06ZM54.83,86c-.07-.09,0-.14,0-.17a1.19,1.19,0,0,0,.08.16h-.11Z"/><path class="cls-1" d="M55.24,86.05l0,0,0-.08h-.1Z"/><path class="cls-1" d="M13.13,47.83h0a.11.11,0,0,1,0,0A.22.22,0,0,1,13.13,47.83Z"/><polygon class="cls-1" points="53.08 75.24 53.02 75.28 53.1 75.3 53.08 75.24"/><path class="cls-1" d="M9.7,46.21a.14.14,0,0,0,0-.08A.18.18,0,0,0,9.7,46.21Z"/><path class="cls-1" d="M8.12,45.93l-.21-.13A1,1,0,0,0,8.12,45.93Z"/><path class="cls-1" d="M6.92,45.64a.6.6,0,0,0,0,.12h0Z"/><path class="cls-1" d="M25.9,50.45h0C26.07,50.46,26,50.45,25.9,50.45Z"/><path class="cls-1" d="M20.23,48.91a1,1,0,0,1,.22-.06C20.36,48.79,20.29,48.76,20.23,48.91Z"/><polygon class="cls-1" points="31.88 53.19 31.87 53.2 31.91 53.22 31.88 53.19"/><path class="cls-1" d="M20.7,48.95a.27.27,0,0,0-.25-.1A.41.41,0,0,0,20.7,48.95Z"/><path class="cls-1" d="M1.59,45.17H1.53a.11.11,0,0,1,0,0Z"/><path class="cls-1" d="M1.52,45.2l-.07,0S1.51,45.23,1.52,45.2Z"/><path class="cls-1" d="M1.31,45.3l.14-.07S1.35,45.22,1.31,45.3Z"/><path class="cls-1" d="M3.22,45.34l0-.1A.27.27,0,0,0,3.22,45.34Z"/><path class="cls-1" d="M3.71,45.35c-.12,0-.28-.24-.45-.19l0,.08C3.33,45.1,3.59,45.51,3.71,45.35Z"/><path class="cls-1" d="M5.67,46.75l-.4-.11c.06.11.14.27,0,.28C5.71,47.28,5.14,46.67,5.67,46.75Z"/><path class="cls-1" d="M6.91,47c-.22,0,0,.16,0,.22C7,47.18,7.06,47.15,6.91,47Z"/><path class="cls-1" d="M15.85,48.71l-.09.24C15.93,49,15.79,48.86,15.85,48.71Z"/><polygon class="cls-1" points="17.9 47.9 17.79 47.7 17.64 47.9 17.9 47.9"/><polygon class="cls-1" points="18.36 49.96 18.28 49.97 18.57 49.97 18.36 49.96"/><path class="cls-1" d="M32.12,56.23l.13-.29C32.12,55.92,31.92,56.21,32.12,56.23Z"/><path class="cls-1" d="M37.64,59.8c0,.17,0,.36.22.31C37.76,60,37.72,59.82,37.64,59.8Z"/><polygon class="cls-1" points="50.03 74.92 49.87 74.86 50.07 75.03 50.03 74.92"/><path class="cls-1" d="M.08,45.35c0,.09,0,.28.1.24l.08-.33Z"/><path class="cls-1" d="M.87,45.94a.82.82,0,0,0,.2-.75c-.13.32-.17.19-.31.57-.12,0-.21-.1-.19-.22,0,.09-.18-.07-.25.14.15.25.35.26.55,0C.93,45.79.88,45.88.87,45.94Z"/><path class="cls-1" d="M12.52,45.41l-.08,0A.13.13,0,0,0,12.52,45.41Z"/><path class="cls-1" d="M19.64,44a.08.08,0,0,0-.06.09S19.66,44,19.64,44Z"/><path class="cls-1" d="M20.93,44h-.08S20.92,44,20.93,44Z"/><path class="cls-1" d="M12.52,45.41l.21.07C12.72,45.37,12.61,45.42,12.52,45.41Z"/><path class="cls-1" d="M2.45,45.11a.25.25,0,0,0-.1.09l.1,0Z"/><path class="cls-1" d="M9.39,46.15H9.33a1.07,1.07,0,0,0,0,.14Z"/><path class="cls-1" d="M6.95,46.47c.06,0,0-.28.06-.4,0,.12-.06.18-.1.2A.83.83,0,0,0,6.95,46.47Z"/><path class="cls-1" d="M3,46.24l-.07,0Z"/><path class="cls-1" d="M11.15,46a.37.37,0,0,0,0,.1A.26.26,0,0,0,11.15,46Z"/><path class="cls-1" d="M56.64,2.73h0S56.64,2.71,56.64,2.73Z"/><polygon class="cls-1" points="58.15 0.01 58.16 0.05 58.32 0.06 58.15 0.01"/><path class="cls-1" d="M23.23,43.65h0C23.17,43.7,23.2,43.68,23.23,43.65Z"/><path class="cls-1" d="M41.65,33.59c-.34-.05.11-.49-.35-.49C41.39,33.16,41.31,33.64,41.65,33.59Z"/><path class="cls-1" d="M2.51,45.15h.1A.16.16,0,0,0,2.51,45.15Z"/><path class="cls-1" d="M41.3,33.1h0Z"/><path class="cls-1" d="M28.1,41.61a.4.4,0,0,0-.1-.09A.26.26,0,0,0,28.1,41.61Z"/><path class="cls-1" d="M24.3,42.66h0Z"/><path class="cls-1" d="M29.8,40.41c.06,0,.09,0,.14,0l0,0S29.87,40.42,29.8,40.41Z"/><path class="cls-1" d="M31.7,39.48l-.06,0-.05,0Z"/><path class="cls-1" d="M55.79,8.8a1,1,0,0,1,.27,0C55.86,8.75,55.86,8.44,55.79,8.8Z"/><path class="cls-1" d="M2.46,45.27c0-.07,0-.11.06-.12l-.07,0A.18.18,0,0,0,2.46,45.27Z"/><path class="cls-1" d="M28.94,38.36l.31-.1A1.2,1.2,0,0,0,28.94,38.36Z"/><path class="cls-1" d="M49.7,21.91l0-.08A.06.06,0,0,0,49.7,21.91Z"/><path class="cls-1" d="M30.1,37.81a.51.51,0,0,0,.25.09.25.25,0,0,0,0-.08Z"/><path class="cls-1" d="M56.06,8.77h0Z"/><path class="cls-1" d="M55.86,6.56c-.06.3.33.21.53.31,0,.38-.3.11-.52.2,0,.24.34.48.29.64-.06,0-.09,0-.16,0,.23.3-.14.7.15,1.06h-.1a1.69,1.69,0,0,1,.5.08c0,.14.17.31-.08.3,0-.08-.07-.11-.13-.17l.07.17c-.37,0-.07-.22-.32-.29.06.3.22.69.07.88-.34,0,0-.52-.34-.32l.22-.29c-.59.11.09-.18-.53-.1-.22.39,0,.51-.19.9.15.15.28,0,.43.19.15.7-1,.22-.65.79.18.18.58.36.26.6l-.33-.23c-.18.39.44.4,0,.74-.12-.12,0-.36-.07-.31-.38.17.14.26.06.47l-.34-.07c-.11.44,0,1-.17,1.49-.08-.06-.15-.18-.29-.11a3.53,3.53,0,0,1-1,1.7l.17.33s-.16,0-.19,0c-.21.16.16.09.22.24s-.23.09-.27,0c0,.48-.05,1.31-.53,1.56l0-.12c-.25.25.35.63,0,.78l0-.08c-.49.59-.65,1.46-1.34,1.71.3.31-.56.52-.09.88-.48.2-.5,0-1,.44-.11.12.18.41.11.61L50,21.32l.11.4-.39-.09,0,.2a.25.25,0,0,1,.27,0c-.06.32-.59.45-.72.36l-.19.71c-.09-.09-.06-.21-.07-.33,0,.49-.3-.14-.26.3.08,0,.13.13.18.17-.24,0-.49.32-.6.59l-.13-.17c-.36.36-.59.9-1,1.34.2-.1.46.18.38.33L47.3,25c.08.21.21-.06.25.27-.17.14-.38-.13-.38-.29l-.09.27c-.08-.05-.08-.13-.17-.22.08.21-.54.12-.38.46l-.08-.05c-.38.42-.47.69-.77,1,.2.2,0,.29.1.55a3.71,3.71,0,0,0-1,.61c-.11.31.11.23.13.44-.2-.17-.47.15-.45-.14A5.43,5.43,0,0,0,43.73,29c.12,0,.21,0,.24.1a.22.22,0,0,1-.34,0v0c-.28.76-1.69.56-1.78,1.31v0l-.27.59c-.24.14,0-.25-.25-.25-.21.73-.8.59-1,1.14-.78-.35-1.11.9-1.83.84l.13.12c0,.23-.19,0-.3,0,.09.1.21,0,.2.17a10.16,10.16,0,0,1-3.27,1.69c-.4.19.27.91-.43.85l0-.37c-.55.83-1.59.91-2.18,1.65,0-.09,0-.18,0-.22-.28-.12-.6.33-.51.5-.13,0-.11-.14-.23-.19s-.27.48-.47.32c0,0,0-.09,0-.12-.05.16-.52.23-.29.42-.35,0-.51.4-.82.37,0,.36-.57.12-.43.54-.17-.41-.68-.08-.78.2,0-.15-.23-.05-.23-.26-.21.1-.38.27-.24.47-.62-.31-.63.77-1.14.23a10.22,10.22,0,0,1-1.66,1.24c-.15-.43.64-.31.43-.74-.49.4-.67.89-1.27,1-.17,0,0-.22,0-.31-.5.4-1.11.36-1.54.78,0,0,0-.1.07-.15s-.25,0-.18.21L23.5,41c.26.22-.19.73-.16.88,0-.62-.55,0-.52-.76a.28.28,0,0,0,0,.31c-.11,0-.17-.07-.12-.25-.32.23-.12.4-.46.5,0-.09,0-.15,0-.27-.11.24-.21.47-.52.48,0-.06-.06-.13,0-.15-.47.18-.67.75-1.25.73,0-.46-.22-.08-.35-.43l-.25.2.16.14c-.25.08-.4.39-.65.33l.14-.2-.45.19.31.06c-.2.25.16.45-.21.44.06-.05-.26.06-.44-.11h0c-.09.15-.19.3-.4.26s-.07-.41-.12-.48c0,.33-.57.24-.64.61a.51.51,0,0,0,0-.31l0,.27c-.14,0-.16-.08-.18-.24-.36,0,.23.44-.24.34,0,0,0-.06.06-.11-.45,0-.78.34-1.2.31-.2-.34.32-.17.12-.45-.54.19-1.06.7-1.62.73l.11,0c0,.54-.46-.18-.69.12.06-.05,0-.31,0-.24-.39,0-.74.27-1.28.54l0-.15a3.84,3.84,0,0,0-.84,0c0,.15-.19.15-.07.33-.86-.66-1.35.61-2.1.07.08,0,.17-.14.11-.14l-.54.2c.07.22.09.13.23.29a.47.47,0,0,1-.34.29c.23-.19,0-.37-.17-.48,0,.07,0,.15,0,.22-.34-.37,0,.47-.43.23v-.12c-.14.08-.26.25-.43.23-.1-.26.15-.14.13-.36-.23,0-.4.55-.63.3.09-.08.23-.1.32-.18C7.63,45,7.62,45,7.44,45h0l-.4-.1.11.07c-.22.72-.57.19-.91.68.34-.47,0-.26,0-.56C6.2,45,6,45,6.08,44.87c-.16.26-.32-.17-.54.2,0-.1-.19,0-.17-.24-.23.09.07.17.06.29-.34.35-.88-.35-1.37.14-.44.21-.51.55-.93.74-.15-.15.1-.36.1-.36a.57.57,0,0,0-.62,0c0-.09,0-.16-.08-.26s-.1.36-.34.22a1.53,1.53,0,0,1,.16-.4c-.2.09-.4.28-.61.37-.06-.17.12-.26.19-.37-.23.08-.61.17-.68.44l.15.09c-.09,0,0-.23,0-.28.2-.21.29.09.31.19l-.15.07c.17.57.6-.1.91-.08L2.38,46l.3-.35c.07.11.12.34,0,.4.23.2.19-.15.38.07,0,0,0,.06,0,.07l.21-.14c0,.09,0,.29-.09.24.4.22.6-.35.76,0l0,0c.53-.17,0-.31.41-.69l.31.74,0-.31c.06,0,.17,0,.15.15.19-.22,0-.13.06-.33.28.26.72-.17.81.31.08-.24-.27-.16,0-.34.12.52.32-.1.58.11-.05.28-.29.16,0,.37.11-.47.48.05.68-.06,0-.36.43-.2.76-.35,0,.12.66.13,1,.23v.06c0-.37.35-.33.58-.45a.44.44,0,0,1-.13.43l.22,0a.38.38,0,0,1,.24-.26l0,.28c.3-.06.56-.41,1-.28,0-.26-.4-.66,0-.89,0,.13.08.37,0,.44s.11-.13.18-.08l-.13.25c.19.08.06-.21.2-.2,0,.2.12.12.13.28s-.13-.06-.18,0a.63.63,0,0,1,.45.24c0-.11,0-.26.07-.3.3-.06.14.22.33.3.05-.15.26,0,.22-.32.09,0,.13.12.17.2.13-.16.71-.17.48-.45h0l0,0h0c.45-.38,1.07,0,1.54-.24l0,.1c.27-.17.65-.18.82-.44.09,0,.24.13.23.25.21-.12.21-.24.57-.15-.19.22.11.13-.21.18.31,0,.41.16.67-.18-.05.27.29.26.41.16l-.25-.13a1.13,1.13,0,0,1,.43-.09v.34c.7.26.92-.91,1.54-.38.1-.27-.36-.07-.29-.37.28,0,.69.36.78.33.42.08.23-.56.65-.55a.4.4,0,0,1,0-.58c.28,0,.47.39.32.53s-.1,0-.11,0-.18.15,0,.24V44.2c.17.08.54,0,.51.18.18-.16,0-.21-.14-.23.4.07.55-.15.94-.15-.08,0-.17-.16-.11-.18.57,0,.17-.29.5-.45.25.11.06.44.37.18.26,0,.14.29.08.41.26-.32.66,0,.86-.07l-.14.15a.54.54,0,0,1,.26-.14l-.17-.19c.11,0,.2,0,.23.08.06-.18-.2-.35-.06-.62.17.08.37-.26.51,0-.45,0,.15.29-.19.45a.34.34,0,0,1,.26-.08s0,.07,0,.09c.49.12.07-.4.49-.54,0,.19.21.28.26.22-.17.06-.18-.25-.07-.43.31,0,.25-.2.4-.23h-.18c0-.19.13-.21.3-.33.06.12-.13.15,0,.18.1-.37.57.14.79-.16.18.07.13.31.28.34.24-.33.43.09.7-.22-.18-.18-.18-.12,0-.43l-.49.38.23-.47c-.17.06-.29.28-.41.28.1-.24.1-.19,0-.34.35.24.37-.37.72-.25l.21.55c.49.08.58-.56,1.15-.63l-.2,0c0-.24.3-.16.43-.31.06.19.19.21.31.3-.06-.13.38-.15.26-.53l.33.14c.45-.09.23-.72.64-.84,0,.25.21.3,0,.55.13-.06.26-.08.21-.2.13.08.25-.4.44-.29,0-.1-.05-.3.1-.35a.17.17,0,0,1,0,.09c0-.09.17-.22-.05-.36.67.38,1.07-.58,1.64-.28a6.76,6.76,0,0,1,.79-.56c0,.06,0,.09,0,.09.43,0,0-.6.43-.63.35.17-.12.27.06.3.36.54.42-.34.86-.15l0,.07c.31.08.36-.49.71-.63a.18.18,0,0,0,0,.09,2,2,0,0,1,.67-1c0,.28-.07.2.12.39.12-.12-.25-.33,0-.56.16.06.42,0,.59.27l-.25.17c.32.22.33-.22.49-.25l.06.14c.37-.29.16-.62.6-.86l-.11-.07c0-.47.31.06.38-.32l.28.29a5.17,5.17,0,0,1,.53-.91,2.68,2.68,0,0,1-.31,1c.15-.1.48-.37.45-.58,0,.07-.06.2-.15.19a1,1,0,0,1,.45-.86c.38.66.87-.36,1.43,0,.34-.61,1.07-.66,1.63-1.14-.57-.31.16-.14-.25-.6.11-.13.17-.16.21-.14l.63,0c.21.06,0,.21.06.31.32-.2.28.1.58.07-.18-.14-.1-.33.12-.4l-.41,0c.2-.59.68.11.88-.48v.25c.13-.26.78-.64.65-1.19.08,0,.24.1.18.22.53-.39.71-1.36,1.29-1.48l.07.14c.06-.11,0-.35.18-.34,0,0,.07.14.11.11s0-.41.22-.46l0,.22c.59-.31.4-1,.69-1.43.31.31.77.05,1-.08l0,0c.54-.52.57-1.19.9-1.8.66,0,1.07-1,1.71-1.33-.13,0-.26-.23-.22-.35s0-.53.34-.26l0,0c.39.15.52-.17.67-.38l-.4-.35c1-.09.8-1.58,1.57-1.49,0-.21.09-.38.07-.59l.23.16a3.56,3.56,0,0,0,.7-1l.11.2c.19-.26-.48-.77-.34-1l.41.15c.26-.48.86-.78.8-1.44,0,0,.15.11.12.2.14-.22.75-.74.19-.93.34.17.29-.49.27-.83l.23.17c-.21-.38-.29-.43-.23-.79.07-.06.23,0,.12.1.25-.18-.14-.31.14-.54l.11.19c.14-.24,0-.26-.07-.49a.45.45,0,0,1,.52-.39c-.13-.1-.25-.32-.12-.44a.19.19,0,0,1,.14.14c.36-.36,0-.77.35-1a.26.26,0,0,0,.18,0,2.77,2.77,0,0,1-.29.58c.24.1.4-.16.63.2-.08-.3-.31-.85-.08-1.07h.1v0a.18.18,0,0,0,0-.19.61.61,0,0,0,.15-.2c.21,0,.23-.29.29-.43-.27-.09-.16-.26-.44-.16,0,0,0,0,0,.14a.16.16,0,0,0,0,.07l0,0-.11.36c-.09-.16-.16-.32,0-.42L56,13c.44-.06.77-.36,1-.33,0-.49.27-1.06-.17-1.5,0-.14.19-.1.28-.12s0,.17.06.23c-.06-.29.17-.76-.17-.92.25-.27.27.27.34-.18l.09.09c.84-.71-.55-1.63.41-2.41-.06.06-.09.09-.15.09.6-1,.1-2.32.8-3.33.14-.3-.09-.36-.25-.57l.31,0-.32-.36c-.21-.48.82-.74.38-1.37l-.21.06c0-.21-.1-.67.13-.63,0,0-.21-.08-.1-.16h.16l-.25-.53c.13-.4.63.08.67-.51C59,.34,58.61-.06,58.5,0a.28.28,0,0,1-.26.23l-.08-.2c-.46,0-.94-.18-1.28.29l.27.33-.23.1V.49c-.22.15,0,.25.09.37a.4.4,0,0,0-.25.13l.43.33c-.18,0-.36-.16-.46.05.2.16.41-.13.54.13-.22.15-.39.09-.21.29a.23.23,0,0,1-.25-.1c.14.17,0,.43.29.53-.26.15,0,.56-.42.51A.83.83,0,0,1,57,3.2c-.5-.32-.08.56-.64.43.45.25.15.75.36,1.14,0,0-.1-.07-.07-.1-.07.19-.22.23-.33.35.38.08.42.4.63.61-.41.19-.43-.22-.8-.2.32,0,.25.47.52.43-.26.15-.14.14-.47.19.48.12.05.19.33.4-.28.23-.46,0-.36.31C56,6.86,55.86,6.56,55.86,6.56Zm-1.19,7.09h0l0-.14Zm-.23.56a1.68,1.68,0,0,0,.11-.24c.1,0,.18.08.15.13S54.55,14.17,54.44,14.22Zm2.3-.5c0,.11-.06.12-.12.11a1.15,1.15,0,0,0,0-.18l0,0A.52.52,0,0,1,56.74,13.71Z"/><path class="cls-1" d="M56.46,13.41s0,0,0,0l-.08,0,.07.06Z"/><path class="cls-1" d="M12.42,45.38h0l0,0Z"/><polygon class="cls-1" points="49.98 21.29 50.04 21.32 50.02 21.25 49.98 21.29"/><path class="cls-1" d="M8.91,44.93a.14.14,0,0,0-.05-.07A.17.17,0,0,0,8.91,44.93Z"/><path class="cls-1" d="M7.44,45l-.22-.08A.84.84,0,0,0,7.44,45Z"/><path class="cls-1" d="M6.31,45a.66.66,0,0,0,0,.12h0Z"/><path class="cls-1" d="M23.6,40.92l0,0C23.71,40.81,23.65,40.85,23.6,40.92Z"/><path class="cls-1" d="M18.73,43.13a.94.94,0,0,1,.13-.17C18.76,43,18.69,43,18.73,43.13Z"/><polygon class="cls-1" points="28.9 38.37 28.9 38.38 28.94 38.36 28.9 38.37"/><path class="cls-1" d="M19.1,42.9a.23.23,0,0,0-.24.06A.34.34,0,0,0,19.1,42.9Z"/><path class="cls-1" d="M1.45,45.11H1.4a.12.12,0,0,1,0,0Z"/><path class="cls-1" d="M1.39,45.14l-.06,0S1.38,45.17,1.39,45.14Z"/><path class="cls-1" d="M1.21,45.25l.13-.07S1.23,45.17,1.21,45.25Z"/><path class="cls-1" d="M2.94,45.21v-.1A.29.29,0,0,0,2.94,45.21Z"/><path class="cls-1" d="M3.39,45.15c-.11,0-.28-.2-.43-.13v.08C3,45,3.29,45.33,3.39,45.15Z"/><path class="cls-1" d="M5.36,46.3,5,46.24c.07.1.17.24,0,.28C5.48,46.81,4.85,46.28,5.36,46.3Z"/><path class="cls-1" d="M6.56,46.36c-.2.07,0,.16,0,.22C6.7,46.47,6.73,46.44,6.56,46.36Z"/><path class="cls-1" d="M15.11,45.1l0,.25C15.29,45.29,15.13,45.26,15.11,45.1Z"/><polygon class="cls-1" points="16.43 43.45 16.24 43.33 16.22 43.58 16.43 43.45"/><polygon class="cls-1" points="17.8 45 17.74 45.06 17.98 44.9 17.8 45"/><path class="cls-1" d="M31.47,39.87l-.18-.26C31.22,39.71,31.35,40,31.47,39.87Z"/><path class="cls-1" d="M36.8,36.49c.14.1.35.09.36-.1C37,36.44,36.84,36.41,36.8,36.49Z"/><polygon class="cls-1" points="51.06 24.09 51.07 24.25 51.15 24.01 51.06 24.09"/></g></g></svg>