<?xml version="1.0" encoding="utf-8"?>
<!-- Generator: Adobe Illustrator 21.0.0, SVG Export Plug-In . SVG Version: 6.00 Build 0)  -->
<svg version="1.1" id="Camada_1" xmlns="http://www.w3.org/2000/svg" xmlns:xlink="http://www.w3.org/1999/xlink" x="0px" y="0px"
	 viewBox="0 0 384.2 275.6" style="enable-background:new 0 0 384.2 275.6;" xml:space="preserve">
<style type="text/css">
	.st0{clip-path:url(#SVGID_2_);}
	.st1{fill:#FFFFFF;}
	.st2{fill:#4D2222;}
</style>
<title>Ativo 5</title>
<g id="Camada_2">
	<g id="Camada_1-2">
		<g>
			<g>
				<defs>
					<rect id="SVGID_1_" y="-79.4" width="383" height="355"/>
				</defs>
				<clipPath id="SVGID_2_">
					<use xlink:href="#SVGID_1_"  style="overflow:visible;"/>
				</clipPath>
				<g class="st0">
					<path class="st1" d="M0.6,339.8C-9,166.5,123.7,18.1,297.1,8.6c138.7-7.7,257.4,98.5,265,237.2c6.2,111-78.8,205.9-189.8,212
						c-88.7,4.9-164.6-63.1-169.6-151.8c-3.9-71,50.5-131.8,121.5-135.7c56.8-3.2,105.4,40.3,108.6,97.1l0,0
						c2.5,45.4-32.3,84.3-77.7,86.8l0,0c-36.4,2-67.5-25.8-69.5-62.2l0,0c-1.6-29.1,20.7-53.9,49.8-55.5
						c23.3-1.3,43.2,16.5,44.5,39.8"/>
					<path class="st2" d="M375.8,276.5c0.6,1.1,1.8,0.4,1.2-2.6c-0.7-0.6-1.5-1.2-2.2-1.8c0.2,0.7,0.4,1.4,0.5,2.2L375.8,276.5z"/>
					<path class="st2" d="M373,256.2c-0.7-0.6-1.5-1.2-2.3-1.8c-0.7-0.5-1.4-0.9-2.2-1.1c-1.4-0.4-2.3-0.1-2.3,1.3
						c0.7,0.3,1.5,0.6,2.1,1c0.5,0.4,1,0.7,1.4,1.1c0.5,0.4,1,0.8,1.5,1.1c0.7,0.5,1.5,1,2.2,1.5c0.7,1,1.2,2.3,1.3,3.5
						c0.1,0.9-0.1,1.5-0.5,1.4c0.5,0.4,0.7,1.5,1.1,2.7c0.2,0.6,0.4,1.2,0.6,1.7s0.5,1,0.9,1.4c0.1-0.5,0.1-1.1,0.2-1.6
						c0-0.6,0-1.1-0.1-1.7s-0.2-1.2-0.3-1.7c-0.1-0.3-0.1-0.6-0.2-0.9l-0.3-0.9c-0.2-0.6-0.5-1.1-0.8-1.7s-0.6-1.2-1-1.7
						s-0.8-1.1-1.2-1.6c-0.4-0.5-0.9-1-1.4-1.5C371.5,255.6,372.5,256.2,373,256.2z"/>
					<path class="st2" d="M424.1,314.9c-0.4,0.6-0.8,1.1-1.3,1.7C423.3,316,423.7,315.5,424.1,314.9z"/>
					<path class="st2" d="M340.8,166.8c1.5,0.1,2.2,0,2.3-0.1C341.6,166.6,340.5,166.6,340.8,166.8z"/>
					<path class="st2" d="M306.4,166.4l2-0.2C307.7,166,307,166.1,306.4,166.4z"/>
					<path class="st2" d="M424.1,314.9c1.1-1.4,2.1-2.9,3.1-4.4c-0.2-0.3-0.6,0.3-1.1,1.2C425.5,312.5,424.8,313.8,424.1,314.9z"/>
					<path class="st2" d="M337.1,241.6c0.8-0.1,1.7-0.3,2.5-0.5c-0.8,0.1-1.6,0.2-2.4,0.2C337.2,241.3,337.1,241.4,337.1,241.6z"/>
					<path class="st2" d="M351.1,358.8h-1.7c-0.5,0.2-1,0.5-1.4,0.8L351.1,358.8z"/>
					<path class="st2" d="M292,326.7c0.8,1.4,2.5,0.9,3.5,0.9c-1.2-0.4-2.1-1.2-2.8-2.2C292.4,325.6,292.2,326,292,326.7z"/>
					<path class="st2" d="M322,237.2l1.8-0.8C323.3,236.6,322.5,236.9,322,237.2z"/>
					<path class="st2" d="M398,345.1c0.3,0.1,0.6,0.2,0.9,0.2C398.7,345,398.4,345,398,345.1z"/>
					<path class="st2" d="M13.3,265.7c-0.1-0.1-0.2,0-0.3,0C13.1,266,13.2,266.2,13.3,265.7z"/>
					<path class="st2" d="M0.2,339.9l-0.1-1c-0.3-0.1-0.7-0.2-1-0.2L0.2,339.9z"/>
					<path class="st2" d="M247.8,190.3l0.2-0.1C249.2,188.9,248.5,189.6,247.8,190.3z"/>
					<path class="st2" d="M529.2,379.9c-2.6,2.1-1.3-0.2-0.5-2.3s1.5-3.9-2-0.4C527.9,376.8,523.5,385.7,529.2,379.9z"/>
					<path class="st2" d="M335.5,241.4c-0.8,0.1-1.6,0.2-2.4,0.3C333.9,241.6,334.7,241.5,335.5,241.4z"/>
					<path class="st2" d="M526.8,377.1L526.8,377.1l-0.7,0.7L526.8,377.1z"/>
					<path class="st2" d="M197.1,321.4c0.3-0.5,0.5-1,0.5-1.6C197.5,319.9,197.3,320.3,197.1,321.4z"/>
					<path class="st2" d="M224.1,219.2c-0.6,0.6-1.1,1.4-1.7,2C223.1,220.5,223.6,219.8,224.1,219.2z"/>
					<path class="st2" d="M216.5,373.7c0.4,1.2,1,2.4,1.7,3.5c0-0.2,0-0.4-0.1-0.6C217.3,375.8,216.8,374.8,216.5,373.7z"/>
					<path class="st2" d="M251.5,419.3c-0.1-0.3-0.4-0.6-0.5-1l-1.4-1.2L251.5,419.3z"/>
					<path class="st2" d="M85.3,117.8c-0.9,0.5-1.8,0.8-2.8,0.9C84,118.9,79.1,125.3,85.3,117.8z"/>
					<path class="st2" d="M337,240.7c-0.3,0.5-0.9,0.7-1.5,0.7c0.6,0,1.1-0.1,1.6-0.1C337.3,241,337.4,240.8,337,240.7z"/>
					<path class="st2" d="M229.3,369.5c0.6,1.3,1.3,2.5,2,3.7l2,3.7c-0.5-1.1-1.2-2.3-1.9-3.5S229.9,370.8,229.3,369.5z"/>
					<path class="st2" d="M441.5,52.7l-1.8-0.9C440.2,52.3,440.8,52.6,441.5,52.7z"/>
					<path class="st2" d="M248.3,397c0.6,1.5,1.3,3,2.3,4.4c0.3,0.2,0.6,0.3,1,0.4C250.5,400.2,249.4,398.5,248.3,397z"/>
					<path class="st2" d="M82.5,118.7L82.5,118.7z"/>
					<path class="st2" d="M52.1,167.4c0.5-0.9,0.9-1.6,1.2-2.2c0.3-0.5,0.5-1,0.6-1.5c0.2-0.8,0.1-1.2-0.2-1.4
						c-0.5-0.5-1.6-0.4-1.7-1.5c4.8-8.8,3.8-3,6.6-5.2c0.3-0.7,0.7-1.4,1-2.1l0.9-2c0.6-1.3,1.1-2.5,1.6-3.7
						c0.8-2.3,1.9-4.5,3.3-6.5c0.5-0.1,1.1-0.7,0.9,0.4c0.7-1.8,1.7-3.6,2.9-5.2c1.3-1.9,2.8-3.8,4.3-5.8c0.8-1,1.5-2,2.3-3
						s1.5-1.9,2.2-2.9c1.3-1.8,2.5-3.7,3.5-5.7c0.3-0.2,0.7-0.4,1.1-0.4c-1.1,0.3-2.4-0.1-3.1-1.1c1.2-1.4,2.1-3,2.9-4.2
						s1.7-2,2.7-2c-1.6,1.7-1.3,2.2-1.7,3.3l2.2-3.3c4-1.2-3.2,4.4-2,5.5c4.7-6,9.5-13.9,14.3-17.5c1.2,0.3-1.2,2.8-3,4.7
						c-0.7,0.6-1.2,1.3-1.7,2.1c-0.1,0.3,0.4,0.1,2.2-1c-2.3,2-4.5,4-6.8,6c7.1-2.8-3.9,3.9,2.9,1.6c2.1-2.1,3.7-3.7,5-5.2
						s2.5-2.7,3.6-3.9s2.2-2.5,3.6-3.9c1.7-1.8,3.5-3.4,5.4-4.9c1.3-2.6-1.8-0.7-0.5-3.3c2-2.4,4.4-4.5,7-6.3c1.6-0.9,3.2-1.6,5-2
						c2.9-0.8,5.3-1.3,9.3-6.2c1.8-3,1.3-5.8,9.3-9.9l-1.1,3.7c1.2-0.8,2.1-1.5,2.9-2.2c0.7-0.5,1.3-1,1.9-1.6
						c0.7-0.8,1.4-1.6,2-2.5c1.1-1.5,2.3-2.9,7.8-5.5c-1.3,1.9-7.2,5.6-5.6,4.9c7.5-2.7,3.9-4.2,9.1-7.2l2,1.2
						c2.6-1.6,5.2-3.3,7.9-5.1l8.4-5.1l4.3-2.6l4.4-2.4c3-1.6,6-3.2,9.1-4.7c-0.4,0.9-2.3,2.4,0.8,1.7c3.9-1.8,7.9-3.6,12.1-5.3
						l1.6-0.6l1.6-0.5l3.2-1.1c2.2-0.7,4.3-1.3,6.5-2l3.3-1l3.3-0.8l6.5-1.5l3.2-0.7c1.1-0.2,2.1-0.5,3.2-0.6l6.2-1l5.7-3.2
						c1.4-0.3,2.8,0.2,1.3,0.8c6.4-0.5,0.1-1.2,3-2.4c3.6-0.8,5,0.1,2.8,1.1c2.7-0.9,6-1.9,9.7-2.9c3.7-0.8,7.7-1.7,11.7-2.4l3-0.5
						c1-0.2,2-0.2,3-0.3c2-0.2,4-0.4,5.9-0.5c3.5-0.3,7-0.3,10.4,0.1l-2.3,0.6c9.3,0.5,10.4-4.1,19.1-2.2l-1.7,0.3l7.7,0.4l7.7,0.6
						l3.9,0.3l3.8,0.4l7.6,0.9c2.5,0.3,4.9,0.8,7.3,1.3l3.5,0.7c1.1,0.2,2.3,0.5,3.4,0.8c2.2,0.6,4.3,1.3,6.4,1.9
						c1.9,0.6,3.9,1.3,5.7,2.2c1.7-0.8,6.5,0.7,11,2.3s8.8,3.1,10,1.7c5.1,2.8,6.8,4.2,9.1,5.6c0.6,0.4,1.2,0.7,1.9,1.1l2.4,1.5
						c1.9,1.1,4.3,2.5,7.9,4.4c3.8,2,6.7,0.9,11.7,3l-0.8,1.7c2.4,0.6,4.8,1.2,7.3,1.9l2.3,3.8c1.5,0.7,3,1.5,4.5,2.2
						c-1.6-1.1-3.1-3-2.6-3.3c3.7,1.9,7.2,4.3,10.3,7.1c2.8,2.6,4.7,4.9,4.5,5.4c1.3,0.8,2.7,1.5,4,2.3l3.9,2.5l3.9,2.5
						c0.6,0.4,1.3,0.8,2,1.3l1.9,1.4c-0.4,0.1-1.2-0.2-2.2-0.8s-2.2-1.2-3.3-1.8c1.4,0.6,2.7,1.4,3.9,2.4c0.5,0.6,0.5,0.9,0.5,1.2
						c-0.1,0.6-0.2,1.2,3.8,3.4c-0.6-1.1,1.2-0.4,1.6-0.6c0.9,1.2,1.8,2.3,2.8,3.3c1.1,1.3,2.5,2.7,4,4.1s3,2.8,4.5,4.3
						s3,2.9,4.4,4.2l-1.9-0.2c9.2,10,19.6,21.1,28.1,33.9c-0.5-0.9-0.8-1.8-1-2.8c-0.1-0.6,0-1,0.4-1.1c0.7-0.2,2,0.6,3.3,2.5
						l-0.6,2.6c2.6,1.8-2-4.4,2.5-0.1c3,5,0.2,4.4-2.1,2c1.4,1.8,3,3.6,4.3,5.5c-0.3,0.7-1.4-0.6-2.2-0.6c1.2,0.9,2.3,3.8,3.6,6.7
						c0.6,1.5,1.3,2.9,2,4.2c0.6,1.2,1.4,2.2,2.4,3.1l-0.3,0.6c1.8,3.4,3.4,6.3,4.6,9s2.5,5.1,3.7,7.4l3.1,7.1l1.6,3.8
						c0.5,1.3,1,2.7,1.5,4.2c1.7-0.3,3,4.4,5.4,7.6c0.5,2.3,1,4.6,1.5,7l0.7,3.6c0.2,1.2,0.4,2.5,0.6,3.8c0.4,2.5,0.8,5.1,1.3,7.7
						s0.8,5.3,1.4,8c2.2,7.5,1.8,2,3.4,5.3c-1.4,0.8,0.2,11.8-1.7,6.2c1.1,6.6,1.3,10.8,2,15.5c0.1,1.2,0.3,2.4,0.4,3.6l0.4,4
						l0.5,4.8c0.1,1.7,0.2,3.6,0.3,5.7c0.7-1.8,1-3.9,1.5-2.8c0.2,3.1-0.8,7-1.5,6.5l-0.1-0.8c0.8,9.5-1.5,20.4-4.5,30.3
						s-6.6,19-7.6,26.6l0.1-0.8l-0.4,1.9l-0.5,1.9l-1,3.8l-1,3.8l-1.2,3.7c-3.2,6.4,0.7-4.4-2.3,0.1c-1,3.7-2.3,7.3-4,10.7
						c-0.4,0.8-0.7,1.6-1.1,2.3l-1.2,2.2c-0.8,1.4-1.6,2.8-2.5,4.1c-3.3,5.3-6.8,10-10.1,16.1c-1.4,0.9-2.7,1.9-3.9,3
						c-1.4,1.3-2.8,2.8-4.1,4.3c-1.4,1.6-3,3.2-4.5,5c-0.8,0.9-1.5,1.8-2.3,2.7l-2.4,2.7c-3.2,3.7-6.6,7.2-10.2,10.6
						c-3.6,3.1-7,5.9-10.3,7.5l1.3,0.3c-2.3,3.1-3.9,2.4-6.2,3.8c0.8,0.5,3.7-1.7,2.3,0.2c-12.5,10.2-26.6,18.3-41.8,23.9
						c-15.2,5.6-31,9.5-47,11.4c-5.8,0.6-7.3,2.3-9.2,3.5c-1.2,0.8-2.5,1.3-3.8,1.5c-1.1,0.2-2.2,0.3-3.3,0.3c-0.7,0-1.4,0-2.2,0
						s-1.6-0.2-2.6-0.3c1.4-0.7,2.7-1.4,4.1-2.2c-11.6,2-23.8,1.3-35.6-0.8c-11.6-2.2-23-5.3-34.2-9.1c1.4,0.2,1.7-0.4,3.8,0.4
						c-1.3-0.9-2.8-1.7-4.3-2.4c-1.7-0.8-3.7-1.6-5.5-2.3c-3.6-1.5-6.9-2.4-7.1-1.9c-3.1-1.9-0.2-1.3-1.8-3c-1.1-0.8-2.2-1.5-3.4-2
						c-1.3-0.7-2.6-1.3-3.9-1.8c-2.6-1.1-4.8-2.3-5.4-3.7c-0.2-0.4,1.4,0.4,2.2,0.8c-1.1-0.5-2.1-1.1-3.1-1.8l-1.9-1.3l-1.8-1.4
						c-2.4-1.7-4.2-2.9-3.5-1.3l-1.2-1.1l-1.2-1.1c-0.8-0.7-1.6-1.4-2.4-2.1s-1.6-1.3-2.4-2l-2.3-2c-2.9-2.3-5.5-5-7.7-8
						c-1.3-0.7-2.4-1.6-3.4-2.6c-1.2-1.2-2.2-2.5-3.2-3.9c-2-2.7-3.8-5-5.2-4.8c0.6-0.3,0.5-1.3-0.1-2.7c-0.9-1.7-1.9-3.4-2.9-5.1
						c-0.6-1-1.3-1.9-2-2.9s-1.4-1.9-2-2.8c-1.1-1.6-2.2-3.1-3.5-4.5c1.6,1.2-1.5-4.6,0.5-3.3c-0.7-1.4-1.5-2.7-2.2-3.9
						c-0.7-1.2-1.3-2.3-1.9-3.2c-1.1-1.8-2.1-2.6-2.5-1.8c-0.3-1.5-0.6-2.9-0.9-4.3c-0.4-1.4-0.9-2.7-1.4-4c-1-2.6-2.1-5.1-3.2-7.5
						c-1-2.2-1.8-4.5-2.4-6.8c-0.5-2-0.5-4.1,0.1-6c-2.7-8.6-4.5-17.4-5.5-26.4c-0.9-8.5-0.9-17.1,0.2-25.5c0.6,0.3,0.8,1.5,0.8,3.3
						c0,0.9-0.1,1.9-0.2,2.9l-0.1,1.6l-0.1,1.7c-0.3,4.4-0.2,8.7,1.2,8.3c-0.5-6.7-0.5-13.5-0.1-20.3c0.5-6.8,2-13.4,4.6-19.7
						c0.9-1.8,1-1.2,0.8,0.1c-0.2,1.3-0.4,3.2-0.4,3.9c1.9-7.4,4.8-14.5,8.6-21.1c3.6-6.5,7.6-12.4,11.4-18.4
						c0.2,0.2-0.5,1.6-1.3,2.8c0.8-1.1,1.8-2.4,2.6-3.3s1.2-1.7,0.6-2l-1.5,2.3c-1,0.6-1.3,0.2-1.1-0.7c0.4-1.4,1-2.7,1.7-4
						c0.8-1.6,1.8-3.2,2.6-4.5c0.6-0.8,1-1.7,1.2-2.6c-0.2,1.5,0.4,1.6,1.3,1.1c1.2-0.8,2.4-1.6,3.5-2.5c0.9-0.9,2-1.5,3.3-1.9
						c0.8-0.1,1,0.6,0.4,2.6c1.2-1.4,2.5-3.3,1.7-3.7c1.1-0.8,1.9-1.3,2.2-1.2s0.2,0.6-0.5,1.9c1.8-1.7,3-2.9,3.8-3.8
						c0.8-0.9,1.3-1.6,1.8-2.2c0.5-0.7,1.1-1.3,1.8-1.9c0.4-0.4,0.9-0.8,1.5-1.3s1.4-1,2.4-1.6c0.3,0.5-1.1,1.7-1.5,2.8
						c3.1-3.4,6.4-7.1,13.5-10.1c-0.3,0.5,0.8,0.5-1.3,1.6c2.9-1.6,5.6-3,8.1-4.5c2.6-1.3,5.1-2.8,7.8-4c5.8-2.9,12-4.7,18.4-5.4
						c-3.7,3.3,5-0.1,6.1,2.1l3.8-0.8l3.8-0.6l-3.2-0.8c1.7-0.1,3.3-0.4,5-0.6s3.2-0.4,4.7-0.6c3-0.4,6-0.4,9,0.1
						c-1.7,0.2-3.4,0.4-5.1,0.7c2.1-0.1,4.2,0.1,6.3,0.1c1.1,0,2.1,0.2,3.2,0.2s2.1,0.1,3.2,0.3c-1.2-0.4-2.3-0.6-3.5-0.9
						s-2.4-0.6-3.6-0.8c1,0,2-0.2,3-0.6c0.3-0.2,0.5-0.5,0.5-0.8c0.1-0.2,0.2-0.4,0.9-0.4c1.4,0.1,2.8,0.3,4.2,0.7
						c-1,0,0.8,0.3,3.1,0.8s5.3,1.6,6.9,2.8l0,0c0.9,0.1,1.8,0.1,2.7,0.2s1.8,0.3,2.8,0.5c2.2,0.5,4.3,1.3,6.3,2.3
						c1,1.1-1.9,1.9-1.3,2.7c1.9-0.2,5.6,1.2,9.3,3c1.8,0.9,3.7,1.9,5.4,2.7c1.4,0.7,2.8,1.3,4.3,1.6c-1.4-0.4-2.2,0.6-1.9,1
						c1.1,0.1,2.1,0.2,3.2,0.3c2.4,2.2,2.5,2.7,1.6,3.2c3.6,3,3.5,2,3.5,1.2s0.1-1.4,4,2.8c-0.8-0.5-0.6,0-2.1-1.1
						c4.1,3.9,8.2,7.6,11.9,11.6c3.7,3.9,6.8,8.2,9.4,12.9c-0.2,1.9-1.4,0-2.7-1.8s-2.6-3.5-2.3-1.6c4.5,6.1,8.5,12.6,11.9,19.4
						c3.4,6.8,5.5,14.2,6.4,21.7c0-0.9-0.1-1.8-0.2-2.7c0.9,0.5,1.5,1.4,1.5,2.5c0.2,1.5,0.2,3,0,4.5c-0.3,3.5-0.8,7.5-0.3,11.2
						c-0.2-1.8-1.7-2.4-1.4-1.9c-0.3,4.9-0.5,9.9-1.3,15.5c-0.8,6.5-2.5,12.8-4.9,18.9c0-0.7,0.1-1.3,0.1-2c-3,5-7.7,13.2-12.2,17.7
						c-0.5,2-3.2,4.5-0.8,3.7c-4.2,2.8-8,5.6-11.7,8.4s-7.4,5.4-11.2,7.8c-3.8,2.4-7.8,4.3-12.1,5.8c-4.2,1.4-8.6,2-13,1.7
						c1-0.1,2-0.4,2.9-0.8c0.7-0.3,1-0.5,0.2-0.4c-4.7,1.1-9.5,1.8-14.4,2c1.1,1.4,1.9,0.9,5,1.8c-3.2,1.2-6.6,1.7-9.9,1.3
						c3.5-0.2,3.4-0.8,2.3-1.4c-0.8-0.4-1.6-0.7-2.4-1l-2.5-1c0.4,0.5-0.6,0.8-0.4,1.3c-3.6-1.8-4-1.3-4.9-0.6
						c-0.9,0.6-2.2,1.4-7-1.1l0.8-0.5c-3.9-0.9-7.7-1.5-11.5-3.8c-0.4-1.1,0.6-0.8,1.9-0.3c1.2,0.5,2.7,1.1,3.1,0.5
						c-2.7-1.3-5.7-2-8.4-3.1s-5.3-2.6-6.9-5c1.1,0.7,2.4,1.5,3.7,2.4c1.2,0.8,2.5,1.5,3.9,2.1c-1.3-1.6-2.6-3.2-4.1-4.6l-1.6-1.5
						c-0.5-0.5-1.2-1-1.9-1.9l0.3,0.3c-2.2-2.4-4.3-5-6.1-7.7c0.4,0.8,0.8,1.5,1.2,2.2c-4-1.4-6.5-4.5-8.6-8s-3.9-7.7-6.9-12.1
						c0.8,1.3,1.8,2.6,2.8,3.7c0.5,0.5,0.6,0.3,0.6-0.1c0-0.8-0.5-2.5,0.5-2.5c-0.2-1.3-0.5-2.8-0.5-4s0-1.9,0.4-1.4
						c-1.3-2-1.5-4-1.6-6.1c-0.1-2.6-0.6-5.2-1.5-7.6c0.6-0.3,0-4.8,1.5-3.8c0-2.8-0.3-2.5-0.7-1.6s-0.7,2.7-1.1,2.4
						c-0.9-4.6,0.4-10.1,2.9-15.4s5.9-10.5,9.2-16.3c0.9-1.1,1.7-2.1,2.4-3.1l0.5-0.7l0.5-0.6l1-1.2c0.7-0.8,1.2-1.6,1.8-2.2
						l1.8-1.9c1.2-1.4,2.6-2.6,4-3.7l1.2-1l1.4-0.9c1-0.6,2.1-1.3,3.4-1.9c2-0.1,1.4,0.6,0.4,1.4c-0.5,0.4-1.1,0.9-1.6,1.2l-0.8,0.6
						c5.8-1.5,10-2.8,15.5-3.9c-1.1,0.6,0.1,0.9,1.8,1.4c4.3-0.1,3-2.4,8.7-0.8c-1.4,0.8-2.9,1.4-4.5,1.9c4.9-0.3,10.1-0.2,15.3,1.7
						c0.8,1.5-3.6,0-5.5,0.2c0.4,0.1,0.7,0.1,1.1,0.2l1.1,0.4l2.4,0.8c1.5,0.7,3.2,1.3,4.6,2.1l2.1,1.1c0.6,0.4,1.3,0.7,1.8,1
						s1,0.5,1.5,0.7c0.4,0.2,0.8,0.3,1.2,0.4c-0.8-1.1-1.7-2.1-2.6-3c1.8,1.4,0,1.8-1.4,1c-1-0.4-2-0.9-3-1.5
						c-0.6-0.4-1.2-0.9-1.8-1.4c-0.6-0.5-1-1.3-1.2-2.1c1.2,0.5,2.4,1,3.6,1.5c-0.4-1.3-1.6-2.3-3.2-3.3c-1.9-0.9-3.9-1.6-6-1.9
						c-4.5-0.8-9.5-0.5-13.3-0.4c1.1-0.8,2.2-1.7,3.4-2.5l-4.2,1c-1.4,0.5-2.7,1-4,1.5c-0.9-0.2-1.7-0.6-1.8-1.1s0.5-1,2.5-1.4
						c-1.9-0.3-3.8-0.1-5.5,0.7c-0.6,0.3-1.2,0.4-1.9,0.6c-1,0.2-2,0.4-3,0.4c-0.6,0-0.4-0.2,0.1-0.5l-2.7,1.3l-2.6,1.5
						c0.9-0.9-1.6-1.2,1.9-2.3c-2.4,0.6-4.7,1.5-6.8,2.8c-1,0.6-1.8,1.1-2.6,1.7s-1.5,1.3-2.1,1.8l-1.8,1.6c-0.5,0.5-1.1,1-1.6,1.5
						c-0.9,0.8-1.9,1.4-3.1,1.8c0.2-0.3,0.4-0.5,0.6-0.7c-5.1,5.5-4.7,6.3-4.2,6.6c0.3,0.2,0.6,0.3,0.6,0.9c0,0.5-0.2,1-0.4,1.5
						c-0.3,0.7-0.7,1.5-1.1,2.8c-1.3,0.5-2.6,1.1-3.9,1.8c-1.3,0.6-2.6,1.4-3.7,2.2c0.3,0.7,0.6,1.4,1,2.1c-0.7,1.4-1.9,4.1-2.4,3.3
						c-0.2,0.8-0.3,1.6-0.2,2.4c0.1,0.3,0.2,0.1,0.4-0.1c0.3-0.5,0.8-1.2,0.8,0.6c-0.5,0.9-0.9,1.7-1.3,2.7c-0.2,0.5-0.4,1-0.6,1.5
						l-0.4,1.6c-0.2,1.1-0.5,2.2-0.7,3.3s-0.2,2.2-0.3,3.3c-0.3,2.1-0.2,4.1-0.4,5.6c-0.1,0.7-0.2,1.4-0.5,2
						c-0.1,0.5-0.4,0.9-0.8,1.2c0.8,1.3,0.9-0.5,1.1-1.6c0.1-0.5,0.2-0.9,0.3-0.7c0.1,0.2,0.3,1.1,0.7,3c-1.5,1.2-1.1,3.5-0.3,6.2
						s2.1,5.7,2.4,9.1c-2.2-1.4-3-7.9-2.6-1c1.9,1.6,2.8,4.7,3.8,8s2.2,7,4,9.3c1-0.5,2.8,2,5.5,5.3c2.9,3.8,6.4,7.1,10.2,10
						c-0.5,0.1,2.7,3.2,7.4,6.5c4.8,3.2,9.9,5.8,15.2,7.9l-0.4,0.3c1.2-0.8,3.9-0.4,7.2,0c3.5,0.5,7,0.8,10.5,0.8
						c-0.2,0.7-0.7,1.2-1.4,1.4c-1.3,0.4-2.6,0.6-3.9,0.6l1.6,0.2l1.6,0.1c1.1,0.1,2.1,0.2,3.2,0.2c1.5-0.7,3.5-1,7.5-1.5l-1.5,1.8
						c4.3-0.4,8.6-1.3,12.8-2.6c4.4-1.3,8.9-2.8,14.1-4.2c0-0.8-2.4-1-3.4-1.7c-1.1-0.7-0.8-1.7,3.9-4.2c0.4,0.3,0.7,0.8,0.8,1.3
						c0,0.5-0.4,1.2-1.6,1.9c0.9-0.4,2.8-2,4.7-2.4c-1.1,1-2.3,2.1-3.5,3.1c2.4-0.7,2.8-1.2,3.1-1.8s0.5-1,2.2-1.9
						c0.5,1.1,2.9-0.6,2.9,0.5c-0.8,0.5-3.2,1.2-4.4,2.2c4-1.7,9-3.8,11-4.1c-0.7-0.4-0.8-1.3,1.7-3.3c3.4-2.4,4.1-2.7,4.6-2.5
						s0.7,0.7,2.8-0.7c0.5-1,1.9-2.2,3-3.4c1.1-1.2,1.9-2.3,1.3-3c1.7-1.8,2.6-1.5,3.6-1.9c0.6-0.9,1.7-2.4,2.9-4l1.8-2.6
						c0.6-0.9,1.2-1.8,1.7-2.6c0.8-1.3,1.5-2.6,2.1-4c0.3-0.9,0-1.1-1-0.3l-0.7,0.9c0.1-0.2,0.2-0.4,0.3-0.6l0,0l0,0
						c3-6.4,6.2-12.7,8.8-19.5c2.7-6.7,4.1-13.8,4.2-21h0.6c-0.2-8.4-1.1-18.5-3.5-24c-0.4-2.4-0.2-5.8,0.7-5
						c-2.1-6-2.7-6.5-5.2-15.4c1.7,2.8,1.7,2.2,1.7,1.9s0-0.2,0.1,0.3l0.4,1.2l0.8,2.4l-0.8-2.8l-0.7-2.3c-0.4-1.3-0.8-2.6-1.3-3.9
						c-0.5-1.3-1.2-2.6-1.9-3.8c-1-1.6-2.1-3.1-3.3-4.6c1.4,0.9,1.1-0.6,0-2.9c-0.3-0.6-0.6-1.2-0.9-1.8s-0.7-1.2-1.1-1.8
						c-0.7-1.1-1.4-2.1-2.2-3c0.8,1.8,1.6,3.7,2.3,5.5c-2.6-3.6-4.7-6.9-7-10.1c1,0.1,1.9,0.3,2.9,0.5c-4.3-7.7-10.8-12.7-16.8-16.7
						s-11.8-7.3-16.5-12.3c-2.3-0.5-0.4,0.9,1.5,2.3s3.8,3.1,1.6,2.7c-0.8-0.5-1.6-1.1-2.4-1.7s-1.6-1.2-2.3-1.8l-4.3-3.5
						c-1.3-1.1-2.6-2.1-3.6-2.8c-0.8-0.6-1.6-1.1-2.5-1.6c-3.1-1.8-6.7-2.7-10.3-2.7c-1.5,0.1-3,0-4.4-0.1c-2.2-0.2-4.3-0.7-6.5-1.3
						c0.6,0.5,1.2,1.3,0.5,1.8s-2.5,0.8-6.5,0.5c-1.5-0.2-3.1-0.6-4.5-1.1c-0.8-0.2-1.6-0.7-2.3-1.2c-0.7-0.8,0.1-1.6,2.6-1.7
						c1.9,0.2,2.8,0.5,2.6,0.7c2.5,0,5.9,0.3,2.9-1l-1.1,0.6c-1.3-0.4-2.6-0.7-3.9-0.9c-1.5-0.3-3.2-0.4-4.6-0.7s-2.7-0.4-3.4-0.5
						s-0.9-0.4-0.3-0.7c-6.1,0.6-2.6,1.1,1.8,1.6c-2.3-0.3-4.6-0.5-6.9-0.5c-2,0-4.1,0.1-6.1,0.3c-4,0.3-7.9,0.8-13.1,1.4
						c1.7,0.1,3.3,0.7,1.7,0.9c-7.5,0.9-9.1,1.7-10,2.4s-1.2,1.3-6,2.9c-2.9,0.3-2.6-0.5-2.8-0.9s-0.8-0.3-5.5,1.8
						c-3.1,0.7-3.6,0.5-3-0.3c0.4-0.5,0.9-0.9,1.4-1.3c0.6-0.4,1.3-0.9,1.9-1.2c-2.2,1.1-4.2,2.1-6.3,2.9s-4,1.5-5.9,2.2
						c-0.9,0.3-1.9,0.6-2.8,0.9l-2.5,0.9c-1.5,0.5-2.9,1.1-4.3,1.8c1.4-1,2.8-1.9,4.2-2.9c-1.3,0.9-2.5,1.6-3.6,2.2s-2.2,1.3-3.3,2
						l3.2-0.2c-2.7,1.3-4.9,2.5-5.1,2c-2.1,2.4,3.2,0.8-1.1,5.1c-3.7,1.4-9.1,7.4-11.3,6.8c1.4-1,2.8-2,4-3.2
						c0.4-0.5,0.1-0.6-0.4-0.6c-0.8-0.1-1.9-0.2,2.3-3.4c-0.8,0.8-1.7,1.5-2.7,2.1l-3.4,2.3c-0.5,0.1,0.1-0.6,0.7-1.2
						c-1.8,1-3.5,2.2-5,3.5c-0.7,0.7-1.2,1.5-1.5,2.4s-0.8,1.8-1.3,2.6c-1.2,1.7-2.6,3.3-4.1,4.7c0.2-0.9-0.7-0.8-1.8-0.2
						s-2.1,1.5-2.9,2.5c3.4-3.6,2.9-0.5,0.4,3.3c-5.8,5.4-5,6.9-7.5,10l3.1-3.4c-0.3,1.3-0.9,2.6-1.7,3.7c-1,1.5-2.2,3.5-3.6,5.7
						c-1-0.1,2.3-4.3,0.9-3c-0.5,1.5-1.3,2.9-2.3,4.2c-1,1.4-2.1,2.8-3.3,4.1c-1.1,1.5-2.4,3-3.5,4.6c-1.1,1.7-2,3.6-2.6,5.5
						c-2.3,3.2-2-0.5-3.9,2.4c-0.9,3.2-2.2,6.4-3.9,9.3c-0.7,1.3-1.3,2.6-1.8,3.9c-0.3,0.8-0.6,1.6-0.9,2.6c-0.3,1-0.5,2.1-0.7,3.3
						c2.2-2.4,1.9-2.9,1.4,4.1c1-5.4,2.4-10.6,4-15.8l-0.5,2.6c-0.1,0.9-0.2,1.8-0.4,2.6c-0.2,1.8-0.5,3.5-0.6,5.3
						c0.7-2.3,1.3-4.8,1.9-7.1c0.5-1.9,1.1-3.8,1.9-5.6c-0.7,5-0.8,4.4,1.1,2.7c-2.3,2.7-3,5.9-3.6,9.3c-0.3,1.7-0.5,3.4-0.9,5.2
						c-0.2,0.9-0.4,1.7-0.7,2.6s-0.6,1.8-0.9,2.7l-3.4-1c-1,2.7-1.7,5.4-2,8.3c-0.2,1.4-0.2,2.8-0.3,4.1s-0.1,2.8-0.1,4.2
						c0.1,2.9,0.1,5.8,0.2,9c0.1,1.6,0,3.2,0.1,5s0.1,3.5,0,5.4l0.5-4.9c0.8,1,0.8,3.3,0.9,6c0.1,2.7,0.3,5.4,0.7,8.1
						c-1.2-0.3-1.3,2.7-1.7,4.9c0.2-0.1,0.4,0.5,0.6,1.6l0.3,1.8l0.5,2.1c0.7,2.9,1.6,5.9,2.9,6.3v6.9c0.8,4.3,2.5,8.4,5.1,12
						c1,1.5,1.9,2.9,2.9,4.6c1.2,2.1,2.2,4.2,3,6.5c-2.5-2.7-1.3,2.5-5.1-4.4c1.4,3.6,2.6,7,3.4,6.7c0.1,1.2,1.6,3.5,3.1,5.9
						s3.3,4.9,3.6,6.8c1.2,1.2,2.6,1,4.7,4.8c0,0.5-0.5,0.3-0.5,0.3c0.3-0.2,1.3,1.2,2.2,2.1s1.6,1.3,1.2-0.6
						c1.6,6,6.4,12.8,11.7,18.9c1.3,1.5,2.7,3,4,4.5s2.6,2.9,3.8,4.2c1.2,1.4,2.3,2.7,3.3,4c1,1.1,1.8,2.4,2.6,3.6
						c6.7,5.6,13.8,10.8,21.1,15.6c-0.6,0-0.4,0.5-1.5-0.5c0.5,0.4,1,0.8,1.4,1.2s0.9,0.6,1.3,0.8c0.7,0.4,1.4,0.8,2.1,1.1
						c1,0.4,2.1,0.6,3.1,0.7c1.2,0.1,2.3,0.4,3.4,0.8c2,0.8,3.8,1.9,5.6,3.1c2.3,2.2,0.8,1.7-1,1s-3.6-1.9-2.1-0.7
						c-0.2,2.2,3.1,3.7,7.3,5.4s9.2,3.2,12.6,5.7l-1.9-0.5c1.5,0.9,3.1,1.6,4.7,2.2c1.8,0.5,3.8,1,5.9,1.4s4.4,0.8,6.7,1.2
						c1.2,0.2,2.4,0.5,3.5,0.7s2.4,0.5,3.7,0.8c0,0-0.6,0.2-0.2,0.6c3.6-0.1,8.6,0.1,14,0.4l4,0.2c1.4,0,2.7,0.2,4,0.2
						c2.7,0,5.3,0.1,7.7,0.1c-3.1,1.4-4.4,0.5-2.7,2.2c2.2,0,1.9-0.6,2.1-1.2s1-1.3,5.3-1.4c0.7,0.2,1.6,0.4,2.6,0.7s2,0.4,3.1,0.6
						c2,0.4,3.8,1,4.3,1.8c-2.7,0.1-5.5,0.3-8.2,0.3c2.1,1.1,4.8,0.9,7.5,0.6l2-0.3l1.9-0.4c1.2-0.2,2.4-0.4,3.5-0.4l-0.5,1
						c4.3-0.4,8.5-1.3,12.6-2.8c4.2-1.4,8.6-2.5,13-3.3l-1.5-0.4c1.2-0.7,2.5-1.2,3.9-1.7c0.8-0.2,1.7-0.3,2.6-0.2
						c0.9,0.1,1.7,0,2.6-0.1c1.4-0.3,2.7-0.8,3.9-1.5l2.8,1.7c4.6-1.8,15.5-7.2,23.2-11c-2.7,2.2-5.6,4.1-8.6,5.7l-5.3,2.7L423,454
						l-2.2,0.9l2-0.6c0.8-0.3,1.6-0.5,2.4-0.9c1.7-0.6,3.6-1.3,5.3-2c1.6-0.6,3.2-1.4,4.8-2.3c1-0.5,2-1.1,2.8-1.9
						c-1.7,0.9-3.8,2.4-5.7,2.8c2.7-2.2,5.6-4.1,8.7-5.8c1.7-1,3.4-2,5.3-3c1-0.5,2-1,3-1.5l3.1-1.6c0.1,1.2,1.6,1.2,3.9,0.4
						c1.3-0.5,2.7-1,3.9-1.7c1.4-0.7,3-1.6,4.6-2.5c6.5-3.5,13.4-8.3,17.3-9c3.3-2.8,6.5-5.6,9.8-8.3l1.3-1l1.2-1.1l2.5-2.1l2.5-2.1
						c0.9-0.7,1.7-1.4,2.5-2.1l5-4.5l1.3-1.1l1.2-1.2l2.5-2.4c3.4-3.4,6.7-7,9.7-10.8c-3.7,1.6-2.7,0.4-1.4-1.3s3-4.1,1.2-4.7
						c2.6-3.8,3.7-5.1,4.1-5.3l4.9-5.1l1.2-1.3l1.2-1.3l2.3-2.7c2.7-2.3-1.7,4.2-0.8,4.3c2.8-4.3,3.8-5,4.5-5.3s1.4-0.1,3.5-2.9
						c-0.9,0.3-0.9-0.7-0.2-2.4c0.4-1,0.9-2,1.5-3c0.6-1.1,1.4-2.3,2.1-3.6c-0.8,1.1-1.8,2.2-2.7,3.2l-2.8,3.2
						c2.7-6.6,4.7-9.1,6.8-11.5s4.1-5,6.1-12l-0.8,4.7c0.6-1.8,1.7-4.2,2.6-7.1l1.6-4.5c0.3-0.8,0.6-1.6,0.8-2.4l0.7-2.5
						c0.5-1.6,0.9-3.3,1.3-4.9c0.2-0.8,0.4-1.6,0.6-2.4c0.2-0.8,0.3-1.6,0.4-2.3c0.5-2.5,0.6-5,0.4-7.6c0.7-1.2,2.1-2.6,1.6,0.6
						c0.6-2.1,1-4.4,1.5-6.6l0.7-3.4c0.2-1.2,0.3-2.3,0.5-3.5c0.3-2.4,0.5-4.7,0.8-7.1s0.3-4.7,0.4-7.1l0.2-3.5l0.1-3.4
						c0-2.2,0.1-4.4,0.2-6.5c0-3.9,0.3-7.7,0.8-11.5c0.3,0.4,0.6,0.9,0.9,1.3c-0.3-3.3-1.8-5.7-1-9.8c0.4,0.2,0.9,1.3,0.9-0.2
						c-0.1-0.4-0.2-1.2-0.5-2.1s-0.5-2.1-0.7-3.3c-0.5-2.4-0.8-4.9-0.8-7.4l1.3,3.6c0-2.1-0.1-4.2-0.3-6.1s-0.5-3.7-0.8-5.4
						s-0.7-3.4-1-5c-0.2-0.8-0.4-1.6-0.6-2.3l-0.7-2.3l-3-8.9c-0.5-1.5-1.1-3-1.6-4.6s-1-3.2-1.5-4.9c0.6-0.1,1-1.1,1.1-2.5
						c0.1-0.8,0.1-1.7,0-2.5c-0.1-0.9-0.2-1.9-0.3-3c-0.3-2.1-0.7-4.4-1.2-6.6c-0.2-1.1-0.4-2.2-0.7-3.1l-0.7-2.7l0.4,0.1
						c-1.4-4.5-3.1-8.9-5-13.1c-1.7-3.9-3.6-7.7-5.6-11.4c-2.1-3.6-4-7.2-6.4-10.7s-4.5-7.3-7.1-11c-0.5-1.6-1.1-3.2-1.8-4.7
						c-0.4-0.9-0.8-1.8-1.2-2.7c-0.5-0.9-1-1.9-1.6-2.8c-2.4-4.3-5.1-8.5-7.9-12.5c-5.9-8.8-13.4-17.4-19-24.9
						c1.5,2.4-1.8,1-4.3-1.1c-1.7-1.9-3.5-3.6-5.5-5.1c-1.8-1.6-3.1-2.7-2-3.3l1.1,1.1c-0.7-3.9-7.6-9.7-12.9-14.1l-2.9,1.7
						c-0.7-1-1.4-1.9-2.2-2.8c-0.8-0.9-1.7-1.9-2.6-2.7c-1.9-1.8-3.9-3.5-6-5.3c-1-0.9-2.2-1.6-3.3-2.4s-2.3-1.6-3.5-2.3
						c-2.3-1.5-4.6-3.1-7-4.4l-6.8-3.9l-1.6-0.9l-1.6-0.9c-1-0.6-2-1.1-3-1.7c-1.7-1-3.4-2.1-5-3.3c-1.3-0.9-2.5-1.9-3.5-3.1
						c-2.1-0.6-4.4-1.6-6.7-2.5l-1.7-0.7l-1.7-0.6c-1.1-0.4-2.2-0.7-3.3-1l0.9-1.4c-2.7-1.3-5.1-2.5-7.4-3.6s-4.5-1.9-6.8-2.8
						s-4.6-1.9-7.4-2.7s-5.8-1.8-9.4-2.9c1.1-0.1,2.2-0.1,3.3-0.2c-1.7-0.6-3.5-1-5.3-0.9c-1.5,0.1-3,0.2-4.5,0.5
						c-1.4,0.3-2.8,0.5-4.3,0.6c-1.7,0.1-3.4,0-5-0.4l-1.7-3c-3.6-0.8-7.1-1.8-10.8-2.5l-5.4-1.2c-1.8-0.4-3.6-0.8-5.5-1.1
						c-3.7-0.6-7.3-1.1-11-1.4c-3.7-0.2-7.3-0.1-11,0.2c0.3-0.3,0.7-1.1,3.1-1c-0.9-0.1-1.9-0.2-3.1-0.3l-0.7-0.5l-2-0.1
						c-2.8-0.2-5.9-0.3-8.7-0.4c-2.3-0.1-4.6,0.1-6.9,0.5c-1.6,0.4-2.4,1-1.7,1.8c-0.1-0.6-1-0.8-2.6-0.9c-0.8,0-1.7,0-2.7,0
						L297,1.5c-0.6,0.1-1.1,0.2-1.7,0.2c-4.7,0.7-10.3,2-14.2,2.8l1-1.8c-1.6,0.6-2.8,1.3-3.9,1.8s-2,1-3,1.4
						c-2.9,1-5.8,1.8-8.8,2.3c-2.2,0.1-2.1-1.1,0.9-1c-2.3-0.1-4.5,0.4-6.5,1.4c-2.4,1.1-5,1.7-7.7,1.8l3-1.7
						c-7.4,1.3-6.8,1.6-10.5,3.8c-4.4,1.8-13.9,2.8-15.4,1.8c-0.7,1.2-4.3,3.5-8.7,4.3c-0.7-0.4,0.7-1.2,1.4-1.6
						c-1.6,0.3-3,0.6-4.3,1s-2.5,0.8-3.7,1.3c-2.3,0.9-4.3,1.8-6.2,2.7s-3.7,1.7-5.6,2.4c-1.9,0.8-3.9,1.4-5.9,1.8
						c-0.5-0.4-1.1-0.6-1.7-0.4l6.6-2.6c2-0.8,3.9-1.3,5.4-1.8c1.4-0.6,2.9-1,4.4-1.4c-0.5-1.5-8.3,0.9-2.9-3.2
						c-5.9,3.1-15.3,9.6-22.8,12c-0.4,0-0.8,0-1.2-0.1l0.7-0.5c-1.6,0.6-3.1,1.4-4.4,2.3c-2.1,0.7-4.1,1.4-6.2,2.3
						c-0.7-0.1-1.4-0.1-2,0.2c-1.1,0.4-2.2,0.9-3.3,1.5c-2.4,1.2-5.1,2.8-7,3.7c1.1,1.3-3.7,3.5,1.3,2.5c-0.6,0.2,0.6-0.5,2.9-1.8
						c0.5-0.3,1-0.6,1.4-0.9c0,0.1-0.1,0.2-0.2,0.3c2.3-1.2,5.3-3,8.9-4.6c-2.6,2-5.1,4.3-9.5,5.5c-1.3,1.9-2.8,3.9-3.7,5
						c-0.8,0.1-1.6,0.2-2.4,0.3s-1.7,0.4-2.6,0.6c-1.8,0.5-3.6,1.1-5.3,1.6c-3.4,1.1-6.4,2-7.4,1.8c-2.5,1.9-5.2,3.9-8,5.9l-4.2,3
						c-1.4,1-2.7,2.1-4,3.2c-2.6,2.1-5,4.2-7.1,6.3c-1,0.9-1.9,1.9-2.7,3c-0.7,0.9-1.4,1.9-1.9,2.9c-2.5,2.5-3.7,1.8-5,2.2
						c1.4-1.5,3.3-3,3.9-4c-1.2,1.3-2.9,2.7-4.6,4.2l-2.6,2.3c-0.9,0.8-1.7,1.6-2.5,2.4c-3.2,3.2-5.8,6-5.7,7.4
						c-1.8,1.3-2.6,1.6-2.8,1.5s0-0.6,0.2-1c0.4-0.8,0.5-1.3-3.7,3.1l0.7-1.6c-9.9,6.9-15.7,15-21.3,23.4c-1.4,2.1-2.8,4.2-4.2,6.4
						c-0.7,1.1-1.5,2.1-2.3,3.2c-0.7,1.1-1.5,2.2-2.3,3.3c-3.6,4.8-7.5,9.3-11.7,13.6c1.3-1.3,1.9-2,2.4-2.1c-2.3,2.9-4.7,5.9-6.9,9
						s-4.2,6.4-6.2,9.6l-1.5,2.4l-0.8,1.2l-0.7,1.3l-2.8,5.1c-1.8,3.4-3.7,6.7-5.3,10.3l-5,10.4c-1.5,3.5-3.1,7-4.7,10.5l-1.3,2.7
						l-0.6,1.3l-0.5,1.3c-0.7,1.7-1.5,3.5-2.3,5.2s-1.6,3.4-2.4,5.1l-1.2,2.5l-1.1,2.5c-1.2,2.6-2,5.3-2.4,8.1
						c-0.1,1-0.1,1.9-0.2,2.8l-0.1,1.5c0,0.5,0,1.1-0.1,1.8l-2.2,1.2l-0.3,9c-0.5,2.9-1.2,5.8-2.1,8.6c-0.9,2.7-2,5.3-3.1,8.1
						c-0.6,1.4-1,2.8-1.5,4.3c-0.4,1.5-0.8,3-1.2,4.6c-0.4,1.7-0.6,3.4-0.8,5.1c-0.1,0.9-0.2,1.8-0.2,2.8s0,1.9,0.1,2.9l1.4-1.8
						c-0.9,5.6-1.5,17.8-2.7,16.8c0.7,1.3,0.8,2.8,0.3,4.1l-1,0.1l0.3,7c0.1,1.2,0.1,2.3,0.2,3.5l0.3,3.5c-0.5,5.3-1.4,4.9-2.3,5.1
						c-0.4,0.1-0.9,0.3-1.2,1.5c-0.2,0.9-0.4,1.8-0.5,2.7c-0.2,1.6-0.2,3.1-0.2,4.7c0.5,5.9,3.3,16.6,3.8,14.4c0-2.4,0.4-6,1.3-6.2
						l0.7,5.3c2.8,0.8,5.8,4.6,7.4-8.2l-1-4.4c-0.3-1.5-0.7-3-0.9-4.4l1.4-2.8c0,2.5-0.1,5,0.1,7.5c0.3-1,0.4-1.9,0.5-2.9
						c0.1-0.8,0.1-1.7,0-2.5c-0.2-1.5-0.6-3-1-4.5c0.9-1,1.4-2.3,1.6-3.7l-1.3-4.4c-0.4-1.5-0.7-2.9-1-4.4c1.2-1,1.9,4,2.9-1.8
						c-0.9-4.1-2.7,3.8-3.1-3.1c1.6-4.2,2.4-2.8,1.8-7.9c0.4-0.3,0.7-0.2,0.9,0.3c0.2,0.7,0.4,1.5,0.4,2.2c-0.1-1.2-0.1-2.5-0.1-3.8
						l0.3-4.1c0.1-2.7,0.2-5.1-0.4-6.3c1-2.1,1.6-5.8,2.1-8.9c0.6-3.1,1.2-5.5,2.4-5.1c-0.1-0.6-0.2-1.3-0.3-2l-0.1-1.5
						c0-0.5,0-1.1,0-1.7c0-2.3,0.3-4.7,0.6-7c0.7,4,1.6,0.3,2.7-4.1c0.5-2.1,1.1-4.1,1.9-6.1c0.7-1.6,1.4-2.5,2.1-1.8
						c-0.3-1.9-0.3-3.8,0.1-5.7c0.2-1.2,0.4-2.4,0.7-3.6c0.3-1.2,0.7-2.5,1.1-3.8c0.8-2.6,1.7-5.4,2.4-8.1l0.6-2l0.6-2
						c0.4-1.3,0.7-2.5,1-3.8c0.1,0.9,0,1.7-0.4,2.5c2.2-5,3.6-6.2,5.3-9.3c-2-1.6,1.1-9.6,1.6-14.4c1.2-1.3,1.9-1.6,2.2-1.4
						s0.4,0.9,0.4,1.8c0,1.8-0.3,4,1.1,3.5c-0.5-0.1-0.5-0.9-0.4-2c0.2-1.3,0.5-2.5,0.9-3.7c0.8-2.6,1.5-4.9,0.3-4.3
						c3.6-4,2.6-3.7,5.5-5.1c-1.1-1.1-0.7-2.2,0.1-3.6c1.1-1.6,1.9-3.5,2.2-5.4c2.5-2.9,3.3-3,3.9-3.3c0.4-0.2,0.8-0.6,1-1
						c0.4-0.6,0.9-1.7,1.8-3.6C55,160.7,52,167.4,52.1,167.4z M192.1,37.6L192.1,37.6l-3.6,1.8L192.1,37.6z M207.4,31.6
						c-1.1,0.3-2.1,0.7-3.1,1.1l-3.5,1.4c-0.8-0.3-0.4-1.1,1.2-1.7c-0.4,0.3,0.4,0.2,1.6,0S206.2,31.7,207.4,31.6z M170.3,35
						c2.3-1.5,3.2-1.6,3.7-1.4c-1.1,0.6-2.4,1.3-4.1,2.3c0,0.1-0.1,0.2-0.2,0.3C169.8,35.7,170,35.3,170.3,35L170.3,35z"/>
					<path class="st2" d="M167,39.2c-0.3,0.2-0.5,0.4-0.9,0.6c0.6-0.1,1.1-0.3,1.6-0.4l0.6-0.9L167,39.2z"/>
					<path class="st2" d="M422.6,316.8l0.2-0.3c-0.2,0.2-0.4,0.4-0.6,0.5C422.3,317,422.5,316.9,422.6,316.8z"/>
					<polygon class="st2" points="425.5,44.3 425.7,44 424.2,43.7 					"/>
					<path class="st2" d="M342.7,350.5c-0.3-0.3-0.7-0.5-1.1-0.6C341.9,350.2,342.3,350.4,342.7,350.5z"/>
					<path class="st2" d="M309.4,334.4c-0.6-0.7-1.2-1.3-1.7-2l-1.6-2.1c0.7,0.9,1.3,1.7,1.8,2.4S308.9,333.9,309.4,334.4z"/>
					<path class="st2" d="M294.1,310.5c-0.3-0.2-0.6-0.2-0.9-0.3c0,0,0,0,0,0.1L294.1,310.5z"/>
					<path class="st2" d="M234.4,224.4c-0.2,0.3-0.4,0.6-0.6,0.9C232.4,227.6,233.4,226.1,234.4,224.4z"/>
					<path class="st2" d="M356.7,176.3l-2.3-0.2c-0.8,0-1.5-0.1-2.3-0.2C354.6,176.6,356.4,177.2,356.7,176.3z"/>
					<path class="st2" d="M228.9,368.6L228.9,368.6l0.4,0.8L228.9,368.6z"/>
					<path class="st2" d="M345.8,174.7c1.1,0.3,2.2,0.6,3.4,0.8c1,0.2,2,0.4,3,0.5c-1-0.3-2-0.6-3.1-0.8
						C348,174.9,346.9,174.7,345.8,174.7z"/>
					<path class="st2" d="M359.4,248.8c0.3,0.3,0.6,0.6,1,0.9c0.1-0.1,0.2-0.1,0.3-0.1C360.2,249.3,359.8,249,359.4,248.8z"/>
					<path class="st2" d="M360.6,249.6l1.3,0.8C361.3,249.8,360.9,249.5,360.6,249.6z"/>
					<path class="st2" d="M364.4,252c-0.8-0.6-1.6-1.2-2.5-1.8l0.6,0.5c0.2,0.2,0.4,0.4,0.6,0.6C363.5,251.7,363.9,251.9,364.4,252z
						"/>
					<path class="st2" d="M325.2,242.7l-0.2,0.7C325.2,243.3,325.2,243,325.2,242.7z"/>
					<path class="st2" d="M314.9,247.2c0.6-0.3,1.3-0.6,2.1-0.9s1.6-0.4,2.5-0.7s1.7-0.5,2.6-0.8c0.9-0.2,1.8-0.5,2.6-0.9l0.2-0.6
						c-0.6,0.4-1.2,0.7-1.9,0.8c-0.4,0.1-0.9,0.2-1.4,0.3l-1.5,0.4c-1,0.3-2.1,0.5-3.1,0.9C316.2,246.1,315.5,246.5,314.9,247.2z"/>
					<path class="st2" d="M282.9,284l0.4-2.7c0.1-0.9,0.4-1.8,0.6-2.6l0.6-2.6c0.2-0.9,0.6-1.7,0.9-2.6c-1.2,1.6-2.8,3.9-1.5-1
						c-0.9,1.7-1.6,3.5-2,5.4c-0.1,0.6,0.2,0.3,0.6,0s0.7-0.5,0.9,0.2C283.4,278.9,283.2,280.5,282.9,284z"/>
					<path class="st2" d="M287.7,317c-1.3-2.6-1.5-2.5-1.5-1.8c0,0.8,0.4,2.2,0.1,2.1c1.1,1.6,1.7,2.6,2,2.6S288.3,319.1,287.7,317z
						"/>
					<path class="st2" d="M433.1,245.2l1.6,0.2C433.3,241.1,434.1,245.5,433.1,245.2z"/>
					<path class="st2" d="M406.1,210l1.7,3.7c0.8,0.2,1.5,0.5,2.2,0.7C408.8,212.8,407.4,211.4,406.1,210z"/>
					<path class="st2" d="M394.3,184.1c0.6,0.3,1.2,0.6,1.7,1c-1-0.7-2.2-1.3-3.2-2s-2.2-1.3-3.3-1.9
						C391.1,182.1,392.7,183.1,394.3,184.1z"/>
					<path class="st2" d="M243.1,413.1l0.4-2.3C241.3,409,239.2,410,243.1,413.1z"/>
					<path class="st2" d="M401.8,458.4c0.7,0.2,1.3,0.3,2,0.3c0.9,0,1.7-0.1,2.5-0.2c1.7-0.2,3.4-0.8,5-1.6
						c-1.9,0.4-3.8,0.6-5.5,0.8c-0.8,0.1-1.6,0.2-2.3,0.3C403,458.1,402.4,458.2,401.8,458.4z"/>
					<polygon class="st2" points="470.8,55.9 473.9,57.5 468.4,53.9 					"/>
				</g>
			</g>
		</g>
	</g>
</g>
</svg>
