<?xml version="1.0" encoding="utf-8"?>
<!-- Generator: Adobe Illustrator 21.0.0, SVG Export Plug-In . SVG Version: 6.00 Build 0)  -->
<svg version="1.1" id="Camada_1" xmlns="http://www.w3.org/2000/svg" xmlns:xlink="http://www.w3.org/1999/xlink" x="0px" y="0px"
	 viewBox="0 0 121.7 127.1" style="enable-background:new 0 0 121.7 127.1;" xml:space="preserve">
<style type="text/css">
	.st0{clip-path:url(#SVGID_2_);}
	.st1{fill:#330202;}
	.st2{fill:#4D2222;}
</style>
<title>Ativo 4</title>
<g id="Camada_2">
	<g id="Camada_1-2">
		<g>
			<defs>
				<rect id="SVGID_1_" x="-51.3" y="1.3" width="173" height="128"/>
			</defs>
			<clipPath id="SVGID_2_">
				<use xlink:href="#SVGID_1_"  style="overflow:visible;"/>
			</clipPath>
			<g class="st0">
				<circle class="st1" cx="121.7" cy="8.3" r="111.5"/>
				<path class="st2" d="M237.8,8.3c-0.6-0.4-2-0.2-1.7,0.9l2.3,0.8L237.8,8.3z"/>
				<path class="st2" d="M233.3,15.1c1,1.3,2.9,2.8,5.1,2.2c-2.1-1.4-1.2-1.6-3.7-3.1c-0.1-0.7,0.3-1.4,1.1-1.6c0.2,0,0.4,0,0.6,0
					c-0.6-0.4,0.5-1.6-0.9-2.2c-1.9,1.3-1.9,3-0.6,4.8C234.3,15.6,233.7,15.2,233.3,15.1z"/>
				<path class="st2" d="M184.4,96.4l0.7-0.1C184.8,96.3,184.6,96.3,184.4,96.4z"/>
				<path class="st2" d="M128.8,115c0.4-0.1,0.6-0.3,0.6-0.5C129,114.6,128.7,114.8,128.8,115z"/>
				<path class="st2" d="M118.7,112.6c0.2,0.1,0.4,0.1,0.6,0.2C119.1,112.6,118.9,112.4,118.7,112.6z"/>
				<path class="st2" d="M184.4,96.4l-1.7,0.3C183,97.5,183.7,96.8,184.4,96.4z"/>
				<path class="st2" d="M237.1,29.8c-0.1-0.4-0.2-0.7-0.4-1c0,0.3,0.1,0.6,0.1,0.9L237.1,29.8z"/>
				<path class="st2" d="M202.4,77.5l0.3-0.4c-0.1-0.3-0.3-0.6-0.5-0.9L202.4,77.5z"/>
				<path class="st2" d="M213.5,61.1c-0.3,0.3,1.3,1.5,2,2.1c-0.4-0.4-0.7-1-0.7-1.5C214.5,61.4,214,61.2,213.5,61.1z"/>
				<path class="st2" d="M228.4,32.8l-0.1-0.6C228.3,32.3,228.3,32.6,228.4,32.8z"/>
				<path class="st2" d="M192.2,87.3c-0.2-0.2-0.4-0.3-0.6-0.4C191.7,87.1,191.9,87.2,192.2,87.3z"/>
				<path class="st2" d="M239.6-17.7c-0.1,0-0.2,0-0.3,0.1C239.5-17.5,239.6-17.5,239.6-17.7z"/>
				<path class="st2" d="M232.7,8.3l-0.1-0.3c-0.4,0-0.7-0.1-1.1-0.1L232.7,8.3z"/>
				<path class="st2" d="M101.4,108.1L101.4,108.1C101.9,108.1,101.7,108,101.4,108.1z"/>
				<path class="st2" d="M20.7-13.6c-2.2,1.5-1.5-3.5-4.1-1.1C17.4-14.8,19-11.6,20.7-13.6z"/>
				<path class="st2" d="M236.8,30.3c0,0.3-0.1,0.6-0.1,0.9C236.7,30.9,236.8,30.6,236.8,30.3z"/>
				<path class="st2" d="M16.6-14.7L16.6-14.7l-0.3,0.3L16.6-14.7z"/>
				<path class="st2" d="M63.7,93.5c-0.1,0.3-0.2,0.7-0.1,1C63.7,94.2,63.7,93.8,63.7,93.5z"/>
				<path class="st2" d="M90.2,109.4l-0.6-0.5C89.7,109.1,89.9,109.3,90.2,109.4z"/>
				<path class="st2" d="M49.4,85.6c-0.2-0.4-0.1-0.7-0.7-0.9c0,0.1,0,0.2,0,0.3C49,84.9,49.3,85,49.4,85.6z"/>
				<path class="st2" d="M38,73.1c-0.1,0.2-0.1,0.3-0.1,0.5l0.4,0.4L38,73.1z"/>
				<path class="st2" d="M213-69.2c-0.2,0.6-0.4,1.2-0.8,1.8C213.1-68.5,215.4-66.7,213-69.2z"/>
				<path class="st2" d="M236,29.6c0.5,0.2,0.7,0.4,0.7,0.7c0-0.2,0-0.4,0-0.6C236.5,29.5,236.3,29.5,236,29.6z"/>
				<path class="st2" d="M38.2,96.4l-2-2.3C36.8,94.9,37.5,95.7,38.2,96.4z"/>
				<path class="st2" d="M88.7-106.6l0.6-0.4C89-107,88.8-106.8,88.7-106.6z"/>
				<path class="st2" d="M29.8,87.5c0.2-0.7,0.1-1.5-0.1-2.2c-0.2,0-0.4,0-0.6,0.1L29.8,87.5z"/>
				<path class="st2" d="M212.3-67.3L212.3-67.3z"/>
				<path class="st2" d="M227.7-53.5c-1.4-2.6-2.9,0.1-4.5,0.3c-2.5-2.5,0.8-2.3,1.2-4.1c-0.9-0.7-2-1.2-3.1-1.5
					c-0.9-0.2-1.8-0.7-2.4-1.4c0.3-0.3,0.2-0.7,0.9-0.7c-1.5-0.3-2.5-1.7-3.6-3s-2.4-2.6-4.2-2.8c0-0.2,0.1-0.5,0.3-0.7
					c-0.6,1-1.5,1.9-2.5,2.6c-0.9-0.9-2.7-0.7-1.8-2.1c0.5,0.6,1,0.2,1.7,0.1l-1.4-0.5c1-2.5,1.8,0.8,3.2-0.4
					c-1.2-0.7-2.6-1.3-3.9-2c-1.2-0.4-2.1-1.2-2.8-2.2c1.4-2,3.8,2.8,3.5-0.6c0.5,1,1,1.9,1.4,2.9c1.2-4.3,1.1,1.6,2.6-2.7
					c-0.4-0.8-1-1.4-1.6-2c-0.5-0.4-1-0.8-1.6-1.1c-1.3-0.8-2.4-1.8-3.3-3c-1.6,0.3-1.1,1.6-2.7,1.9c-1.1-0.3-2-1.1-2.4-2.1
					c-0.2-0.8-0.3-1.7-0.1-2.5c0.2-1.7,0.4-3.2-2.2-3.4c-1.9,0.5-4.1,2.6-5.5-0.5l2.5-1.5c-3-2.7-4.1,1.7-6.4-2.2
					c1.2-0.4,3.1,1.1,2.8,0.5c-1-3.3-2.4,0.1-4.1-1.1l1-2.2c-2-1-4.1-1.9-6.3-2.5c-2.3-0.7-4.5-1.4-6.7-2.2c0.6-0.5,1.6-0.8,1-2
					c-3-0.9-5.8-2.2-8.5-3.9c-1.4-0.8-2.8-1.6-4.1-2.5c-1.3-0.9-2.7-1.6-4-2.3l-2.7,1.3c-0.4-0.2-0.5-0.7-0.3-1
					c0.1-0.1,0.2-0.3,0.3-0.3c-1.9-1.4-0.5,1.2-1.8,1.7c-0.6,0.1-1.1-0.3-1.2-0.8c-0.1-0.6,0.3-1.1,0.8-1.2
					c-1.2,0.2-2.5,0.3-3.7,0.3c-1.4,0.1-2.8,0.1-4.2,0c-0.7,0-1.4-0.1-2.1-0.2c-0.7-0.1-1.3-0.2-2-0.4c-1.2-0.3-2.3-0.8-3.4-1.5
					l0.9-0.5c-1.5-0.7-2.6,0.3-3.6,1.1s-1.9,1.4-3.3,0.3l0.6-0.3c-3.5-0.7-7-1-10.5-0.9c-0.9,0-1.7-0.1-2.5-0.1
					c-0.8,0-1.6-0.1-2.4-0.2c-1.5-0.2-3-0.7-4.5-1.4c-0.4,1.5-2.1,1.3-3.8,1.3c-1.7-0.1-3.3,0.2-3.2,2.2c-1.3-0.5-2.6-1.1-3.9-1.8
					c-1.6-0.7-3.4-1-5.1-1c-1.6,0.1-1.7,3-3.4,3.8l-0.5-2l-1.9,2.8c-0.6-0.7-1.3-1.4-1.9-2.2l-1.6,1c0.7-0.1,1.7,0.5,1.7,1.2
					c-1.3,0.8-2.8,1-4.3,0.7c-1.4-0.2-2.7-0.7-2.9-1.2l-2.8,1.9c-0.9,0.6-1.8,1.3-2.7,2c-0.2-0.9,0.7-1.5,1.3-2.4
					c-2.4,3.3-1.4-1.9-3.7,1.2c0.6,0.3,0.3,1.3,0.4,1.7c-1.2-0.3-2.5-0.1-3.6,0.4c-1.4,0.5-2.7,1.2-3.8,2.1l-0.2-1.5
					c-1.2,0.5-2.3,1-3.4,1.7c-0.6,0.3-1.1,0.6-1.7,1L62-97.2L58.7-95c-1.1,0.8-2.2,1.6-3.3,2.3c1-0.3,2,0.3,2.3,1.2
					c0.2,0.6,0,1.3-0.4,1.8l-1.8-1.6c-0.1,1.7,1.8-0.2,1.1,2.4c-1.8,0.9-2.6-1.4-2-2.7l-1.6,2.1c-0.5-0.5-0.3-1.1-0.6-1.9
					c0,1.7-4.9,0.6-4.5,3.5l-0.5-0.5c-1.1,0.8-2,1.6-2.8,2.3c-0.8,0.7-1.4,1.5-2.1,2.1l-1.9,2c-0.7,0.7-1.3,1.4-2.1,2.2
					c1.3,1.5-0.3,2.4-0.1,4.4c-1.3,0.9-2.9,1.8-4.4,2.8c-1.6,1-3,2.3-4.2,3.8c-1,2.7,0.8,1.7,0.9,3.4c-1.5-1-3.8,2.2-3.6-0.2
					c-1.1,1.5-2,3-2.9,4.7c-0.4,0.7-0.8,1.5-1.2,2.5s-0.8,2.1-1.3,3.5c1-0.1,1.6-0.6,1.9,0.1c-0.3,1-1.9,1.6-2.6,1V-54
					c-0.6,3.5-3.5,6-6.2,8.8c-1.3,1.2-2.5,2.7-3.5,4.2c-0.4,0.7-0.7,1.4-0.9,2.2c-0.2,0.8-0.2,1.6,0,2.3l-0.1-0.3
					c0,2-0.2,3.8-0.1,5.8c-1.1,2.3-0.8-1.9-2.4-0.5c0.2,1.4,0.2,2.8-0.1,4.2c-0.2,1.1-0.6,2.2-1,3.3c-0.9,2-1.7,4-1.2,6.6
					c-0.7,0.3-1.4,0.8-1.9,1.4c-0.5,0.6-0.8,1.2-1.1,1.9c-0.5,1.6-0.8,3.3-0.8,5C1.7-7.3,1.7-5.4,1.5-3.8C1.4-2.2,0.9-0.6,0,0.7
					l1.3-0.2C2.4,1.8,0.4,2,0.1,3c1-0.1,1.2-1.4,1.8-0.5c0.2,2.8,0.3,5.6,0.3,8.5c0,1.4-0.1,2.9-0.2,4.3s-0.1,2.9-0.2,4.4
					S1.7,22.5,1.7,24s-0.1,3,0,4.4s0.1,3,0.2,4.5s0.3,2.9,0.5,4.4c0.3,2.1,2.1,2.3,3.5,2.7s2.6,0.9,1.9,3.9L5,43
					c0.6,0.9,1.2,1.9,1.7,2.8c0.5,1,1,1.9,1.4,2.9c0.8,2,1.7,4,2.4,6s1.7,4,2.7,5.9c1,1.9,2.3,3.6,3.7,5.1c-0.7-0.2-1.3,0.2-1.7-0.6
					c-0.7,2.4,3.2,5.7,4.3,5c0.6,1.2-0.9,0.9-1.1,1.9c0.1,2,4.2,2.6,3.3,4.3c-0.1,0.3-0.7-0.1-1-0.3c1.3,0.5,2.9,4.5,3.9,2.5
					c0.6,1.4,1.5,2.6,2.6,3.6c1,0.9,1.8,2,2.3,3.2c2.7-0.2,2.7,4.7,5.3,3c-2.5,2,1.9,5.8,4.4,5.9c-1.1,0.2,0.6,1.9-0.9,2.3
					c1.7,1.6,3.6,2.4,4.4,1c0.3,2.8,2.4,3.6,4.2,4.2s3.4,1.3,2.9,3.9c6.4,2.6,12.2,4.7,17.7,6.8c-0.8,1.3-2.3,0.7-3.8,0
					c-1.4-0.7-2.8-1.4-3.5,0.1c1.3,0.4,2.6,0.7,4,0.9L68,114c2.4,0.3,4.7,1.1,6.8,2.3c1.1,1-1.3,0.9-2,1.2c2.7,0.6,5.3,1.5,7.8,2.6
					c1.2,0.4,2.5,0.8,3.7,1.2c0.6,0.2,1.3,0.3,1.9,0.4c0.7,0.1,1.3,0.1,2,0c-0.1,0.3-0.7,0.4-1.3,0.5c1,0.2,2.1,1.1,2.4-0.3l-1,0.1
					c-0.5-1.2,0.8-2,2.2-2.6s2.9-1.1,3.1-1.6c-2.6,3.6,4.4,2.1,0.7,6.6c0.9-0.1,1.6-0.7,1.7-1.6c0.9,0.5,1.1,1.1-0.1,2
					c1.1,0.1,2.2-0.2,3.1-0.8c0.8-0.5,1.8-0.7,2.7-0.4c-0.1,0.7-0.8,0.8-1.3,1.6c1.8-1.1,3.6-2.1,6.1-1.2c-0.2,0.4,0,1-0.8,0.9
					c2.2,0.1,4.3-0.3,6.4-1c1-0.3,2-0.5,3.1-0.6c1.1-0.1,2.3,0,3.4,0.3c-1.6,3,1.7,1,1.9,3.6c0.9-0.2,1.8-0.5,2.7-0.8l-1.1-1.2
					c2.4,0,4.4-1.9,6.4-1.2c-0.6,0.4-1.1,0.8-1.7,1.2c1.5-0.2,2.9-0.5,4.4-0.8l-2.5-0.8c2.3-1.5-0.5-3.3,2.6-2.8
					c-0.6,0.3,2.3-0.1,3.6,1.2l0,0c1-1,2.1-2,3.8-1.6c0.6,0.8,0.1,2.9,0.4,3.4c0.4-1.1,1.7-1.6,3.1-2s2.7-0.8,3.2-2.1
					c-0.3,0.7-0.2,1.5,0.1,2.2l0.6-1.9c1.2,0.3,1.4,0.6,1.4,1.6c3.3-0.4-1.8-3,2.3-2.5c-0.3,0.2-0.1,0.4-0.6,0.8
					c4-0.2,6.9-3,10.4-3.4c1.9,2.1-2.7,1.6-0.9,3.3c1.2-0.5,2.4-1.2,3.5-1.9c1.1-0.8,2.2-1.6,3.4-2.4s2.2-1.6,3.3-2.3
					c1.1-0.7,2.2-1.2,3.4-1.7l-0.9,0.2c-0.5-1.8,0.5-1.8,1.8-1.7s3,0.3,3.7-1c-0.4,0.6,0.3,2.2,0.2,1.8c1.7-0.7,3.2-1.7,4.5-3
					c1.4-1.4,2.9-3.1,4.7-5.1v1.2c2.1-0.5,4.6-2.6,6.6-3.7c-0.1-1.1,1-1.8-0.5-2.4c1,0,1.9-0.1,2.8-0.4c0.8-0.3,1.5-0.7,2.1-1.2
					c1.2-1,2.2-2.3,3-3.7c0.8-1.4,1.6-2.6,2.6-3.8c1-1.2,2.5-2,4.1-2.3c-0.5,0.5-0.6,1.8-0.2,1.4c1-1.4,1.8-2.9,2.7-4.4
					c-1.5-0.8-1.2-0.1-2.8-0.2c-0.3-1.2,0-2.6,0.8-3.6c-0.6,2.3,2,1.7,3.3,1.5c-0.5-0.2-0.7-0.8-1.1-1c3.9-0.3-2.3-2.4,1.4-3.9
					l0.6,0.7c0.5-1.3,0.2-3,1.3-4c1.9,0.6-0.1,1.6,1.1,2.6c1.1-1.7-0.6-5.2,1.9-5.7c0,1-0.7,2-0.8,3c3-0.4,2.6-0.9,3.7-2L219,71
					c0.9-0.8,1.8-1.6,2.7-2.4c-0.3,0.2-0.6,0.3-1,0.4c-1.4-2.4-1-3.6-0.3-4.8c0.4-0.6,0.7-1.3,1-1.9c0.2-0.9,0.2-1.8-0.1-2.7
					c1.2,4.3,1.3,1.3,3.1,2.5c0.9-0.5,2.1-1.4,2.5-0.8c-0.4-1.1,0.2-1.6,0.8-2.2c0.8-0.8,0.9-2,0.4-2.9c0.7,0.2,0.8-1.6,2.2-0.6
					c0.4-2.2-1.3,0-2-0.5c-0.4-1.9,0.9-3.4,2.3-5.2c0.3-0.4,0.7-0.9,1-1.4c0.3-0.5,0.5-1,0.7-1.5c0.4-1.2,0.4-2.4,0.1-3.6
					c0-1.7-0.4-3.3-1.1-4.9c-0.3-0.7-0.5-1.3-0.8-2c-0.3-0.8-0.4-1.6-0.5-2.5c0.7-0.5,1.2-0.1,1.6,0.4c0.2,0.4,0.4,0.7,0.6,1.1
					c1.3-1.4,1.7-3.4,1.2-5.3c0.5,0.5,1.1,0.2,1.9-0.2c0.1-1.6-2.3-1.4-0.9-3.3c0.9,0.5,1.7,1.2,2.4,2c-0.2-1-0.4-2-0.8-2.9
					c-0.4-0.9-0.7-1.9-0.9-2.9c1.2-0.3,1.6,1.4,2.3,2.1c-0.3-2.2-0.4-5.6-2.2-6.4l-0.8,1.3c0-0.8,1.6-0.2,1.9,0.4
					c1.2,2-1,2.5-1.7,2.5l-0.3-1.4c-2.1,0.4-2.1,1.7-1.6,3.3s1.2,3.4,0.9,4.6l-2.7-1.6c0.7,1,1.3,2,1.9,3.1
					c-0.9,0.4-2.5,0.5-2.7-0.9c-1.8,1.5,0.7,1.8-1.3,3c-0.3,0.1-0.4,0-0.5-0.2l0.4,2c-0.5-0.5-2.1-0.2-1.4-1.2
					c-0.9,1.1-1.2,2.5-0.8,3.8c0.2,1.1,0.4,2-0.9,2.3l-0.1-0.3c-0.1,2.3,0.3,2.5,1,2.7s1.6,0.3,2.3,2.3c-1.9,0.2-3.8,0.3-5.7,0.4
					l1.9,1.1c-0.2,0.4-0.7,1.2-1.5,0.7c0.7,2.1,1,0.1,1.9,1.5c-1.3,0.7-1.6,2.2-2.1,3.4s-1.1,2.2-2.7,1.7c1.1,1.4,2-1.4,2.1,1.2
					c-1.8-0.4-1.9,0.2-1.9,1.2s0.1,2.1-1.1,2.7c-1.4-1.4,0.4-2.6-2.1-1.6c1.1,1.3,0.5,2.1-0.4,2.8s-2.2,1.2-2.3,2.1
					c1.1,0.7,0.9,1.6,0.3,2.7c-0.8,1.2-1.5,2.5-2,3.8c-0.6-0.6-4.1,3.7-6.5,5.1l-0.3-0.3c0.7,0.8,0.9,1.9,0.4,2.9
					c-0.4,1-1.1,1.9-1.6,2.8c-1-0.7-1.4-1.9-1.2-3c-0.4,0.5-0.8,0.9-1.2,1.4c0.4,0.9,0.3,1.9-0.3,2.7l-1.1-1.6
					c-0.4,0.5-0.7,1.1-0.9,1.6c-0.3,0.6-0.6,1.2-0.9,1.8c-0.6,1.4-1.6,2.5-3,3.1c1.1,1.4,5.4,1.8,3.7,5c-0.8-0.6-2-1.7-1.6-2.6
					c-0.1,0.3-0.2,1.3-0.9,1.4l-0.1-2.1c-1.6,0.5,0.4,1.5-0.6,2.2c-0.9-1-1.3-0.1-1.9-1c0.1-0.3,1.1-0.3,1.1-1
					c-1.1,0.8-2.6,1.1-3.9,0.7c0.6,0.5,1.2,1.4,0.6,2.1c-1.8,1.7-1.7-0.7-3.3-0.3c0.2,1.1-1.7,1.3-0.4,3c-0.6,0.4-1.3-0.2-1.8-0.5
					c-0.6,1-1.3,1.8-2.1,2.6c-0.8,0.8-1.2,1.6,0,2.1l0.4-0.1c0,0.1-0.1,0.1-0.1,0.2l0,0c-0.5,1-1.3,1.8-2.2,2.4
					c-0.9,0.6-1.9,1.1-3,1.4c-2.1,0.9-4.3,1.4-5.8,2.8l-0.3-0.6c-1,0.9-2,1.8-3.1,2.5c-1,0.7-1.9,1.6-2.5,2.6
					c-1,0.2-1.9-0.4-2.2-1.3c-1.5,1.2-1.4,2.1-4.4,2c1.3-1.8-1-0.8,1.5-1.5c-2.5,0.3-3.4-0.5-5.2,2.2c0.2-1.9-2.5-1.5-3.4-0.6l2,0.7
					c-1.1,0.6-2.2,0.9-3.4,1.1l-0.1-2.4c-1.2-0.3-2.4-0.1-3.5,0.5c-1,0.6-1.9,1.3-2.8,2.1c-1.8,1.4-3.6,2.6-5.8,0.6
					c-1,1.8,2.9,0.7,2.1,2.7c-2.4,0.1-5.2-2.8-5.9-2.7c-3.2-0.9-2.4,3.8-5.8,3.2c0.8,1.2,0.5,2.8-0.6,3.6c-0.2,0.2-0.5,0.3-0.7,0.4
					c-2.4-0.1-3.1-3.3-1.7-4c0.5-0.1,0.8,0.1,0.8,0.4c0.7-0.4,1.6-0.8,0.7-1.6l-0.2,0.9c-0.8-0.3-1.6-0.6-2.5-0.7
					c-0.8-0.2-1.4-0.5-1.1-1.2c-1.7,0.8-0.7,1.4,0.6,1.8c-1.2-0.5-2.5-0.6-3.7-0.5c-1.3,0.2-2.5,0.1-3.8-0.3
					c0.5,0.5,0.9,1.5,0.4,1.4c-2.2-0.6-2.7-0.2-3,0.4c-0.3,0.9-1.1,1.4-2,1.4c-1.6-1.4,0.8-3-2.3-2.1c-1.8-1-0.2-2.2,0.6-2.9
					c-0.6,0.3-1.3,0.4-2,0.4c-0.6-0.1-1.2-0.4-1.7-0.7c-0.8-0.6-1.7-1.2-2.6-1.7l1.5-0.5c-0.7,0.2-1.5,0.3-2.2,0.1l0.5,1.8
					c-0.8-0.4-1.4-0.6-1.3-1.2c-1,0.9,0.2,2.9-1.7,4c-1-1-3.6,0.3-3.5-2c3.3,1.4,0.1-2.2,3-2c-0.7,0.1-1.4,0-2-0.4
					c-0.1-0.3,0.2-0.4,0.4-0.5c-2.8-2.6-2,2.1-5.4,1.3c0.7-1.1-0.2-2.5-0.8-2.4c1.3,0.4,0.1,2.2-1.4,2.8c-1.9-1.5-2.6,0-3.7-0.4
					l1.2,0.8c-0.8,1.1-1.9,0.6-3.5,0.4c0.2-1,1.6-0.2,1.2-0.8c-1.2,0.8-2-0.1-2.8-1.1s-1.6-2.1-3-1.8c-0.7-1.2,0.8-2.2,0.1-3.1
					c-3.1,0.5-2-2.7-5-2.6c0,1.8,0.4,1.5-2.2,2.2l4.8,0.9c-1.2,0.3-2.5,0.7-3.7,1c1.3,0.6,3.2,0.3,3.9,0.9c-1.9,0.7-1.6,0.4-1.5,1.9
					c-0.4-1.6-1.4-1.6-2.6-1.6s-2.4,0.1-3-1.2l1.9-3.7c-1.1-1.6-2.6-1.7-4.3-2c-1.7-0.3-3.6-0.4-5.2-2.1c0.3,0.4,0.5,0.9,0.8,1.4
					c-1.4,1.1-2.4-1.3-4-1.5c0.9-1.1,0.4-2,0.4-3c-0.5,0.9-2.5-1.9-4.5,0.1c-0.2-0.9-0.4-1.7-0.5-2.6c-2.3-2.8-5.7,0.6-8-2.1
					c1.8-0.4,1.2-2.2,3.7-1.5c-0.8-0.8-1.4-1.6-2.1-0.9c0-0.6-0.9-0.7-1.8-1s-1.8-0.6-1.7-1.5c-0.8,0.1-1.9,1-2.8,0.1
					c0.1-0.2,0.3-0.4,0.5-0.5c-0.5,0.5-2.1-0.8-2.4,1.1c0.1-1.2-0.2-2.5-0.9-3.6c-0.3-0.5-0.7-1-1.1-1.4c-0.4-0.4-0.8-0.9-1.3-1.3
					c-0.9-0.8-1.6-1.7-2.3-2.6c-0.6-0.9-0.8-2.1-0.6-3.2l-1.5-1.3c-0.5-0.5-1-1-1.4-1.5C34.3,70,33.4,69,32.6,68
					c0.4-0.1,0.6-0.4,0.7,0.1c-0.6-3.3-4.4,0.5-5.1-3.3c0.5-1.4,1-1.1,1.4-0.7s0.7,1,0.8,0.3c1.8-1.4,1.2-2.2,0.2-3.2
					s-2.3-2-1.7-3.7l0.5,0.4c0.6-2.3-3.6-3.1-4.5-6c0.2,0,0.5-0.1,0.6-0.3c-1.5-0.5-2.9-1.5-3.9-2.8c-1.1-1.3-2-2.6-2.9-4.1
					c2,0.3,1.3,0.9,2.8-0.2c-0.7-1.1-2.6,1.4-3.9-1c0.7-1.1,0.8-3.2,2.6-4c0.3,0.8,0.6,1.5,0.8,2.3c0.7-0.5,0.9-1.5,0.4-2.2
					c-0.1-0.1-0.1-0.1-0.2-0.2c-0.5-0.7-1.2-1.3-1.2-2l1.1-0.1c-1.4-3.4-4-2.8-4.7-6.8l-0.7,0.6c-3.2-1.6,1.2-2.1-1.3-3.9l2.6-1.1
					l-1-1.3c-0.4-0.5-0.8-1.2-1.2-1.8c-0.8-1.3-1.5-2.7-2-4.1c2.2,1.3,3.6,4.2,5.1,5.8c-0.2-1.4-0.8-4.7-2.3-5.3
					c0.3,0.6,1.1,1.2,0.8,1.8c-2.3-1.4-3.8-4-3.8-6.7c2.7,0.1,3-1.8,3.1-3.9s0.3-4.7,2.3-5.6c-0.2-0.6-0.4-1.2-0.5-1.9
					c-0.1-0.6-0.1-1.2,0-1.9c0.1-1.3,0.3-2.5,0.7-3.7c0.4-1.2,0.8-2.5,1.2-3.8c0.4-1.3,0.7-2.6,0.9-4c-4.5,1.3,0.2-1.7-4.1-2.2
					c0-1.4,0.2-1.9,0.5-2c1.2-1.2,2.3-2.3,3.4-3.4c0.7-0.3,0.9,0.1,1,0.5s0.1,1,0.6,1.1c1-2.7,2.1-0.7,3.7-2.2c-1.6,0-1.8-1.6-0.8-3
					l-2.8,1.6c-0.5-2.3,0.6-2.9,1.7-3.4s2.3-1.1,1.8-3.4l0.9,1.7c-0.1-2.3,2.7-7,0.5-10.3c0.6-0.1,1.9-0.1,1.8,0.9
					c0.6-1.2,1.1-2.4,1.4-3.7c0.4-1.3,0.6-2.7,1-4.1c0.3-1.3,0.7-2.5,1.3-3.7c0.5-1,1.3-1.9,2.3-2.5l0.7,0.9
					c0.3-0.9-0.8-2.5,0.8-2.8c0.3,0.3,0.6,0.9,0.9,0.6c0-0.6,0-3.1,1.2-3.8l0.3,1.6c0.9-0.7,1.6-1.6,2.1-2.6
					c0.4-0.9,0.7-1.9,0.8-2.9c0.4-2,0.6-4.1,1.7-5.9c1.1,0.9,2.6,1.2,3.9,0.6c1.2-0.4,2.4-1,3.5-1.6l0.3,0.4c1-0.8,1.9-1.8,2.7-2.9
					c0.8-1,1.4-2,2.1-3.1c0.6-1.1,1.3-2.2,1.9-3.3c0.7-1.1,1.5-2.2,2.3-3.2c1.2,0.2,2.5,0,3.6-0.5c1.3-0.5,2.6-1.1,3.8-1.9
					c1.3-0.8,2.7-1.5,4.1-2.1c1.3-0.7,2.7-1.1,4.2-1.3c-1-0.1-1-2.2-0.3-2.9c1.4,0,2.2-3.4,3.2-0.8L78-86.1c2,2.1,3.9,0.4,5.8-0.2
					l-1.1-3.6c1.5,0.7,3.2,0.8,4.8,0.4c1.5-0.5,3-1.1,4.4-1.8c1.3-0.7,2.6-1.3,4-1.7c1.2-0.3,2.5,0.1,3.4,1c1-1.2,2.6-1.5,3.6-2.6
					l0.3,2c1.7-0.1,3-0.1,4.4-0.2c0.7,0,1.4-0.1,2.2-0.3l1.3-0.3l1.5-0.3l-0.7,1.5c2.3,0,2.6-6,4.9-6.2l0.8,2.9
					c2.1,0.1,4.3,0.3,6.4,0.9c1,0.2,2.1,0.3,3.2,0.2c1.1-0.1,2.2-0.4,3.2-0.9c-0.1,0.4-0.3,1.3-1,1.3c2,0.1,7.3,2.8,7.2-1.3
					c-0.3,2.6,4.2,1,6.8,0.3l-0.7,1.8c2.4-2,2.6-2.7,5.5-2.7c0.6,0.4,0.2,1.6-0.6,1c1.9,1.5,2.1-1.3,4.4,0.4l-1.3,0.9
					c2.1,0.8,2.1,0,3.8-0.9c1.6-0.3,4,1.8,3.6,3.6c0.6-0.9,2.3-1.8,3.4-0.8c-0.1,0.5-0.5,0.9-1,1c0.6,0.6,1.4,1,2.2,1.1
					c0.7,0.2,1.4,0.2,2.1,0.3c1.3,0.1,2.6,0.1,3.3,1.6c-0.2,0.4-0.2,0.8-0.1,1.3c-2.6-1.3-4.8-2.4-4.5-2.4c-0.7,1.7,1.3,2.9-1.4,4.4
					c1.4-0.4,2.8-0.7,4.3-0.9c1.5-0.1,3,0,3.9,0.9c0,0.2,0,0.5,0,0.7l-0.3,0.1c0.4,0.4,0.9,0.5,1.4,0.4c0.4,0.6,0.8,1,1.4,1.4
					c-0.5,1.4,1.9,2,2.9,2.7c0.9-1.7,2.1-0.6,1.7-2.8c0.1,0.2-0.3,0.1-1-0.3c-0.2-0.1-0.4-0.1-0.6-0.1l0.2-0.1
					c-0.7-0.3-1.6-0.8-2.6-1.4c1.3-0.4,2.6-0.6,3.2,1c1-0.7,2-1.3,3.1-1.8c0.1,1.5,0.3,3,0.8,4.5c0.4,1.1,0.5,2.2,0.3,3.3
					c1.9,0.7,3.7,1.6,5.4,2.5c0.9,0.4,1.9,0.7,2.9,0.9c1,0.2,2,0.1,3-0.2c1.1,0.3,0.2,1.6,0.1,2.3c-0.7-0.1-1.2-0.6-1.8-0.4
					c1.2,0.5,2.4,1.2,3.5,2c1.2,0.7,2.4,1.2,3.4,0.4c1.1,2.7-2.7,0.6,0.2,2.9l-0.9,0.2c0.4,1.7,1.4,3.2,2.8,4.1
					c1.4,0.8,2.8,1.5,4.4,2c1.6,0.6,3,1.5,4.2,2.7c1.3,1.4,2,3.3,2,5.3c0-0.6-0.1-0.9,0.2-1.3c0.2,0.5,0.5,1.1,0.7,1.6
					s0.5,1.1,0.7,1.6c0.5,1,1.1,2,1.8,3c1.2,2,2.6,3.9,3.8,5.9c2.5,3.9,4.5,8.3,4.4,13.1c0.1,2.6,1.7,2.3,3.4,3.4l-1.8,1.2
					c1,0.6,2,1.2,3.1,1.9c0.6,0.7,0.9,1.7,0.7,2.6c-0.2,1-0.5,2-0.9,2.9c-0.4,0.9-0.6,1.9-0.5,2.9c0.1,1.2,0.6,2.2,1.5,3l1.3-0.9
					c0.2,1.1,0.4,2.2,0.7,3.3c0.2,1.1,0.2,2-0.7,1.9c0.3,0.1,1.5,0.4,0.9,1.1l-1.1,0.2c0.4,0.7,0.8,1.3,1.2,2l1.1,2
					C230.1,1,229,1,228,1.1s-1.9,0.4-1.9,2.8c0.5,1.7,3.4,4.9,4.1,4.3c0.1-1,0.8-1.8,1.8-1.9l0.6,1.7c3.3,0.3,6.6,1.7,8.8-2.7
					l-2.1-3l1.5-1.1c0.1,0.9,0.2,1.7,0.2,2.6c1.5-1.5,0.1-2.4-0.9-3.4c0.7-0.2,1.3-0.7,1.6-1.4c-1.1-0.9-2.2-1.8-3.3-2.7
					c1.2-0.5,2.7,1.1,3.1-1c-1.6-1.2-2.7,1.6-3.9-0.6c1.3-1.6,2.5-1.4,1.1-2.9c0.7-0.3,1.5-0.1,1.8,0.6c-0.5-0.8-0.9-1.7-1.2-2.6
					c-0.4-0.9-0.8-1.7-1.7-1.9c0.8-0.9,0.4-2.2,0.3-3.2s-0.2-2,1.3-2.2c-1.4-0.7-2.6-1.9-3.4-3.3c2.1,0.8,1.9-0.5,1.5-2
					s-0.7-3.3,1.3-3.5c-1.8-0.5-2.7-2-3.5-3.8c-0.4-0.9-0.8-1.8-1.2-2.7c-0.5-0.9-1.1-1.6-1.8-2.3c0.3,0.1,1,0.2,0.9,0.6
					c-0.4-1.9,0.3-2.8,0.4-4.2c-2.6,0.8-4.4-1.6-6.6-2.3c1.4-3.2,3.5-0.1,5.5-1.8c-1,0.5-1.9-0.2-2.8-0.8s-1.7-1.2-2.3-0.4
					c0.7-2.3,0-1.7,1.6-3.6c-3.2,1.3-1.3-1.2-3.9-1.5c0.2-3.1,2.5-2.2,0.1-4.1c0.1-0.9,0.7-0.9,1.4-0.7
					C226.9-54,227.3-53.8,227.7-53.5z M175.3-95.4L175.3-95.4l1.3,0.5L175.3-95.4z M170.3-97.8c0.7,0.4,1.4,0.8,2.2,1.1
					c-0.1,0.7-0.6,1.2-1.1,1C171.8-96.1,170.8-97,170.3-97.8z M173.8-80.7c-0.8-0.2-0.8-0.6-0.7-1c0.4,0.2,0.9,0.4,1.3,0.5
					c0.1,0,0.1-0.1,0.2-0.2C174.3-81.1,174-80.9,173.8-80.7z"/>
				<path class="st2" d="M176.3-82.2c0.1,0,0.2,0,0.4,0c0-0.2-0.1-0.4-0.2-0.6l-0.6,0.4L176.3-82.2z"/>
				<path class="st2" d="M185.2,96.3h-0.1c0.1,0,0.2,0,0.4,0.1C185.3,96.4,185.3,96.3,185.2,96.3z"/>
				<polygon class="st2" points="94.6,-109.1 94.7,-108.6 95.1,-109.2 				"/>
				<path class="st2" d="M211.1,81.1c0.2,0.1,0.4,0.1,0.6,0C211.5,81.1,211.3,81.1,211.1,81.1z"/>
				<path class="st2" d="M219.1,70.8l1.6-1.2C220.1,69.9,219.6,70.3,219.1,70.8z"/>
				<path class="st2" d="M225,62.6c-0.2-0.2-0.4-0.4-0.7-0.6l0,0L225,62.6z"/>
				<path class="st2" d="M87,122.2c-0.1,0-0.3,0-0.4,0C85.5,122.2,86.2,122.3,87,122.2z"/>
				<path class="st2" d="M134.9,121.9c-0.4,0.4-0.9,0.8-1.4,1.1C134.3,123.1,135,123.1,134.9,121.9z"/>
				<path class="st2" d="M38.4,96.6L38.4,96.6l-0.3-0.2L38.4,96.6z"/>
				<path class="st2" d="M131.3,123.2c0.7,0.3,1.5,0.2,2.2-0.1C132.7,122.9,132,122.9,131.3,123.2z"/>
				<path class="st2" d="M238.7,20.8l0.1-0.5c-0.1,0-0.2,0-0.3-0.1L238.7,20.8z"/>
				<path class="st2" d="M238.5,20.2l-0.2-0.6C238.3,19.9,238.3,20.1,238.5,20.2z"/>
				<path class="st2" d="M237.9,18.4l0.4,1.2C238.3,19.2,238.4,18.8,237.9,18.4z"/>
				<path class="st2" d="M235.5,33.9l0.7,0.3C236,34.1,235.8,34,235.5,33.9z"/>
				<path class="st2" d="M234.8,38c0.4-0.9,2-2,1.9-3.5l-0.5-0.3C237.1,35.1,233.9,36.8,234.8,38z"/>
				<path class="st2" d="M221.1,50.6c0.6-0.9,1.1-1.8,1.7-2.7c-0.9,0.2-2.1,0.5-1.8-0.9C217.5,49.9,223,46.9,221.1,50.6z"/>
				<path class="st2" d="M215.9,59c0.5-1.7-1-0.5-1.3-0.8C214.7,59.4,214.7,59.8,215.9,59z"/>
				<path class="st2" d="M165.3,106l-0.6-1.7C163.7,105,165,104.9,165.3,106z"/>
				<path class="st2" d="M155.4,119.5c0.6,0.2,1.1,0.5,1.6,0.7l0.1-1.8C156.6,118.8,156,119.2,155.4,119.5z"/>
				<polygon class="st2" points="144.3,109.3 144.8,108.9 142.9,110 				"/>
				<path class="st2" d="M41.2,74.4l-1.5,1.7C40.6,76.5,42.6,75,41.2,74.4z"/>
				<path class="st2" d="M17.7,30.6c0.9-0.8,1.4-2.3,0.2-2.9C17.9,28.8,17.2,30.1,17.7,30.6z"/>
				<path class="st2" d="M86.1-88.2l-0.6,1c0.5-0.4,1-0.8,1.5-1.2C86.7-88.3,86.4-88.3,86.1-88.2z"/>
			</g>
		</g>
	</g>
</g>
</svg>
