<?xml version="1.0" encoding="utf-8"?>
<!-- Generator: Adobe Illustrator 21.0.0, SVG Export Plug-In . SVG Version: 6.00 Build 0)  -->
<svg version="1.1"
	 id="svg2" xmlns:cc="http://creativecommons.org/ns#" xmlns:dc="http://purl.org/dc/elements/1.1/" xmlns:inkscape="http://www.inkscape.org/namespaces/inkscape" xmlns:rdf="http://www.w3.org/1999/02/22-rdf-syntax-ns#" xmlns:sodipodi="http://sodipodi.sourceforge.net/DTD/sodipodi-0.dtd" xmlns:svg="http://www.w3.org/2000/svg"
	 xmlns="http://www.w3.org/2000/svg" xmlns:xlink="http://www.w3.org/1999/xlink" x="0px" y="0px" viewBox="0 0 100 100"
	 style="enable-background:new 0 0 100 100;" xml:space="preserve">
<style type="text/css">
	.st0{fill:#FFFFFF;}
</style>
<g id="layer3" transform="translate(0,-99.999988)">
	<path id="rect4208" class="st0" d="M20,100c-11.1,0-20,8.9-20,20v60c0,11.1,8.9,20,20,20h60c11.1,0,20-8.9,20-20v-60
		c0-11.1-8.9-20-20-20H20z M23.2,117.1h45.8c3.9,0,7.1,3.8,7.1,8.3v6.2c0.1,5.1-6.4,5.1-6.4,0v-6.2c0-0.5-0.2-0.8-0.7-0.8H23.2
		c-0.4,0-0.7,0.3-0.7,0.8v49c0,0.5,0.2,0.8,0.7,0.8h45.8c0.4,0,0.7-0.3,0.7-0.8v-6.6c-0.1-5.1,6.4-5.1,6.4,0v6.6
		c0,4.6-3.2,8.3-7.1,8.3H23.2c-3.9,0-7.1-3.8-7.1-8.3v-49C16.1,120.9,19.3,117.1,23.2,117.1z M77,138.9c0.5,0,1.1,0.2,1.5,0.4
		l13.8,8c2.1,1.2,2.1,4.3,0,5.5l-13.8,8c-2.1,1.2-2.8-0.3-2.8-2.8v-4.5H47.3c-4,0.1-4-7.1,0-7h28.5V142
		C75.7,140.2,75.2,138.8,77,138.9z"/>
</g>
</svg>
